<?xml version="1.0" encoding="utf-8"?>
<!-- Generator: Adobe Illustrator 27.5.0, SVG Export Plug-In . SVG Version: 6.00 Build 0)  -->
<svg version="1.1" xmlns="http://www.w3.org/2000/svg" xmlns:xlink="http://www.w3.org/1999/xlink" x="0px" y="0px"
	 viewBox="0 0 500 500" style="enable-background:new 0 0 500 500;" xml:space="preserve">
<g id="BACKGROUND">
	<rect x="-0.35" y="0.418" style="fill:#F6D800;" width="500" height="500"/>
</g>
<g id="OBJECTS">
	
		<ellipse transform="matrix(0.7071 -0.7071 0.7071 0.7071 -81.3534 240.6308)" style="fill:#FF004D;" cx="249.79" cy="218.518" rx="130.31" ry="130.31"/>
	
		<ellipse transform="matrix(0.7071 -0.7071 0.7071 0.7071 -80.9395 240.8023)" style="fill:#FFFFFF;" cx="250.204" cy="218.104" rx="111.8" ry="111.8"/>
	<g>
		<path style="fill:#F9A0AD;" d="M249.65,351.559c0,2.22-0.31,4.27-0.8,6.05l-0.04,0.13l-0.39,1.29c-0.13,0.4-0.28,0.78-0.43,1.15
			c-0.02,0.04-0.03,0.07-0.05,0.11c-0.01,0.03-0.03,0.07-0.04,0.11h-0.01c-2.99,6.78-11.98,16.67-31.16,13.63
			c-9.59-1.52-17.8-4.66-24.72-8.65c-10.59-6.07-18.17-14.11-23.09-21.31c-8-11.71-15.72-19.04-14.18-23.47l-0.03-0.02
			c0.02-0.03,0.05-0.06,0.06-0.1c0.02-0.03,0.02-0.07,0.03-0.11l0.03,0.01c2.15-4.18,12.77-3.66,26.77-5.98
			c0.96-0.16,1.96-0.3,2.98-0.42c8.67-1.04,19.38-0.65,30.59,3.05c6.97,2.3,14.13,5.88,21.12,11.2c1.46,1.11,2.78,2.24,3.96,3.38
			c4.52,4.33,7.07,8.77,8.34,12.93c0.1,0.33,0.2,0.66,0.28,0.99C249.42,347.639,249.65,349.659,249.65,351.559z"/>
		<path style="fill:#F9A0AD;" d="M328.92,347.759c-3.78,4.68-8.85,9.66-15.25,14c0,0-0.04,0.02-0.11,0.07
			c-8.94,6.06-20.46,10.89-34.68,11.99c-1.26,0.1-2.48,0.15-3.65,0.15c-14.57,0-21.98-7.32-25.84-14.95l-0.05-0.14
			c-0.16-0.36-0.29-0.72-0.41-1.06c-0.01-0.02-0.02-0.05-0.03-0.07c-0.01-0.04-0.03-0.07-0.04-0.11c0-0.01-0.01-0.02-0.01-0.03
			c-0.01-0.03-0.02-0.06-0.03-0.08h0.01c-0.99-3.06-1.53-7.3-0.48-11.99c0.07-0.33,0.15-0.66,0.24-1c0.93-3.47,2.74-7.14,5.89-10.73
			c2.17-2.47,4.96-4.91,8.54-7.2c6.49-4.16,13.01-6.98,19.33-8.78c11.89-3.4,23.09-3.2,32.1-1.54c1.46,0.25,2.86,0.56,4.2,0.89
			c13.76,3.42,24.4,3.75,26.2,8.09l0.03-0.01c0.01,0.03,0.01,0.07,0.02,0.11c0.02,0.04,0.04,0.07,0.05,0.11l-0.02,0.01
			C346.11,330.039,337.83,336.719,328.92,347.759z"/>
		<path style="fill:#FFB6C7;" d="M255.73,342.309c0,0.9-0.05,1.78-0.13,2.62c-1.25,6-2.13,8.04-5.81,13.44
			c-0.15,0.18-0.3,0.34-0.45,0.51l-0.14,0.14l-1.21,1.16c-0.03,0.03-0.06,0.05-0.09,0.08c-0.03,0.02-0.06,0.05-0.09,0.08v-0.01
			c-5.68,4.78-18.1,9.72-33.99-1.45c-6.81-4.79-12.19-10.2-16.39-15.82h-0.01c-0.01-0.01-0.01-0.01-0.01-0.01
			c-7.34-9.8-11.14-20.23-12.83-29.07c-0.21-1.04-0.38-2.05-0.52-3.04c-2.04-14.03-5.75-24-2.42-27.31l-0.02-0.03
			c0.03-0.02,0.07-0.04,0.1-0.06c0.03-0.03,0.05-0.06,0.08-0.09l0.02,0.02c3.76-2.81,13.08,2.33,26.67,6.4
			c3.63,1.09,7.57,2.62,11.6,4.67c9.35,4.75,19.21,12.35,26.92,24c1.61,2.42,3.12,5.02,4.52,7.8c1.32,2.62,2.28,5.11,2.95,7.47
			C255.36,336.869,255.73,339.709,255.73,342.309z"/>
		<path style="fill:#FFB6C7;" d="M314.981,314.627c4.075-13.585,9.213-22.902,6.401-26.664l0.023-0.02
			c-0.026-0.03-0.062-0.05-0.089-0.079c-0.025-0.031-0.039-0.069-0.065-0.099l-0.023,0.02c-3.309-3.334-13.279,0.381-27.315,2.418
			c-14.272,2.071-33.816,9.666-47.935,29.757c-11.169,15.895-6.234,28.313-1.456,33.988l-0.003,0.003
			c0.025,0.029,0.053,0.059,0.079,0.088c0.025,0.029,0.05,0.061,0.075,0.09l0.003-0.003c4.913,5.559,16.472,12.264,33.834,3.549
			C300.456,346.659,310.837,328.44,314.981,314.627z"/>
		<path style="fill:#F9A0AD;" d="M282.35,317.829c0,2.4-0.15,4.85-0.47,7.37c0,0.01,0,0.03-0.01,0.04c-0.43,3.4-1.18,6.9-2.3,10.49
			c-0.11,0.35-0.22,0.69-0.33,1.02c-3,8.82-8.19,14.33-13.76,17.66c-5.03,3-10.37,4.24-14.69,4.54c-0.48,0.04-0.95,0.06-1.4,0.07
			h-0.19c-0.1,0.01-0.2,0.01-0.3,0.01h-0.48c-9.2-0.15-24.65-4.6-30.48-23.3c-1.71-5.48-2.56-10.74-2.74-15.75v-0.04
			c-0.04-0.98-0.05-1.95-0.03-2.91c0.12-8.34,2.06-15.91,4.92-22.49c2.42-5.61,5.52-10.5,8.71-14.55
			c9.43-11.96,14.01-21.93,19.81-22.26v-0.03c0.05,0,0.1,0.01,0.15,0.01c0.04,0,0.09-0.01,0.14-0.01v0.03
			c5.8,0.33,10.38,10.3,19.81,22.26c3.22,4.08,6.34,9.03,8.78,14.7C280.4,301.449,282.35,309.239,282.35,317.829z"/>
		<path style="opacity:0.24;fill:#5B1D16;" d="M281.87,325.239c0,0.02-0.02,0.05-0.03,0.07c0.01-0.04,0.02-0.07,0.04-0.11
			c0.25-0.58,0.43-0.94,0.47-1.02C282.32,324.249,282.17,324.629,281.87,325.239z"/>
		<path style="opacity:0.24;fill:#5B1D16;" d="M313.56,361.829c-8.94,6.06-20.46,10.89-34.68,11.99c-1.26,0.1-2.48,0.15-3.65,0.15
			c-14.57,0-21.98-7.32-25.84-14.95h-0.19l-1.21,1.16c-0.02,0.04-0.03,0.07-0.05,0.11c-0.01,0.03-0.03,0.07-0.04,0.11h-0.01
			c-2.99,6.78-11.98,16.67-31.16,13.63c-9.59-1.52-17.8-4.66-24.72-8.65c5.9,0.82,10.06-0.46,11.67-1.54
			c2.78-1.85-6.03-20.28-6.26-20.78h0.01c0.37,0.17,6.37,2.88,12.33,3.35c6.15,0.5,2.39-7.53,2.7-14.65
			c0.32-7.09,2.68-12.72,2.74-11.82v0.04c0.14,1.15,5.93,20.02,24.65,24.57c2.58,0.63,5.41,0.99,8.5,0.99c0.18,0,0.35,0,0.52-0.01
			c2.4-0.02,4.64-0.23,6.73-0.6c16.66-2.89,24.11-15.32,26.16-19.44c-0.94,2.2-2.62,6.8-2.52,11.26c0.05,2.89,0.86,5.73,3.12,7.8
			c6.83,6.26,22.6-9.85,23.51-10.78c-0.02,0.03-0.06,0.08-0.1,0.15c-0.24,0.33-0.75,1.05-1.44,2.05c-0.01,0.02-0.03,0.04-0.04,0.06
			c-3.47,5.04-11.36,17.06-11.84,23c-0.63,7.64,6.92,7.55,11.92,6.5C308.89,364.569,312.86,362.249,313.56,361.829z"/>
	</g>
	<g>
		<path style="fill:#F3000D;" d="M147.97,275.839c-1,2.11-6.78,2.26-13.82,1.57c-12.83-1.28-29.88-5.34-29.88-5.34
			s-3.27,0.78-8.02,1.76c-12.06,2.49-33.65,6.29-35.68,2.01c-2.58-5.45,18.15-65.39,38.04-75.81c1.9-0.99,3.8-1.53,5.66-1.53
			C125.65,198.499,150.8,269.869,147.97,275.839z"/>
		<path style="opacity:0.53;fill:#5B1D16;" d="M147.97,275.839c-1,2.11-6.78,2.26-13.82,1.57l-0.05,0.59
			c-4.35-0.36-9.52-0.69-15.75-0.22c-10.85,0.81-17.83-1.47-22.1-3.95c-4.25-2.47-5.8-5.13-5.8-5.13s10.03-6.03,8.48-8.81
			c-1.56-2.79-1.58-8.82,4.06-10.71c5.65-1.88,5.34-11.6,2.11-17.25c-3.23-5.64-8.69-8.78-4.64-17.56
			c2.85-6.16,2.64-10.47-1.85-14.34c1.9-0.99,3.8-1.53,5.66-1.53C125.65,198.499,150.8,269.869,147.97,275.839z"/>
		<path style="fill:#FF8300;" d="M172.69,353.809c0,39.3-22.95,52.5-34.27,52.5s-10.06,0-33.32,0c-23.27,0-22.01,0-33.33,0
			c-7.47,0-20.01-5.75-27.67-20.95c-3.94-7.84-6.6-18.18-6.6-31.55c0-30.1,15.68-40.65,23.02-55.95c2.25-4.68,3.71-9.8,3.71-16.05
			l27.7-4.05l13.17-1.92l13.08,1.91l27.79,4.06C145.97,308.539,172.69,314.509,172.69,353.809z"/>
		<path style="opacity:0.38;fill:#6B2315;" d="M172.69,353.809c0,39.3-22.95,52.5-34.27,52.5s-10.06,0-33.32,0
			c-23.27,0-22.01,0-33.33,0c-7.47,0-20.01-5.75-27.67-20.95c7.27,2.23,21.42,8.72,30.04,9.99c10.66,1.57,52.38,0.31,58.97-33.47
			c6.58-33.79-11.61-56.86-15.69-56.62c-4.08,0.25-45.17-2.75-55.52-6.83c-0.5-0.2-0.96-0.39-1.38-0.57
			c2.25-4.68,3.71-9.8,3.71-16.05l27.7-4.05l26.25-0.01l27.79,4.06C145.97,308.539,172.69,314.509,172.69,353.809z"/>
		<path style="fill:#EA6E00;" d="M155.51,275.619v0.44c0,4.44-3.17,8.16-7.36,9.02c-0.59,0.13-1.21,0.19-1.85,0.19H62.23
			c-5.06,0-9.21-4.14-9.21-9.21v-0.44c0-1.14,0.21-2.24,0.6-3.26c1.32-3.47,4.69-5.95,8.61-5.95h84.07
			C151.37,266.409,155.51,270.549,155.51,275.619z"/>
		<g>
			<path style="fill:#FFA14C;" d="M110.317,343.118c0,3.34-2.708,6.048-6.048,6.048c-3.34,0-6.048-2.708-6.048-6.048
				c0-3.34,2.708-6.048,6.048-6.048C107.609,337.07,110.317,339.778,110.317,343.118z"/>
			<path style="fill:#FFA14C;" d="M108.077,324.438c0,7.608-1.705,8.377-3.808,8.377c-2.103,0-3.808-0.769-3.808-8.377
				c0-7.608,1.705-19.175,3.808-19.175C106.372,305.263,108.077,316.829,108.077,324.438z"/>
			<path style="fill:#FFA14C;" d="M120.171,332.602c-5.38,5.38-7.129,4.718-8.616,3.231c-1.487-1.487-2.149-3.236,3.231-8.616
				s14.764-12.353,16.251-10.866C132.524,317.837,125.55,327.222,120.171,332.602z"/>
			<path style="fill:#FFA14C;" d="M122.949,346.926c-7.608,0-8.377-1.705-8.377-3.808c0-2.103,0.769-3.808,8.377-3.808
				c7.608,0,19.175,1.705,19.175,3.808C142.124,345.221,130.558,346.926,122.949,346.926z"/>
			<path style="fill:#FFA14C;" d="M114.785,359.02c-5.38-5.38-4.718-7.129-3.231-8.616c1.487-1.487,3.236-2.149,8.616,3.231
				s12.353,14.764,10.866,16.251C129.549,371.373,120.165,364.4,114.785,359.02z"/>
			<path style="fill:#FFA14C;" d="M100.461,361.799c0-7.608,1.705-8.377,3.808-8.377c2.103,0,3.808,0.769,3.808,8.377
				c0,7.608-1.705,19.175-3.808,19.175C102.166,380.974,100.461,369.407,100.461,361.799z"/>
			<path style="fill:#FFA14C;" d="M88.367,353.635c5.38-5.38,7.129-4.718,8.616-3.231c1.487,1.487,2.149,3.236-3.231,8.616
				c-5.38,5.38-14.764,12.353-16.251,10.866C76.014,368.399,82.987,359.015,88.367,353.635z"/>
			<path style="fill:#FFA14C;" d="M85.588,339.31c7.608,0,8.377,1.705,8.377,3.808c0,2.103-0.769,3.808-8.377,3.808
				c-7.608,0-19.175-1.705-19.175-3.808C66.413,341.015,77.98,339.31,85.588,339.31z"/>
			<path style="fill:#FFA14C;" d="M93.752,327.216c5.38,5.38,4.718,7.129,3.231,8.616c-1.487,1.487-3.236,2.149-8.616-3.231
				c-5.38-5.38-12.353-14.764-10.866-16.251C78.988,314.863,88.372,321.837,93.752,327.216z"/>
		</g>
		<path style="opacity:0.66;fill:#FFF4F3;" d="M95.779,210.916c-3.577-0.826-19.761,23.27-23.838,34.062
			c-4.078,10.792-3.764,12.126,0,14.909c3.764,2.783,13.808-4.563,18.509-21.749C95.152,220.953,99.857,211.857,95.779,210.916z"/>
		<path style="opacity:0.38;fill:#6B2315;" d="M155.51,275.619v0.44c0,4.44-3.17,8.16-7.36,9.02c-0.59,0.13-1.21,0.19-1.85,0.19
			H62.23c-5.06,0-9.21-4.14-9.21-9.21v-0.44c0-1.14,0.21-2.24,0.6-3.26c1.33,2.04,3.12,3.71,5.46,3.71h77.79
			c4.76,0,4.91-4.95,1.74-9.66h7.69C151.37,266.409,155.51,270.549,155.51,275.619z"/>
		<path style="opacity:0.57;fill:#FFC67B;" d="M61.903,305.263c-10.94,15.247-19.547,38.072-19.761,56.615
			c-0.214,18.544,21.643,26.46,30.425,13.21c8.783-13.25,4.729-55,4.729-61.605C77.298,305.263,66.769,298.482,61.903,305.263z"/>
	</g>
	<g>
		<path style="fill:#6C0086;" d="M448.8,259.89c0,0-6.77,2.82-21.13,6.64c-14.36,3.82-25.69,1.45-25.69,1.45s-0.28,0.06-0.82,0.15
			c-2.85,0.45-12.79,1.61-24.87-1.6c-14.37-3.82-21.13-6.64-21.13-6.64s16.59-50.62,36.32-65.6c3.43-2.6,6.95-4.13,10.5-4.13
			C425.95,190.16,448.8,259.89,448.8,259.89z"/>
		<path style="opacity:0.6;fill:#32004C;" d="M456.89,267.85c-2.56,1.43-5.89,2.43-9.98,3.15c-3.28,0.58-7.06,0.98-11.32,1.28
			c-9.49,0.67-20.44-1-29.54-3c-1.7-0.38-3.34-0.77-4.89-1.15c-8.29-2.07-14.1-4.1-14.1-4.1s5.6-1.15,10.83-4.14
			c2.53-1.44,4.98-3.32,6.66-5.7c5.17-7.29,2.78-15.25-1.83-36.09c-3.09-13.96-6.67-21.54-11.24-23.81c3.43-2.6,6.95-4.13,10.5-4.13
			c23.97,0,46.82,69.73,46.82,69.73C453.21,259.89,456.82,263.46,456.89,267.85z"/>
		<path style="fill:#009AD3;" d="M462.99,332.96c0,1-0.02,1.99-0.06,2.99c-0.1,2.39-0.31,4.78-0.62,7.15
			c-1.54,11.76-5.43,22.98-9.4,31.99c-1.14,2.58-2.29,4.97-3.38,7.15c-4.06,8.05-7.46,13.08-7.46,13.08s-18.81,4.25-40.09,5.12
			c-21.27-0.87-40.08-5.12-40.08-5.12s-1.48-2.19-3.65-5.98c-1.12-1.96-2.43-4.36-3.81-7.1c-1.1-2.18-2.25-4.57-3.38-7.15
			c-4.01-9.08-7.94-20.41-9.44-32.28c-0.27-2.07-0.46-4.17-0.56-6.27v-0.01c-0.06-1.19-0.09-2.38-0.09-3.57
			c0-26.17,13.63-35.58,15.88-53.75c0.33-2.65,0.42-5.48,0.19-8.57c-0.09-1.19-0.22-2.42-0.41-3.69l12.28,0.69l33.07,1.87l40-2.26
			l5.36-0.3c-0.06,0.44-0.12,0.87-0.17,1.3C443.96,294.51,462.99,302.01,462.99,332.96z"/>
		<path style="opacity:0.42;fill:#042B82;" d="M356.85,279.21c16.12,3.8,48.52,1.66,55.93,21.55c8.2,22.02,9.47,59.33-7.04,77.03
			c-16.51,17.7-38.77,17.78-47.49,11.55c2.17,3.79,3.65,5.98,3.65,5.98s18.81,4.25,40.08,5.12c21.28-0.87,40.09-5.12,40.09-5.12
			s3.4-5.03,7.46-13.08c1.09-2.18,2.24-4.57,3.38-7.15c3.97-9.01,7.86-20.23,9.4-31.99c0.31-2.37,0.52-4.76,0.62-7.15
			c0.04-1,0.06-1.99,0.06-2.99c0-30.95-19.03-38.45-15.82-64.71c-1.47-0.38-3.22-0.71-5.19-1c-17.96-2.63-54.46-1.91-73.07,0.39
			c-5.25,0.65-9.08,1.43-10.66,2.3c-0.43,0.24-0.84,0.47-1.21,0.7L356.85,279.21z"/>
		<g>
			<path style="fill:#5F0096;" d="M358.251,369.488L358.251,369.488c-1.7,0-3.092-1.391-3.092-3.092v-10.498
				c0-1.7,1.391-3.092,3.092-3.092l0,0c1.7,0,3.091,1.391,3.091,3.092v10.498C361.342,368.097,359.951,369.488,358.251,369.488z"/>
			<path style="fill:#5F0096;" d="M372.655,369.488L372.655,369.488c-1.7,0-3.092-1.391-3.092-3.092v-10.498
				c0-1.7,1.391-3.092,3.092-3.092l0,0c1.7,0,3.092,1.391,3.092,3.092v10.498C375.746,368.097,374.355,369.488,372.655,369.488z"/>
			<path style="fill:#5F0096;" d="M387.059,369.488L387.059,369.488c-1.7,0-3.092-1.391-3.092-3.092v-10.498
				c0-1.7,1.391-3.092,3.092-3.092l0,0c1.7,0,3.092,1.391,3.092,3.092v10.498C390.15,368.097,388.759,369.488,387.059,369.488z"/>
			<path style="fill:#5F0096;" d="M401.463,369.488L401.463,369.488c-1.7,0-3.092-1.391-3.092-3.092v-10.498
				c0-1.7,1.391-3.092,3.092-3.092l0,0c1.7,0,3.091,1.391,3.091,3.092v10.498C404.555,368.097,403.163,369.488,401.463,369.488z"/>
			<path style="fill:#5F0096;" d="M415.867,369.488L415.867,369.488c-1.7,0-3.092-1.391-3.092-3.092v-10.498
				c0-1.7,1.391-3.092,3.092-3.092l0,0c1.7,0,3.092,1.391,3.092,3.092v10.498C418.959,368.097,417.568,369.488,415.867,369.488z"/>
			<path style="fill:#5F0096;" d="M430.271,369.488L430.271,369.488c-1.7,0-3.092-1.391-3.092-3.092v-10.498
				c0-1.7,1.391-3.092,3.092-3.092l0,0c1.7,0,3.092,1.391,3.092,3.092v10.498C433.363,368.097,431.972,369.488,430.271,369.488z"/>
			<path style="fill:#5F0096;" d="M444.675,369.488L444.675,369.488c-1.7,0-3.092-1.391-3.092-3.092v-10.498
				c0-1.7,1.391-3.092,3.092-3.092l0,0c1.7,0,3.092,1.391,3.092,3.092v10.498C447.767,368.097,446.376,369.488,444.675,369.488z"/>
		</g>
		<path style="fill:#5F0096;" d="M456.89,267.85v0.13c0,2.22-0.91,4.24-2.38,5.7c-1.46,1.47-3.49,2.38-5.71,2.38h-93.64
			c-4.45,0-8.09-3.64-8.09-8.08c0-0.83,0.13-1.62,0.36-2.38c0.39-1.27,1.1-2.41,2.02-3.33c1.46-1.47,3.49-2.38,5.71-2.38h93.64
			C453.21,259.89,456.82,263.46,456.89,267.85z"/>
		<path style="fill:#5F0096;" d="M464.3,296.93c0,1.34-0.55,2.56-1.44,3.45c-0.88,0.88-2.1,1.43-3.44,1.43h-115.1
			c-2.68,0-4.88-2.2-4.88-4.88c0-0.3,0.03-0.59,0.08-0.87c0.18-1,0.67-1.89,1.36-2.58c0.88-0.88,2.1-1.43,3.44-1.43h115.1
			C462.1,292.05,464.3,294.24,464.3,296.93z"/>
		<path style="fill:#5F0096;" d="M462.93,335.95c-0.04,1.02-0.11,2.04-0.19,3.06c-0.11,1.37-0.25,2.73-0.43,4.09H343.02
			c-0.49,0-0.97-0.11-1.4-0.29l-0.32-3.6l-0.24-2.67v-0.01c0.56-0.37,1.23-0.58,1.96-0.58H462.93z"/>
		<path style="fill:#5F0096;" d="M452.91,375.09c-0.44,1-0.88,1.97-1.33,2.91c-0.69,1.49-1.38,2.9-2.05,4.24h-95.09
			c-0.71-1.4-1.43-2.88-2.16-4.45c-0.41-0.87-0.81-1.78-1.22-2.7H452.91z"/>
		<path style="opacity:0.66;fill:#A613AA;" d="M392.085,208.773c-4.532-3.708-9.496,7.621-16.339,19.053
			c-6.843,11.432-16.369,24.468-9.383,26.365c6.986,1.897,12.702,6.909,18.736-4.489
			C391.132,238.306,395.578,211.631,392.085,208.773z"/>
		<path style="opacity:0.6;fill:#32004C;" d="M456.89,267.85v0.13c0,2.22-0.91,4.24-2.38,5.7c-1.46,1.47-3.49,2.38-5.71,2.38h-93.64
			c-4.45,0-8.09-3.64-8.09-8.08c0-0.83,0.13-1.62,0.36-2.38c2.03,1.29,5.49,3.11,10.82,3.11c9.35,0,77.02,1.03,83.33,0
			c6.32-1.04,5.12-3.73,0-8.82h7.22C453.21,259.89,456.82,263.46,456.89,267.85z"/>
		<path style="opacity:0.6;fill:#32004C;" d="M464.3,296.93c0,1.34-0.55,2.56-1.44,3.45c-0.88,0.88-2.1,1.43-3.44,1.43h-115.1
			c-2.68,0-4.88-2.2-4.88-4.88c0-0.3,0.03-0.59,0.08-0.87c2.43,1.05,5.85,2.05,10.48,2.05c10.95,0,90.18,1.03,97.58,0
			c5.92-0.83,6.2-2.73,3-6.06h8.84C462.1,292.05,464.3,294.24,464.3,296.93z"/>
		<path style="opacity:0.6;fill:#32004C;" d="M462.74,339.01c-0.11,1.37-0.25,2.73-0.43,4.09H343.02c-0.49,0-0.97-0.11-1.4-0.29
			l-0.32-3.6c31.11,0.19,111.66,0.85,120.22-0.05C461.95,339.12,462.36,339.07,462.74,339.01z"/>
		<path style="opacity:0.6;fill:#32004C;" d="M451.58,378c-0.69,1.49-1.38,2.9-2.05,4.24h-95.09c-0.71-1.4-1.43-2.88-2.16-4.45
			C381.39,377.99,430.13,378.32,451.58,378z"/>
		<path style="opacity:0.76;fill:#50CDEF;" d="M355.159,305.31c-5.088,9.333-10.072,21.911-6.579,24.134
			c3.493,2.223,25.78,4.7,30.038,1.874c4.258-2.826,4.576-22.696,2.67-24.193C379.383,305.627,356.909,302.1,355.159,305.31z"/>
	</g>
	<g>
		<path style="fill:#FF004D;" d="M347.26,94.518c-4.237-4.418-7.295-8.393-9.103-12.126c-0.878-1.909-1.475-3.653-1.671-5.38
			c-0.201-1.712-0.029-3.333,0.558-4.773c0.587-1.44,1.591-2.699,3.054-3.686c1.455-0.972,3.408-1.742,5.759-1.986
			c4.719-0.582,11.334,0.599,18.721,4.909c9.553,5.557,18.943,14.056,26.004,25.085c1.399,2.123,2.61,4.342,3.791,6.538
			c1.097,2.247,2.172,4.471,3.039,6.749c1.794,4.525,3.13,9.066,3.961,13.517c0.477,2.211,0.715,4.425,0.989,6.57
			c0.166,2.166,0.363,4.269,0.345,6.341c0.096,4.126-0.298,8.056-0.842,11.691c-1.216,7.287-3.546,13.408-6.288,18.051
			c-2.714,4.664-5.949,7.827-8.887,9.582c-3.131-6.229-5.065-15.899-8.358-26.8c-0.88-2.725-1.706-5.541-2.762-8.393
			c-0.462-1.437-1.074-2.861-1.583-4.321c-0.616-1.433-1.128-2.912-1.797-4.357c-1.22-2.928-2.63-5.847-4.154-8.753
			c-0.732-1.468-1.589-2.891-2.385-4.361c-0.886-1.428-1.72-2.901-2.674-4.331C358.212,106.85,352.774,100.259,347.26,94.518z"/>
		<path style="fill:#009AD3;" d="M451.812,149.889c0.19-2.872,0.51-5.255,1.07-7.58c0.26-1.132,0.621-2.261,1.057-3.258
			c0.452-1.01,1.037-1.935,1.802-2.648c0.764-0.714,1.713-1.217,2.892-1.383c1.193-0.178,2.562,0.026,4.097,0.719
			c1.482,0.713,3.153,1.925,4.603,3.768c1.467,1.829,2.786,4.263,3.608,7.216c1.083,3.832,1.438,8.041,0.971,12.381
			c-0.254,2.158-0.739,4.404-1.385,6.484c-0.672,2.095-1.527,4.142-2.543,6.103c-3.207,6.095-7.623,10.74-12.135,14.112
			c-4.557,3.409-9.155,5.52-13.312,6.857c-4.17,1.332-7.926,1.882-11.138,1.958c-3.215,0.068-5.902-0.352-7.977-1.164
			c0.742-2.102,2.19-4.395,4.127-6.81c1.931-2.418,4.354-4.953,6.91-7.608c2.555-2.652,5.253-5.435,7.657-8.346
			c2.439-2.922,4.645-6.046,6.31-9.217c0.525-1.023,0.99-2.024,1.404-3.012c0.397-1.018,0.706-1.896,0.996-2.851
			C451.35,153.71,451.699,151.76,451.812,149.889z"/>
		<path style="fill:#6C0086;" d="M413.352,120.408c-0.143-4.642,0.411-8.467,1.613-11.331c1.202-2.86,3.047-4.749,5.284-5.432
			c2.222-0.679,4.837-0.155,7.415,1.857c2.571,2.008,5.127,5.52,6.907,10.823c1.148,3.442,1.727,5.045,2.227,6.803
			c0.466,1.772,0.882,3.71,1.119,8.084c0.366,6.821-0.382,14.138-2.509,21.171c-1.05,3.504-2.496,6.83-4.153,9.907
			c-1.651,3.081-3.592,5.893-5.7,8.353c-4.154,4.966-9.071,8.41-13.395,10.233c-4.353,1.85-8.125,2.021-10.474,1.32
			c0.692-2.453,2.333-5.302,3.975-8.748c1.647-3.444,3.4-7.377,4.712-11.814c0.682-2.196,1.277-4.502,1.734-6.882
			c0.462-2.374,0.86-4.796,1.07-7.243c0.434-4.858,0.458-10.037,0.178-15.071c-0.175-3.25-0.26-4.785-0.177-6.223
			C413.232,124.77,413.442,123.423,413.352,120.408z"/>
		<path style="fill:#FFB6C7;" d="M358.793,35.807c-3.051,0.877-5.571,2.139-7.499,3.554c-0.494,0.322-0.923,0.728-1.34,1.077
			c-0.409,0.368-0.803,0.697-1.14,1.072c-0.671,0.756-1.251,1.427-1.676,2.125c-0.424,0.7-0.742,1.343-0.965,1.929
			c-0.206,0.607-0.306,1.17-0.333,1.658c-0.051,0.983,0.22,1.711,0.729,2.219c0.509,0.508,1.257,0.798,2.16,0.905
			c0.453,0.055,0.937,0.055,1.464,0.026c0.546-0.008,1.125-0.056,1.727-0.148c2.457-0.313,5.54-0.978,9.575-1.359
			c0.327-0.028,0.632-0.053,0.917-0.077c0.288-0.001,0.557-0.001,0.809-0.002c0.503,0.003,0.934-0.009,1.33,0.042
			c0.391,0.033,0.741,0.063,1.073,0.091c0.33,0.03,0.643,0.095,0.96,0.131c0.317,0.048,0.64,0.059,0.99,0.12
			c0.35,0.058,0.729,0.112,1.162,0.161c0.861,0.127,1.928,0.302,3.364,0.626c0.548,0.154,1.099,0.31,1.652,0.466
			c0.535,0.205,1.079,0.359,1.626,0.581c1.098,0.449,2.201,0.936,3.271,1.531c2.149,1.166,4.224,2.624,6.15,4.309
			c3.87,3.364,7.051,7.653,9.389,11.965c2.36,4.333,3.848,8.648,4.657,12.344c0.837,3.702,1.005,6.833,1.407,8.913
			c1.646-1.28,3.655-4.276,4.682-8.763c1.052-4.46,1.031-10.261-0.548-16.327c-1.564-6.067-4.674-12.521-9.592-18
			c-4.884-5.479-11.57-9.923-19.062-11.755c-2.372-0.552-4.13-0.773-5.542-0.876c-0.707-0.035-1.328-0.055-1.898-0.065
			c-0.57-0.012-1.094,0.041-1.604,0.069c-0.51,0.041-1.009,0.066-1.533,0.138c-0.522,0.08-1.071,0.164-1.685,0.259
			c-0.612,0.08-1.283,0.238-2.053,0.403c-0.383,0.084-0.792,0.174-1.23,0.27C359.753,35.541,359.29,35.669,358.793,35.807z"/>
		<path style="fill:#FF8300;" d="M435.052,65.622c-3.658-2.913-6.646-4.942-8.655-6.618c-0.99-0.888-1.765-1.58-2.233-2.3
			c-0.472-0.704-0.659-1.356-0.527-1.922c0.132-0.566,0.583-1.046,1.387-1.405c0.798-0.343,1.976-0.645,3.466-0.606
			c2.993-0.024,7.463,0.917,12.587,3.925c0.416,0.243,0.803,0.468,1.166,0.68c0.356,0.222,0.678,0.442,0.987,0.642
			c0.617,0.403,1.153,0.752,1.638,1.069c0.945,0.667,1.677,1.218,2.44,1.795c0.753,0.588,1.477,1.271,2.445,2.17
			c0.482,0.451,0.969,1.013,1.555,1.641c0.288,0.319,0.595,0.66,0.925,1.025c0.308,0.386,0.636,0.798,0.989,1.24
			c2.172,2.763,4.139,5.815,5.642,9.13c1.522,3.3,2.657,6.819,3.338,10.361c0.144,0.888,0.288,1.773,0.431,2.655
			c0.08,0.886,0.161,1.769,0.241,2.648c0.047,0.438,0.06,0.876,0.065,1.314c0.008,0.437,0.016,0.872,0.024,1.306
			c0.003,0.434,0.02,0.865,0.009,1.295c-0.022,0.429-0.043,0.857-0.064,1.284c-0.051,1.705-0.291,3.369-0.507,4.99
			c-0.309,1.612-0.593,3.185-1.04,4.683c-0.37,1.512-0.928,2.933-1.407,4.312c-0.29,0.673-0.575,1.335-0.856,1.987
			c-0.144,0.323-0.28,0.645-0.428,0.958c-0.16,0.308-0.32,0.614-0.477,0.917c-0.319,0.598-0.632,1.186-0.939,1.762
			c-0.347,0.552-0.687,1.092-1.019,1.621c-0.64,1.061-1.395,1.99-2.067,2.874c-2.787,3.498-5.617,5.499-7.452,6.314
			c0.514-2.001,1.901-4.904,3.158-8.714c0.291-0.964,0.663-1.935,0.923-3.004c0.147-0.523,0.297-1.058,0.45-1.604
			c0.124-0.552,0.249-1.116,0.378-1.69c0.066-0.284,0.133-0.57,0.2-0.859c0.051-0.293,0.103-0.588,0.155-0.886
			c0.105-0.591,0.213-1.191,0.321-1.801c0.13-1.237,0.351-2.478,0.405-3.773c0.131-1.282,0.119-2.602,0.159-3.928
			c-0.054-1.333-0.055-2.678-0.213-4.03c-0.029-0.338-0.057-0.676-0.086-1.016c-0.037-0.339-0.099-0.675-0.146-1.014l-0.147-1.016
			c-0.043-0.34-0.093-0.679-0.173-1.013c-0.137-0.67-0.274-1.344-0.412-2.02c-0.178-0.662-0.357-1.327-0.536-1.993
			c-0.777-2.637-1.813-5.19-3.081-7.626c-1.249-2.445-2.809-4.715-4.463-6.822c-0.266-0.34-0.514-0.656-0.746-0.952
			c-0.249-0.283-0.482-0.546-0.699-0.792c-0.44-0.488-0.789-0.939-1.141-1.303c-0.708-0.723-1.198-1.317-1.706-1.853
			c-0.511-0.537-1.001-1.054-1.624-1.708c-0.332-0.309-0.698-0.65-1.121-1.042c-0.214-0.194-0.437-0.41-0.687-0.626
			C435.625,66.077,435.349,65.857,435.052,65.622z"/>
	</g>
	<g>
		<path style="fill:#FF004D;" d="M155.22,94.518c4.237-4.418,7.295-8.393,9.103-12.126c0.878-1.909,1.475-3.653,1.671-5.38
			c0.201-1.712,0.029-3.333-0.558-4.773c-0.587-1.44-1.59-2.699-3.054-3.686c-1.455-0.972-3.408-1.742-5.759-1.986
			c-4.719-0.582-11.334,0.599-18.721,4.909c-9.553,5.557-18.943,14.056-26.004,25.085c-1.399,2.123-2.61,4.342-3.791,6.538
			c-1.097,2.247-2.172,4.471-3.039,6.749c-1.794,4.525-3.13,9.066-3.961,13.517c-0.477,2.211-0.715,4.425-0.989,6.57
			c-0.166,2.166-0.363,4.269-0.345,6.341c-0.096,4.126,0.298,8.056,0.842,11.691c1.216,7.287,3.546,13.408,6.288,18.051
			c2.714,4.664,5.949,7.827,8.887,9.582c3.131-6.229,5.065-15.899,8.358-26.8c0.88-2.725,1.706-5.541,2.762-8.393
			c0.462-1.437,1.074-2.861,1.583-4.321c0.616-1.433,1.128-2.912,1.798-4.357c1.22-2.928,2.63-5.847,4.154-8.753
			c0.732-1.468,1.589-2.891,2.385-4.361c0.887-1.428,1.72-2.901,2.674-4.331C144.268,106.85,149.706,100.259,155.22,94.518z"/>
		<path style="fill:#009AD3;" d="M50.668,149.889c-0.19-2.872-0.51-5.255-1.07-7.58c-0.261-1.132-0.622-2.261-1.057-3.258
			c-0.452-1.01-1.037-1.935-1.802-2.648c-0.764-0.714-1.713-1.217-2.892-1.383c-1.193-0.178-2.562,0.026-4.097,0.719
			c-1.482,0.713-3.153,1.925-4.603,3.768c-1.467,1.829-2.786,4.263-3.608,7.216c-1.083,3.832-1.437,8.041-0.971,12.381
			c0.254,2.158,0.739,4.404,1.385,6.484c0.672,2.095,1.528,4.142,2.544,6.103c3.207,6.095,7.623,10.74,12.135,14.112
			c4.557,3.409,9.155,5.52,13.312,6.857c4.17,1.332,7.926,1.882,11.138,1.958c3.215,0.068,5.902-0.352,7.977-1.164
			c-0.742-2.102-2.19-4.395-4.127-6.81c-1.931-2.418-4.354-4.953-6.91-7.608c-2.555-2.652-5.253-5.435-7.657-8.346
			c-2.439-2.922-4.645-6.046-6.31-9.217c-0.525-1.023-0.99-2.024-1.404-3.012c-0.397-1.018-0.706-1.896-0.996-2.851
			C51.13,153.71,50.781,151.76,50.668,149.889z"/>
		<path style="fill:#6C0086;" d="M89.128,120.408c0.143-4.642-0.411-8.467-1.613-11.331c-1.201-2.86-3.047-4.749-5.284-5.432
			c-2.222-0.679-4.838-0.155-7.415,1.857c-2.571,2.008-5.127,5.52-6.907,10.823c-1.148,3.442-1.727,5.045-2.227,6.803
			c-0.466,1.772-0.882,3.71-1.119,8.084c-0.366,6.821,0.382,14.138,2.509,21.171c1.05,3.504,2.496,6.83,4.154,9.907
			c1.651,3.081,3.592,5.893,5.7,8.353c4.154,4.966,9.071,8.41,13.395,10.233c4.353,1.85,8.125,2.021,10.474,1.32
			c-0.692-2.453-2.333-5.302-3.975-8.748c-1.647-3.444-3.4-7.377-4.713-11.814c-0.682-2.196-1.277-4.502-1.734-6.882
			c-0.462-2.374-0.86-4.796-1.07-7.243c-0.434-4.858-0.458-10.037-0.179-15.071c0.175-3.25,0.26-4.785,0.177-6.223
			C89.248,124.77,89.038,123.423,89.128,120.408z"/>
		<path style="fill:#FFB6C7;" d="M143.687,35.807c3.051,0.877,5.571,2.139,7.499,3.554c0.494,0.322,0.923,0.728,1.34,1.077
			c0.409,0.368,0.803,0.697,1.14,1.072c0.671,0.756,1.251,1.427,1.676,2.125c0.424,0.7,0.742,1.343,0.965,1.929
			c0.206,0.607,0.306,1.17,0.333,1.658c0.051,0.983-0.22,1.711-0.729,2.219c-0.509,0.508-1.257,0.798-2.16,0.905
			c-0.453,0.055-0.937,0.055-1.464,0.026c-0.546-0.008-1.125-0.056-1.727-0.148c-2.457-0.313-5.54-0.978-9.575-1.359
			c-0.327-0.028-0.632-0.053-0.917-0.077c-0.288-0.001-0.557-0.001-0.809-0.002c-0.503,0.003-0.934-0.009-1.33,0.042
			c-0.391,0.033-0.741,0.063-1.073,0.091c-0.33,0.03-0.643,0.095-0.96,0.131c-0.317,0.048-0.64,0.059-0.99,0.12
			c-0.35,0.058-0.729,0.112-1.162,0.161c-0.861,0.127-1.928,0.302-3.364,0.626c-0.548,0.154-1.099,0.31-1.652,0.466
			c-0.536,0.205-1.079,0.359-1.626,0.581c-1.098,0.449-2.201,0.936-3.271,1.531c-2.149,1.166-4.224,2.624-6.15,4.309
			c-3.87,3.364-7.051,7.653-9.389,11.965c-2.36,4.333-3.848,8.648-4.657,12.344c-0.837,3.702-1.005,6.833-1.407,8.913
			c-1.646-1.28-3.655-4.276-4.682-8.763c-1.053-4.46-1.031-10.261,0.548-16.327c1.564-6.067,4.674-12.521,9.592-18
			c4.884-5.479,11.57-9.923,19.062-11.755c2.372-0.552,4.13-0.773,5.542-0.876c0.707-0.035,1.328-0.055,1.898-0.065
			c0.57-0.012,1.094,0.041,1.604,0.069c0.51,0.041,1.009,0.066,1.533,0.138c0.522,0.08,1.071,0.164,1.685,0.259
			c0.612,0.08,1.283,0.238,2.053,0.403c0.383,0.084,0.792,0.174,1.23,0.27C142.727,35.541,143.19,35.669,143.687,35.807z"/>
		<path style="fill:#FF8300;" d="M67.428,65.622c3.657-2.913,6.646-4.942,8.655-6.618c0.99-0.888,1.765-1.58,2.233-2.3
			c0.472-0.704,0.659-1.356,0.527-1.922c-0.132-0.566-0.583-1.046-1.387-1.405c-0.798-0.343-1.976-0.645-3.466-0.606
			c-2.993-0.024-7.463,0.917-12.587,3.925c-0.416,0.243-0.803,0.468-1.166,0.68c-0.356,0.222-0.678,0.442-0.987,0.642
			c-0.617,0.403-1.153,0.752-1.638,1.069c-0.945,0.667-1.676,1.218-2.44,1.795c-0.753,0.588-1.477,1.271-2.445,2.17
			c-0.482,0.451-0.969,1.013-1.555,1.641c-0.288,0.319-0.595,0.66-0.925,1.025c-0.307,0.386-0.636,0.798-0.988,1.24
			c-2.173,2.763-4.139,5.815-5.642,9.13c-1.522,3.3-2.657,6.819-3.338,10.361c-0.144,0.888-0.288,1.773-0.431,2.655
			c-0.081,0.886-0.161,1.769-0.241,2.648c-0.047,0.438-0.06,0.876-0.065,1.314c-0.008,0.437-0.016,0.872-0.024,1.306
			c-0.003,0.434-0.02,0.865-0.009,1.295c0.021,0.429,0.043,0.857,0.064,1.284c0.051,1.705,0.292,3.369,0.507,4.99
			c0.309,1.612,0.593,3.185,1.04,4.683c0.371,1.512,0.928,2.933,1.407,4.312c0.29,0.673,0.575,1.335,0.855,1.987
			c0.144,0.323,0.28,0.645,0.428,0.958c0.16,0.308,0.319,0.614,0.477,0.917c0.319,0.598,0.632,1.186,0.939,1.762
			c0.347,0.552,0.687,1.092,1.019,1.621c0.64,1.061,1.396,1.99,2.067,2.874c2.787,3.498,5.617,5.499,7.452,6.314
			c-0.514-2.001-1.901-4.904-3.158-8.714c-0.292-0.964-0.663-1.935-0.923-3.004c-0.147-0.523-0.297-1.058-0.45-1.604
			c-0.123-0.552-0.25-1.116-0.378-1.69c-0.066-0.284-0.133-0.57-0.2-0.859c-0.051-0.293-0.103-0.588-0.155-0.886
			c-0.105-0.591-0.213-1.191-0.321-1.801c-0.13-1.237-0.351-2.478-0.406-3.773c-0.131-1.282-0.119-2.602-0.159-3.928
			c0.054-1.333,0.055-2.678,0.213-4.03c0.028-0.338,0.057-0.676,0.086-1.016c0.037-0.339,0.099-0.675,0.146-1.014l0.147-1.016
			c0.043-0.34,0.093-0.679,0.173-1.013c0.137-0.67,0.274-1.344,0.412-2.02c0.178-0.662,0.357-1.327,0.536-1.993
			c0.777-2.637,1.813-5.19,3.081-7.626c1.249-2.445,2.808-4.715,4.463-6.822c0.266-0.34,0.514-0.656,0.746-0.952
			c0.249-0.283,0.482-0.546,0.699-0.792c0.44-0.488,0.789-0.939,1.141-1.303c0.708-0.723,1.198-1.317,1.706-1.853
			c0.511-0.537,1.001-1.054,1.624-1.708c0.332-0.309,0.699-0.65,1.121-1.042c0.214-0.194,0.436-0.41,0.687-0.626
			C66.855,66.077,67.131,65.857,67.428,65.622z"/>
	</g>
	<g>
		<path style="fill:#FF8300;" d="M398.975,404.23c0,19.53-66.7,35.36-148.98,35.36c-44.03,0-83.6-4.53-110.87-11.75
			c-23.69-6.25-38.1-14.53-38.1-23.61c0-6.96,66.7-12.6,148.97-12.6c31.06,0,59.89,0.8,83.75,2.18
			C373.125,396.08,398.975,399.9,398.975,404.23z"/>
		<path style="opacity:0.38;fill:#6B2315;" d="M398.975,404.23c0,19.53-66.7,35.36-148.98,35.36c-44.03,0-83.6-4.53-110.87-11.75
			c26.38,2.57,67.1,6.02,85.06,4.9c27.67-1.72,42.99-11.11,17.98-21.98c0,0,49.19-9.44,91.58-16.95
			C373.125,396.08,398.975,399.9,398.975,404.23z"/>
		<path style="fill:#7F3300;" d="M398.975,404.229c0,3.32-15.16,6.34-39.93,8.58c-0.45,0.04-0.9,0.08-1.35,0.12
			c-15.52,1.37-34.68,2.46-56.17,3.13c-0.41,0.01-0.82,0.02-1.23,0.04c-13.33,0.41-27.54,0.65-42.33,0.72h-0.38
			c-2.52,0-5.04,0.01-7.59,0.01h-0.54c-12.66-0.01-24.94-0.14-36.67-0.4c-4.92-0.11-9.74-0.23-14.45-0.38
			c-3.84-0.12-7.61-0.26-11.3-0.4c-24.21-0.95-44.87-2.44-59.87-4.29c-0.61-0.08-1.2-0.15-1.79-0.23
			c-15.39-1.98-24.35-4.35-24.35-6.9c0-2.82,10.91-5.41,29.35-7.51c0.39-0.04,0.78-0.09,1.18-0.13c11.06-1.22,24.72-2.27,40.29-3.08
			c8.18-0.43,16.89-0.8,26.02-1.08c2.26-0.07,4.54-0.14,6.85-0.2c1.6-0.05,3.2-0.09,4.82-0.13c10.46-0.25,21.39-0.41,32.65-0.46
			c2.58,0,5.19-0.01,7.81-0.01c4.69,0,9.32,0.02,13.9,0.05c0.29,0,0.58,0,0.87,0.01c8.06,0.07,15.92,0.19,23.55,0.36
			c0.36,0,0.72,0.01,1.08,0.02c21.89,0.51,41.79,1.43,58.42,2.65c0.45,0.03,0.9,0.07,1.35,0.1
			C379.725,397.129,398.975,400.489,398.975,404.229z"/>
		<path style="fill:#6C0086;" d="M212.785,416.429c-4.92-0.11-9.74-0.23-14.45-0.38c-29.08-0.91-53.88-2.56-71.17-4.69
			c0.45-1.57,1.04-3.66,1.75-6.12c0.52-1.8,1.11-3.79,1.78-5.93c0.27-0.88,0.56-1.79,0.86-2.72c5.27-16.4,14.48-39.1,28.5-45.69
			c2.54-1.2,5.24-1.86,8.11-1.86c14.41,0,25.05,16.24,32.53,33.25c1.46,3.32,2.8,6.68,4.02,9.94c1.2,3.2,2.29,6.32,3.27,9.25
			C210.035,407.639,211.625,412.959,212.785,416.429z"/>
		<path style="opacity:0.6;fill:#32004C;" d="M212.785,416.429c-4.92-0.11-9.74-0.23-14.45-0.38c-29.08-0.91-53.88-2.56-71.17-4.69
			c0.45-1.57,1.04-3.66,1.75-6.12c0.52-1.8,1.11-3.79,1.78-5.93c2.91,1.43,6.31,3.26,10.28,4.92c12.97,5.43,35.97-0.1,31.89-7.31
			c-0.69-1.2-0.98-2.33-1.02-3.41c-0.17-5.4,6.39-9.67,6.6-16.98c0.2-6.86-8.67-20.79-18.39-25.63c2.54-1.2,5.24-1.86,8.11-1.86
			c14.41,0,25.05,16.24,32.53,33.25c1.46,3.32,2.8,6.68,4.02,9.94c1.2,3.2,2.29,6.32,3.27,9.25
			C210.035,407.639,211.625,412.959,212.785,416.429z"/>
		<path style="fill:#FFBE00;" d="M357.695,412.929c-15.52,1.37-34.68,2.46-56.17,3.13c-0.41,0.01-0.82,0.02-1.23,0.04
			c-13.33,0.41-27.54,0.65-42.33,0.72c0.74-5.8,2.41-15.21,5.93-23.26c0.28-0.64,0.57-1.26,0.87-1.87c1.07-2.19,2.29-4.24,3.69-6.04
			c0,0,2.64-4.45,7.12-9.65c0.26-0.31,0.53-0.62,0.81-0.93c4.68-5.28,11.16-11.11,18.62-13.79c2.63-0.95,5.39-1.5,8.24-1.5
			c14.29,0,31.07,13.73,44.57,34.94c0.45,0.71,0.9,1.43,1.35,2.16C352.215,401.869,355.075,407.239,357.695,412.929z"/>
		<path style="opacity:0.38;fill:#6B2315;" d="M357.695,412.929c-15.52,1.37-34.68,2.46-56.17,3.13c-0.41,0.01-0.82,0.02-1.23,0.04
			c-13.33,0.41-27.54,0.65-42.33,0.72c0.74-5.8,2.41-15.21,5.93-23.26c0.28-0.64,0.57-1.26,0.87-1.87c1.07-2.19,2.29-4.24,3.69-6.04
			c0,0,2.64-4.45,7.12-9.65c4.25,2.51,9.33,6.44,13.34,12.3c8.47,12.4,11.38,19.31,11.38,19.31s3.68,1.23,8.33,1.54
			c4.64,0.32,14.17-1.54,14.17-1.54s1.25-9.12-5.65-26.64c-4.82-12.23-13.01-18.27-22.14-19.69c2.63-0.95,5.39-1.5,8.24-1.5
			c14.29,0,31.07,13.73,44.57,34.94c0.45,0.71,0.9,1.43,1.35,2.16C352.215,401.869,355.075,407.239,357.695,412.929z"/>
		<path style="fill:#F3000D;" d="M300.295,416.099c-13.44,0.41-27.78,0.65-42.71,0.72c-2.52,0-5.04,0.01-7.59,0.01h-0.54
			c-12.66-0.01-24.94-0.14-36.67-0.4c-4.92-0.11-9.74-0.23-14.45-0.38c-3.84-0.12-7.61-0.26-11.3-0.4
			c1.48-3.73,3.22-7.84,5.21-12.11c1.4-3.03,2.95-6.15,4.61-9.26c0.33-0.62,0.66-1.23,1.01-1.85c6.52-11.92,14.87-23.69,24.93-31.01
			c3.26-2.38,6.71-4.29,10.33-5.59c3.42-1.22,6.98-1.89,10.71-1.89c11.34,0,21.7,7.54,30.63,18.02c5.11,6.01,9.77,13,13.85,20.09
			c0.43,0.73,0.84,1.46,1.25,2.19C293.835,401.869,297.445,409.519,300.295,416.099z"/>
		<path style="opacity:0.66;fill:#A613AA;" d="M162.198,358.024c-7.875-0.596-11.292,0.314-16.624,13.487
			c-5.332,13.174-10.664,21.956-8.155,26.034c2.509,4.078,9.41,6.273,14.742,4.705c5.332-1.568,10.351-24.749,11.919-32.763
			C165.649,361.474,165.354,358.263,162.198,358.024z"/>
		<path style="opacity:0.53;fill:#5B1D16;" d="M300.295,416.099c-13.44,0.41-27.78,0.65-42.71,0.72c-2.52,0-5.04,0.01-7.59,0.01
			h-0.54c-12.66-0.01-24.94-0.14-36.67-0.4c-4.92-0.11-9.74-0.23-14.45-0.38c-3.84-0.12-7.61-0.26-11.3-0.4
			c1.48-3.73,3.22-7.84,5.21-12.11c2.2,1.68,5.23,3.85,9.35,6.55c11.48,7.53,49.37-1.88,48.41-16.31
			c-0.84-12.44-7.44-30.94-16.88-37.95c3.42-1.22,6.98-1.89,10.71-1.89c11.34,0,21.7,7.54,30.63,18.02
			c5.11,6.01,9.77,13,13.85,20.09c0.43,0.73,0.84,1.46,1.25,2.19C293.835,401.869,297.445,409.519,300.295,416.099z"/>
		<path style="opacity:0.66;fill:#FFF4F3;" d="M225.636,367.198c-6.979,4.941-21.721,22.82-22.662,30.348
			c-0.941,7.528,2.683,10.351,9.81,10.037c7.127-0.314,14.028-6.986,16.537-17.608c2.509-10.622,1.255-24.423,0-25.364
			C228.068,363.67,225.636,367.198,225.636,367.198z"/>
		<path style="opacity:0.57;fill:#FFE7CA;" d="M292.682,367.198c-6.3,5.596-7.842,7.953-4.705,11.466
			c3.137,3.513,13.174,14.177,14.115,19.196c0.941,5.019,7.214,7.979,9.096,2.578c1.882-5.401-8.155-30.949-8.155-30.949
			S296.626,363.695,292.682,367.198z"/>
	</g>
	<text transform="matrix(1 0 0 1 209.3979 169.1299)" style="fill:#009AD3; font-family:'BebasNeueRegular'; font-size:41.1778px;">HAPPY</text>
	
		<text transform="matrix(1 0 0 1 156.9389 246.9649)" style="fill:#44275B; font-family:'KaushanScript-Regular'; font-size:100.7778px;">Holi</text>
</g>
<g id="DESIGNED_BY_FREEPIK">
	<g id="XMLID_74_">
		<g id="XMLID_880_">
			<g id="XMLID_921_">
				<path id="XMLID_929_" style="fill:#1D262D;" d="M260.104,476.875c-0.432,0.443-0.803,0.931-1.108,1.453l-0.465-0.241
					c-0.067-0.298-0.349-0.503-0.659-0.466c-0.331,0.038-0.567,0.339-0.529,0.669c0.039,0.331,0.339,0.568,0.67,0.529
					c0.065-0.008,0.126-0.026,0.183-0.052l0.452,0.233c-0.251,0.554-0.433,1.139-0.539,1.744l0.746,0.132
					c0.23-1.307,0.85-2.507,1.792-3.473L260.104,476.875z"/>
				<path id="XMLID_928_" style="fill:#1D262D;" d="M265.592,474.573c-0.171,0-0.341,0.006-0.51,0.017l-0.074-0.626
					c0.188-0.149,0.296-0.39,0.266-0.645c-0.046-0.393-0.402-0.675-0.795-0.628c-0.393,0.046-0.674,0.402-0.628,0.795
					c0.03,0.254,0.189,0.461,0.404,0.564l0.074,0.625c-0.714,0.115-1.403,0.331-2.06,0.646l0.327,0.684
					c0.934-0.446,1.942-0.673,2.996-0.673c0.497,0,0.993,0.053,1.475,0.157l0.161-0.74
					C266.692,474.632,266.142,474.573,265.592,474.573z"/>
				<path id="XMLID_927_" style="fill:#1D262D;" d="M272.194,477.12c0.331-0.041,0.566-0.342,0.525-0.673
					c-0.04-0.33-0.341-0.565-0.672-0.525c-0.31,0.038-0.535,0.304-0.53,0.609l-0.416,0.362c-0.418-0.43-0.89-0.813-1.408-1.139
					l-0.404,0.642c1.134,0.714,2.02,1.726,2.563,2.925l0.69-0.313c-0.25-0.554-0.567-1.072-0.942-1.545l0.402-0.351
					C272.065,477.125,272.129,477.128,272.194,477.12z"/>
				<path id="XMLID_926_" style="fill:#1D262D;" d="M265.044,484.781c-0.386,0.023-0.775,0.034-1.157,0.034
					c-0.88,0-1.733-0.06-2.479-0.179c-0.391-0.061-0.846-0.155-1.27-0.292c1.046,1.861,3.07,3.125,5.389,3.125
					c2.855,0,5.262-1.916,5.95-4.504c-0.682,0.449-1.505,0.825-2.459,1.123C267.838,484.456,266.463,484.696,265.044,484.781z"/>
				<path id="XMLID_922_" style="fill:#1D262D;" d="M265.592,476.089c-3.353,0-6.08,2.666-6.08,5.943
					c0,0.426,0.046,0.85,0.137,1.262c0.673,0.482,2.706,0.89,5.347,0.73c2.879-0.173,5.297-0.957,6.672-2.158
					c-0.005-0.195-0.021-0.39-0.045-0.582C271.244,478.322,268.65,476.089,265.592,476.089z M263.433,482.603
					c-1.02,0-1.85-0.829-1.85-1.85c0-1.02,0.83-1.85,1.85-1.85c1.02,0,1.85,0.83,1.85,1.85
					C265.282,481.774,264.452,482.603,263.433,482.603z M268.17,481.695c-0.75,0-1.36-0.61-1.36-1.36s0.61-1.36,1.36-1.36
					s1.36,0.61,1.36,1.36S268.92,481.695,268.17,481.695z"/>
			</g>
			<path id="XMLID_919_" style="fill:#1D262D;" d="M281.595,477.956c-0.295-0.116-0.806-0.309-1.382-0.237
				c-0.551,0.068-0.844,0.341-0.844,1.007v0.865h2.228v1.718h-2.228v5.455h-1.932v-5.455h-1.34v-1.718h1.34v-0.888
				c0-1.68,0.896-2.783,2.568-2.783c0.642,0,1.157,0.122,1.59,0.309L281.595,477.956z"/>
			<path id="XMLID_917_" style="fill:#1D262D;" d="M286.298,481.288c-0.177-0.03-0.358-0.046-0.526-0.046
				c-0.896,0-1.51,0.548-1.51,1.613v3.908h-1.932v-7.173h1.872v0.785c0.451-0.674,1.14-0.978,2.021-0.978
				c0.415,0,0.848,0.128,1.094,0.337L286.298,481.288z"/>
			<path id="XMLID_914_" style="fill:#1D262D;" d="M293.965,483.166c0,0.223-0.015,0.488-0.037,0.651h-5.085
				c0.207,1.036,0.933,1.487,1.843,1.487c0.622,0,1.295-0.251,1.814-0.688l1.132,1.243c-0.814,0.747-1.85,1.088-3.057,1.088
				c-2.198,0-3.723-1.495-3.723-3.752c0-2.258,1.48-3.798,3.626-3.798C292.544,479.398,293.957,480.931,293.965,483.166z
				 M288.851,482.5h3.175c-0.178-0.918-0.733-1.435-1.562-1.435C289.554,481.065,289.021,481.612,288.851,482.5z"/>
			<path id="XMLID_892_" style="fill:#1D262D;" d="M301.618,483.166c0,0.223-0.015,0.488-0.037,0.651h-5.085
				c0.207,1.036,0.933,1.487,1.843,1.487c0.622,0,1.295-0.251,1.813-0.688l1.132,1.243c-0.814,0.747-1.85,1.088-3.057,1.088
				c-2.198,0-3.723-1.495-3.723-3.752c0-2.258,1.48-3.798,3.627-3.798C300.197,479.398,301.611,480.931,301.618,483.166z
				 M296.504,482.5h3.175c-0.178-0.918-0.733-1.435-1.561-1.435C297.207,481.065,296.674,481.612,296.504,482.5z"/>
			<path id="XMLID_889_" style="fill:#1D262D;" d="M309.964,483.174c0,2.153-1.495,3.774-3.471,3.774
				c-0.962,0-1.643-0.377-2.109-0.933v3.708h-1.924v-10.133h1.887v0.792c0.466-0.584,1.155-0.984,2.139-0.984
				C308.469,479.398,309.964,481.02,309.964,483.174z M304.287,483.174c0,1.132,0.748,1.976,1.843,1.976
				c1.14,0,1.851-0.881,1.851-1.976c0-1.096-0.711-1.977-1.851-1.977C305.035,481.197,304.287,482.041,304.287,483.174z"/>
			<path id="XMLID_886_" style="fill:#1D262D;" d="M313.067,477.245c0,0.695-0.54,1.229-1.236,1.229s-1.229-0.533-1.229-1.229
				c0-0.695,0.533-1.243,1.229-1.243S313.067,476.55,313.067,477.245z M312.809,486.764h-1.932v-7.173h1.932V486.764z"/>
			<path id="XMLID_883_" style="fill:#1D262D;" d="M316.032,482.145l2.701-2.554h2.369l-3.479,3.376l3.501,3.797h-2.376
				l-2.716-2.901v2.901h-1.932v-10.658h1.932V482.145z"/>
		</g>
		<g id="XMLID_77_">
			<path id="XMLID_877_" style="fill:#1D262D;" d="M184.413,486.698v-1.055c-0.527,0.718-1.392,1.23-2.388,1.23
				c-1.846,0-3.149-1.406-3.149-3.706c0-2.256,1.289-3.721,3.149-3.721c0.952,0,1.816,0.469,2.388,1.245v-3.765h1.099v9.771H184.413
				z M184.413,484.779v-3.208c-0.395-0.615-1.245-1.143-2.124-1.143c-1.421,0-2.271,1.172-2.271,2.739s0.85,2.725,2.271,2.725
				C183.167,485.893,184.017,485.395,184.413,484.779z"/>
			<path id="XMLID_862_" style="fill:#1D262D;" d="M186.932,483.153c0-2.05,1.464-3.706,3.486-3.706c2.139,0,3.398,1.67,3.398,3.794
				v0.278h-5.728c0.088,1.333,1.025,2.446,2.549,2.446c0.806,0,1.626-0.322,2.183-0.893l0.527,0.718
				c-0.703,0.703-1.655,1.084-2.813,1.084C188.44,486.874,186.932,485.365,186.932,483.153z M190.403,480.356
				c-1.509,0-2.256,1.273-2.314,2.357h4.644C192.718,481.659,192.015,480.356,190.403,480.356z"/>
			<path id="XMLID_860_" style="fill:#1D262D;" d="M194.607,485.761l0.571-0.791c0.469,0.542,1.362,1.011,2.329,1.011
				c1.084,0,1.67-0.513,1.67-1.216c0-1.713-4.38-0.659-4.38-3.281c0-1.099,0.952-2.036,2.637-2.036c1.201,0,2.051,0.454,2.622,1.026
				l-0.513,0.762c-0.424-0.514-1.201-0.895-2.109-0.895c-0.967,0-1.567,0.483-1.567,1.113c0,1.553,4.379,0.527,4.379,3.281
				c0,1.186-0.952,2.139-2.783,2.139C196.306,486.874,195.325,486.522,194.607,485.761z"/>
			<path id="XMLID_855_" style="fill:#1D262D;" d="M201.477,477.881c0-0.41,0.337-0.747,0.732-0.747c0.41,0,0.747,0.337,0.747,0.747
				c0,0.41-0.337,0.731-0.747,0.731C201.814,478.612,201.477,478.291,201.477,477.881z M201.667,486.698v-7.075h1.099v7.075H201.667
				z"/>
			<path id="XMLID_851_" style="fill:#1D262D;" d="M204.582,488.515l0.557-0.82c0.586,0.703,1.289,0.967,2.3,0.967
				c1.172,0,2.27-0.571,2.27-2.124v-1.011c-0.512,0.718-1.376,1.26-2.373,1.26c-1.845,0-3.149-1.377-3.149-3.662
				c0-2.271,1.289-3.677,3.149-3.677c0.952,0,1.802,0.469,2.373,1.245v-1.069h1.099v6.87c0,2.344-1.641,3.076-3.369,3.076
				C206.237,489.569,205.417,489.335,204.582,488.515z M209.708,484.662v-3.091c-0.381-0.615-1.23-1.143-2.109-1.143
				c-1.421,0-2.27,1.128-2.27,2.695c0,1.553,0.849,2.695,2.27,2.695C208.478,485.819,209.328,485.277,209.708,484.662z"/>
			<path id="XMLID_849_" style="fill:#1D262D;" d="M217.413,486.698v-4.629c0-1.245-0.629-1.641-1.582-1.641
				c-0.865,0-1.685,0.527-2.095,1.1v5.17h-1.099v-7.075h1.099v1.025c0.498-0.585,1.464-1.201,2.519-1.201
				c1.479,0,2.256,0.747,2.256,2.285v4.966H217.413z"/>
			<path id="XMLID_842_" style="fill:#1D262D;" d="M219.933,483.153c0-2.05,1.465-3.706,3.486-3.706c2.138,0,3.398,1.67,3.398,3.794
				v0.278h-5.728c0.088,1.333,1.025,2.446,2.549,2.446c0.805,0,1.625-0.322,2.183-0.893l0.527,0.718
				c-0.703,0.703-1.655,1.084-2.812,1.084C221.441,486.874,219.933,485.365,219.933,483.153z M223.404,480.356
				c-1.509,0-2.256,1.273-2.314,2.357h4.643C225.718,481.659,225.015,480.356,223.404,480.356z"/>
			<path id="XMLID_140_" style="fill:#1D262D;" d="M233.35,486.698v-1.055c-0.527,0.718-1.392,1.23-2.388,1.23
				c-1.845,0-3.149-1.406-3.149-3.706c0-2.256,1.289-3.721,3.149-3.721c0.952,0,1.817,0.469,2.388,1.245v-3.765h1.098v9.771H233.35z
				 M233.35,484.779v-3.208c-0.396-0.615-1.245-1.143-2.124-1.143c-1.421,0-2.271,1.172-2.271,2.739s0.85,2.725,2.271,2.725
				C232.105,485.893,232.954,485.395,233.35,484.779z"/>
			<path id="XMLID_112_" style="fill:#1D262D;" d="M239.692,486.698v-9.771h1.099v3.765c0.572-0.776,1.421-1.245,2.388-1.245
				c1.846,0,3.149,1.465,3.149,3.721c0,2.3-1.304,3.706-3.149,3.706c-0.996,0-1.86-0.513-2.388-1.23v1.055H239.692z M242.9,485.893
				c1.436,0,2.285-1.157,2.285-2.725s-0.85-2.739-2.285-2.739c-0.864,0-1.729,0.527-2.109,1.143v3.208
				C241.171,485.395,242.036,485.893,242.9,485.893z"/>
			<path id="XMLID_105_" style="fill:#1D262D;" d="M247.528,488.471c0.161,0.073,0.425,0.117,0.601,0.117
				c0.483,0,0.805-0.161,1.055-0.747l0.469-1.069l-2.959-7.149h1.187l2.358,5.801l2.344-5.801h1.201l-3.545,8.511
				c-0.425,1.025-1.143,1.421-2.08,1.436c-0.234,0-0.601-0.044-0.805-0.103L247.528,488.471z"/>
		</g>
	</g>
</g>
</svg>
