<svg width="346" height="350" viewBox="0 0 346 350" fill="none" xmlns="http://www.w3.org/2000/svg">
<path fill-rule="evenodd" clip-rule="evenodd" d="M312.749 193.546C312.749 202.045 333.265 214.731 335.047 197.813C335.774 190.916 325.772 184.412 321.765 184.412C316.938 184.412 312.749 188.12 312.749 193.546Z" fill="#02734A"/>
<path fill-rule="evenodd" clip-rule="evenodd" d="M279.409 308.171C281.812 308.171 280.474 298.523 280.178 297.593C279.675 296.027 280.474 296.859 279.409 296.35C279.875 294.692 279.573 296.298 279.793 295.771C279.81 295.732 280.005 295.492 279.874 294.757C279.211 291.004 280.253 289.06 277.895 288.828C278.869 291.232 278.106 296.02 278.056 299.688C278.042 300.658 278.368 301.067 278.386 301.762C278.417 302.982 278.009 302.582 277.906 304.253C277.874 304.76 277.924 305.017 277.947 305.465L278.03 306.681C278.215 307.638 278.484 308.171 279.409 308.171Z" fill="#02734A"/>
<path opacity="0.96" fill-rule="evenodd" clip-rule="evenodd" d="M178.079 189.535C174.937 189.535 175.984 187.129 172.903 191.064C170.763 193.791 170.183 191.323 167.156 190.491C167.546 192.453 167.425 194.159 166.191 195.557C164.57 197.399 167.274 194.109 165.753 195.995C162.854 199.59 165.513 199.09 159.071 199.09C158.758 200.486 157.899 201.763 157.26 203.157C155.938 206.03 157.268 210.11 154.214 211.983C152.952 212.76 150.982 212.322 150.982 214.373C150.982 217.102 152.6 217.113 152.6 219.151C152.6 222.482 151.507 222.37 151.094 224.536C150.755 226.338 151.145 226.07 150.579 227.76C150.28 228.67 149.839 229.068 149.658 230.344C149.489 231.555 149.706 235.101 149.754 237.32C149.815 240.083 150.578 241.569 150.578 243.989C150.578 245.092 149.601 246.273 149.631 248.201C149.673 250.9 150.088 250.483 149.273 252.953C148.259 256.036 146.659 257.969 148.167 261.159C149.237 263.425 148.709 264.062 149.867 265.342L150.521 266.009C151.321 267.106 152.228 271.021 152.422 272.386C152.654 274.039 148.622 281.571 155.026 282.205C156.339 280.73 159.801 273.03 161.567 282.115C161.686 282.73 158.377 293.732 164.327 298.445C166.891 297.737 167.402 294.868 169.988 295.999C171.046 296.461 171.984 297.083 172.572 298.258C174.399 301.923 174.221 305.821 176.223 309.231C176.95 310.474 177.515 310.827 178.143 312.214C180.161 316.662 183.037 320.182 185.08 324.56C185.87 326.245 186.213 326.11 186.823 327.759L189.801 339.524C189.913 340.997 189.801 343.224 189.801 344.778C190.84 344.125 191.861 344.148 192.368 343.01C193.039 341.501 191.819 340.528 191.819 339.046C191.819 336.118 193.672 332.39 193.843 329.971C198.008 329.971 197.909 331.564 201.236 332.226C202.838 332.546 202.83 331.885 203.852 332.954C205.037 334.201 205.973 342.368 205.973 345.255L206.609 345.204C206.64 345.209 206.759 345.227 206.79 345.231C207.512 345.291 206.989 346.998 207.916 344.725C209.343 341.231 207.76 331.403 212.039 331.403C214.896 331.403 215.362 334.27 217.698 334.27C219.247 334.27 220.035 330.926 223.361 330.926C224.887 330.926 225.87 336.696 227.237 340.201C227.722 341.45 227.801 341.191 228.091 342.535C230.364 353.015 234.699 349.028 234.12 344.858L232.63 340.039C231.84 336.178 229.524 333.754 231.01 330.434C232.811 326.408 234.947 326.765 236.497 323.518C238.099 320.166 239.554 318.506 243.982 318.506C245.094 318.506 253.782 319.409 252.158 313.198L250.104 306.971C247.571 301.546 250.551 301.762 248.31 295.724C247.511 293.572 247.643 291.184 246.922 288.759C246.187 286.266 245.163 284.473 247.361 282.377C249.882 279.977 253.192 279.753 253.284 275.04C251.638 274.518 253.187 274.779 251.854 274.341C249.389 273.526 248.692 274.345 246.408 272.211C245.893 271.731 245.619 271.422 245.009 270.954C241.015 267.877 241.961 265.114 241.961 259.754C241.961 256.939 243.177 255.846 243.177 253.544C243.177 251.392 241.566 252.088 242.911 249.463C243.615 248.086 244.251 246.87 244.388 244.948C241.574 242.723 236.714 241.677 236.817 236.883C236.877 234.147 237.876 234.494 238.32 232.523C241.037 232.523 241.787 233.619 244.144 234.245C245.486 234.6 245.983 234.357 247.339 234.805C249.822 235.629 247.991 235.155 250.452 234.913V233.957C248.701 233.477 247.448 232.966 245.636 232.482C244.411 232.158 241.585 231.427 240.834 230.487C239.585 228.921 240.042 226.739 241.202 225.426C242.397 224.072 241.878 224.881 243.477 224.286C245.361 223.591 244.323 224.44 245.194 222.493C243.714 219.881 242.97 221.878 242.032 218.111L240.461 211.366C240.029 208.238 239.644 208.163 237.52 206.242C230.805 200.163 231.157 206.54 225.999 201.702C223.548 199.401 223.247 195.11 214.954 193.737L209.511 192.646C205.563 192.37 207.762 193.822 202.5 191.252C200.732 190.391 200.682 189.977 199.242 188.887C196.914 187.124 192.293 187.147 190.609 187.147C188.853 187.147 185.197 186.226 184.54 184.039L183.741 183.761C183.678 186.803 180.599 189.535 178.079 189.535Z" fill="#8CA724"/>
<path fill-rule="evenodd" clip-rule="evenodd" d="M317.821 69.2556C318.631 75.3154 316.087 73.6539 316.961 76.2726L313.713 78.8357C313.11 74.3098 314.951 71.5114 317.821 69.2556ZM173.197 223.704C169.842 222.057 169.926 222.46 172.261 219.174C173.739 221.5 173.101 220.128 173.197 223.704ZM217.304 294.998C237.626 290.173 227.928 293.372 244.566 297.503C248.61 298.51 252.831 301.545 256.969 300.352C259.844 299.523 263.393 297.082 262.501 292.759C261.336 287.107 258.082 286.087 257.058 281.128C253.657 264.651 271.85 261.934 281.17 266.04C283.882 267.234 284.898 268.772 286.967 266.976C288.998 265.215 291.299 254.964 279.776 252.797L271.068 250.697C269.608 243.618 268.074 236.516 270.777 231.201C282.278 208.6 278.243 210.404 290.458 206.779C299.3 204.15 299.782 198.21 297.68 189.879C296.77 186.272 296.907 185.176 293.648 181.411C290.532 177.814 288.367 176.628 286.985 170.522C291.363 167.908 289.928 166.981 295.749 164.29C306.669 159.244 313.87 156.539 319.141 144.464C318.689 143.976 315.847 140.448 315.599 140.242C310.819 136.243 304.441 142.428 297.346 139.259C291.68 136.728 289.9 130.562 288.406 123.325C286.29 113.071 285.849 107.617 291.187 98.3198L294.77 91.2543C298.425 85.2618 310.555 81.9436 315.071 80.4972C320.669 78.7033 325.182 75.43 323.568 67.6047C321.743 58.7596 306.721 66.4431 302.099 74.3428C299.66 78.5119 297.289 78.0782 293.024 80.353C286.261 83.9584 283.37 86.3833 275.184 88.7408C269.014 90.5181 253.483 69.0996 249.729 63.6779L257.936 50.295C261.578 45.769 265.032 39.409 266.842 33.5525C265.381 31.4455 265.925 32.7336 264.95 29.3007C260.284 33.6884 260.566 26.2471 252.48 40.5837C252.1 41.2632 250.704 43.4245 250.327 43.857C235.204 61.2081 236.687 51.4034 224.196 49.8743C204.429 47.4541 212.931 42.0856 211.295 31.7409C210.671 27.7975 211.764 27.1606 210.725 22.1253C209.958 18.4041 207.753 18.0023 205.259 15.2986C198.185 19.5315 199.786 23.2822 198.519 31.6676C198.03 34.8902 198.237 38.1931 196.567 40.8732C191.641 48.7812 187.779 45.8837 182.289 44.1335C176.445 42.2723 166.393 44.2163 164.254 35.6276C161.535 24.7038 168.123 10.0565 158.759 8.98349C156.385 8.70933 157.8 8.83105 155.334 9.28601C151.747 20.8869 153.269 18.2339 154.776 29.2274C156.036 38.3975 154.662 45.32 146.236 46.1885C140.778 46.7534 140.632 46.2949 138.203 41.0327C135.781 35.7883 135.397 36.8684 131.248 35.5224C125.332 33.6021 123.178 24.1602 116.782 23.996C115.42 30.3654 116.222 28.0741 116.89 35.6453C117.404 41.4203 116.367 46.5679 115.767 52.1964C115.303 56.5474 115.74 66.2871 112.514 67.2171C107.742 68.5926 106.14 70.1182 102.951 65.0806C102.607 64.5358 101.419 62.3733 101.328 62.1629C100.254 59.7357 101.12 62.1275 100.598 59.998C99.5336 55.6635 98.7406 49.5871 93.9466 50.9686C88.6106 52.506 88.9616 60.3703 87.9176 65.9196C84.5206 83.9584 88.5986 89.327 83.7646 97.6403C81.1496 102.149 77.0966 104.833 77.8866 110.786C73.6676 112.451 76.4226 110.957 74.1976 113.918C69.8116 119.75 67.8616 121.546 67.0416 129.988C66.1086 139.551 68.9146 144.552 68.5476 155.177C68.2256 164.668 64.8696 160.161 65.8336 177.34C66.0656 181.491 65.9126 185.345 65.5706 188.724C64.9476 194.867 64.8936 206.788 66.0206 212.389C66.7866 216.22 69.1636 220.873 69.5586 223.516C70.2886 228.391 67.8286 229.183 68.9346 234.544C69.6226 237.882 77.8616 248.318 78.8856 253.275C79.7726 257.576 77.1026 257.303 77.8766 263.163L82.0906 264.491C85.1136 265.742 83.1416 263.887 85.4836 267.416C92.2446 277.604 92.0256 271.484 94.8316 277.177C96.3336 280.218 95.3946 282.058 99.0696 282.133C101.045 282.172 100.788 281.59 103.358 281.811C107.636 282.18 107.916 284.038 110.268 287.434C112.385 290.484 113.709 292.786 117.483 292.442C128.059 291.488 125.404 289.945 135.081 294.705C145.993 300.076 158.602 296.162 168.577 300.949C177.678 305.32 185.742 308.925 194.598 299.85C197.258 297.123 197.4 295.919 202.023 294.585C206.129 293.402 205.208 294.092 207.621 294.809L209.71 295.504C211.505 295.856 215.271 295.48 217.304 294.998Z" fill="#0B8701"/>
<path fill-rule="evenodd" clip-rule="evenodd" d="M289.987 112.62C290.28 114.834 289.353 114.227 289.67 115.184L288.484 116.121C288.261 114.468 288.938 113.445 289.987 112.62ZM237.111 169.087C235.884 168.484 235.915 168.632 236.77 167.431C237.308 168.281 237.077 167.78 237.111 169.087ZM253.235 195.153C260.667 193.389 257.12 194.558 263.205 196.068C264.684 196.437 266.224 197.547 267.739 197.11C268.788 196.806 270.087 195.913 269.762 194.335C269.335 192.266 268.145 191.894 267.772 190.08C266.528 184.055 273.179 183.062 276.587 184.565C277.576 185.002 277.949 185.564 278.705 184.905C279.447 184.263 280.286 180.514 276.075 179.722L272.892 178.955C272.358 176.367 271.796 173.77 272.785 171.826C276.991 163.565 275.513 164.222 279.98 162.899C283.212 161.936 283.389 159.765 282.623 156.72C282.287 155.4 282.339 154.998 281.145 153.623C280.007 152.31 279.216 151.875 278.709 149.645C280.309 148.687 279.785 148.349 281.912 147.363C285.906 145.519 288.539 144.531 290.465 140.116C290.3 139.936 289.259 138.646 289.17 138.571C287.422 137.11 285.093 139.37 282.498 138.212C280.424 137.287 279.773 135.032 279.229 132.385C278.456 128.637 278.295 126.644 280.246 123.246L281.555 120.661C282.894 118.47 287.326 117.257 288.977 116.727C291.026 116.07 292.675 114.876 292.084 112.012C291.417 108.781 285.924 111.59 284.236 114.477C283.343 116.001 282.476 115.842 280.916 116.673C278.443 117.993 277.387 118.879 274.394 119.742C272.139 120.392 266.46 112.562 265.087 110.58L268.086 105.685C269.418 104.03 270.684 101.705 271.343 99.5641C270.808 98.7937 271.011 99.2652 270.655 98.009C268.948 99.6149 269.049 96.8923 266.091 102.134C265.954 102.383 265.443 103.173 265.305 103.33C259.777 109.675 260.316 106.091 255.75 105.531C248.526 104.643 251.635 102.683 251.034 98.9024C250.805 97.4595 251.208 97.2267 250.829 95.3868C250.546 94.0255 249.741 93.8789 248.829 92.891C246.24 94.4379 246.827 95.811 246.364 98.8752C246.187 100.053 246.261 101.261 245.65 102.243C243.849 105.132 242.437 104.074 240.429 103.434C238.292 102.754 234.617 103.464 233.834 100.325C232.842 96.3298 235.249 90.9754 231.824 90.5819C230.957 90.4815 231.476 90.5252 230.576 90.693C229.261 94.933 229.82 93.964 230.372 97.983C230.832 101.336 230.328 103.867 227.248 104.186C225.254 104.391 225.199 104.221 224.312 102.301C223.425 100.382 223.284 100.777 221.769 100.284C219.605 99.5819 218.817 96.1301 216.48 96.0698C215.981 98.399 216.276 97.5623 216.52 100.328C216.706 102.44 216.326 104.323 216.106 106.38C215.94 107.971 216.098 111.529 214.918 111.871C213.175 112.374 212.587 112.932 211.422 111.092C211.295 110.89 210.86 110.1 210.827 110.025C210.437 109.137 210.752 110.009 210.561 109.231C210.171 107.648 209.88 105.427 208.129 105.93C206.177 106.494 206.307 109.368 205.925 111.397C204.685 117.991 206.173 119.957 204.407 122.995C203.451 124.641 201.968 125.623 202.258 127.8C200.713 128.411 201.721 127.864 200.908 128.945C199.304 131.077 198.59 131.734 198.294 134.822C197.95 138.316 198.976 140.145 198.841 144.03C198.724 147.499 197.498 145.852 197.851 152.133C197.935 153.651 197.879 155.06 197.755 156.293C197.528 158.541 197.509 162.898 197.919 164.946C198.198 166.347 199.067 168.048 199.211 169.015C199.479 170.797 198.58 171.084 198.984 173.047C199.235 174.266 202.247 178.081 202.621 179.893C202.947 181.465 201.971 181.367 202.254 183.511L203.795 183.996C204.899 184.454 204.179 183.774 205.033 185.065C207.506 188.792 207.425 186.555 208.452 188.633C209.001 189.745 208.658 190.419 210 190.445C210.723 190.46 210.63 190.248 211.571 190.326C213.135 190.461 213.235 191.142 214.094 192.384C214.869 193.5 215.353 194.342 216.734 194.216C220.598 193.865 219.629 193.302 223.169 195.041C227.157 197.006 231.767 195.576 235.413 197.326C238.741 198.924 241.688 200.241 244.927 196.924C245.899 195.927 245.95 195.488 247.643 194.999C249.144 194.567 248.806 194.821 249.688 195.082L250.453 195.334C251.116 195.466 252.494 195.329 253.235 195.153Z" fill="#407D37"/>
<path fill-rule="evenodd" clip-rule="evenodd" d="M216.432 222.512C216.115 221.614 216.918 220.785 217.533 220.205C218.038 221.707 217.987 222.079 218.175 223.343C217.168 223.521 216.916 223.86 216.432 222.512ZM172.653 203.597C173.377 205.617 173.066 203.166 173.67 206.119C174.495 210.136 175.949 212.663 176.969 216.508L181.916 226.317C181.986 226.417 182.073 226.529 182.145 226.632L184.051 229.075C184.744 229.684 185.282 229.916 185.996 230.305L189.003 232.38C189.642 232.684 202.115 234.819 194.857 242.922C191.28 246.918 191.461 247.966 189.429 250.84C188.755 251.791 187.754 252.66 187.052 253.344C179.597 260.589 181.87 259.849 184.881 270.229C185.654 272.891 184.998 270.623 185.174 272.199C186.015 279.853 191.973 274.564 195.487 272.737C197.697 271.587 198.635 272.019 200.176 270.565C204.802 266.189 204.743 263.556 210.984 269.527C213.632 272.06 218.233 270.029 221.426 271.463C223.89 272.572 226.137 273.128 228.715 274.804C230.26 275.807 232.46 276.906 232.373 279.017C232.315 280.393 230.544 283.486 232.572 284.456C234.285 285.273 235.213 281.607 238.435 279.934C240.078 279.082 244.563 280.041 245.828 280.923C247.307 281.956 247.616 282.958 248.891 283.863C250.9 285.296 251.706 284.786 252.704 287.563C253.952 291.057 250.719 293.26 253.586 294.049C253.67 290.876 254.18 291.428 254.156 290.28C254.236 290.348 254.287 290.402 254.345 290.549C255.019 292.168 254.46 291.887 256.013 292.786C254.813 289.432 255.724 283.101 256.692 282.596C258.101 281.863 259.288 281.958 259.882 282.082C264.734 283.089 265.187 283.783 266.878 287.65C268.006 290.236 268.368 289.067 268.876 292.468C268.926 292.463 268.973 292.33 269.001 292.376C269.915 293.97 268.525 292.002 269.954 292.24C274.807 293.045 269.922 289.997 270.974 285.384C272.476 278.78 276.367 285.466 280.915 284.479C284.777 295.262 284.294 290.056 286.823 290.555C286.86 290.563 286.984 290.605 287.018 290.622C287.629 290.98 287.465 292.344 287.647 292.551C289.577 290.718 287.914 288.537 286.807 286.019C285.881 283.914 283.535 279.644 285.134 278.815C287.815 277.422 288.134 280.152 290 281.26L292.456 284.044C298.012 291.967 298.175 287.401 298.774 291.399C299.502 290.044 299.319 289.73 300.59 290.812C302.533 292.467 301.347 292.787 303.439 293.026C302.414 291.937 302.095 291.383 301.124 290.356L300.62 289.862C300.546 289.777 300.449 289.684 300.375 289.592L295.103 281.153C293.46 276.562 300.624 273.731 303.097 279.317C303.883 277.853 303.946 277.199 305.814 276.17C303.476 272.352 301.051 269.67 299.463 264.737C298.745 262.484 297.438 262.312 296.196 259.546C294.914 256.681 296.311 255.512 296.636 253.18C297.117 249.684 294.197 243.166 293.351 240.833C291.709 236.315 293.502 237.729 292.714 234.324C292.002 231.253 289.943 228.29 292.521 226.954C293.787 226.295 298.658 228.895 297.608 225.896L295.375 223.467C292.82 220.964 294.709 220.826 290.002 217.295C288.658 216.285 288.346 215.606 287.458 213.811C286.916 212.707 285.439 209.845 285.257 209.286C284.393 206.638 285.915 207.153 284.892 204.303C284.108 202.11 281.42 199.166 286.504 199.412C282.501 192.882 277.713 192.409 286.658 187.761C285.81 186.47 285.013 186.734 283.782 186.308C282.287 185.789 280.935 185.568 279.755 184.27C279.677 184.185 279.594 184.068 279.516 183.977L278.8 183.092C277.492 181.551 275.151 179.975 274.244 178.589C274.61 176.212 275.272 176.266 275.626 174.4C273.954 171.846 271.126 173.796 264.303 170.057C260.663 168.062 261.842 167.556 259.267 165.993C257.527 164.935 255.183 165.477 253.038 165.837C252.967 165.849 252.839 165.882 252.769 165.892L252.036 165.994C250.06 165.82 250.092 162.894 248.205 162.893C246.011 162.891 246.998 164.055 243.824 162.944C241.629 162.177 241.047 163.144 239.581 160.494C238.838 159.156 238.086 157.223 237.904 156.935C237.136 155.718 234.167 153.123 232.717 153.877C230.235 155.167 228.13 157.625 227.263 159.742C224.813 165.729 228.642 171.202 221.388 172.953C220.674 173.126 218.4 174.259 218.058 174.324L208.225 173.142C205.993 172.44 202.861 171.937 200.496 172.154C200.383 172.166 200.256 172.185 200.146 172.191L195.592 171.751C193.215 170.966 192.143 171.62 189.691 172.553L185.348 174.778C182.752 176.214 180.685 176.521 177.471 180.406C173.901 184.717 172.56 189.02 172.536 195.048C172.524 197.493 171.967 196.852 172.056 198.863C172.062 198.95 172.636 203.556 172.653 203.597Z" fill="#097609"/>
<path opacity="0.73" fill-rule="evenodd" clip-rule="evenodd" d="M324.438 287.903C327.026 295.133 332.657 294.711 339.001 297.727C340.988 298.673 340.718 300.295 340.664 298.802C340.662 298.718 340.819 298.966 340.911 299.017C340.02 295.817 341.953 295.304 342.866 292.793L343.078 292.027C346.353 282.881 347.568 284.248 342.261 279.678C339.378 277.193 339.787 276.779 334.721 276.075C333.763 275.943 332.74 275.909 331.767 275.884C325.628 275.717 322.632 282.864 324.438 287.903Z" fill="#097609"/>
<path fill-rule="evenodd" clip-rule="evenodd" d="M312.332 255.428C312.139 257.593 313.388 257.798 316.546 260.97L318.136 262.249C317.48 260.765 316.238 259.517 315.381 258.391L313.163 255.965C312.16 255.153 312.995 255.815 312.332 255.428Z" fill="#097609"/>
<path fill-rule="evenodd" clip-rule="evenodd" d="M312.332 255.428C311.429 253.956 310.757 253.207 309.485 252.856C309.923 253.845 310.083 254.23 310.531 254.771C311.465 255.905 311.113 255.645 312.332 255.428Z" fill="#097609"/>
<path fill-rule="evenodd" clip-rule="evenodd" d="M126.185 5.50571C123.577 5.50571 124.447 3.50626 121.884 6.77724C120.107 9.04613 119.622 6.99231 117.109 6.30101C117.43 7.93059 117.331 9.34865 116.305 10.5103C114.958 12.0441 117.204 9.31084 115.942 10.8766C113.531 13.8652 115.742 13.4492 110.387 13.4492C110.124 14.6108 109.41 15.672 108.88 16.8312C107.782 19.2195 108.886 22.611 106.349 24.1685C105.3 24.8137 103.663 24.4509 103.663 26.1573C103.663 28.425 105.007 28.4333 105.007 30.1267C105.007 32.8978 104.097 32.8021 103.757 34.6042C103.473 36.1026 103.795 35.8793 103.327 37.2832C103.079 38.0406 102.71 38.3703 102.562 39.4327C102.42 40.4407 102.602 43.3879 102.642 45.2325C102.691 47.5286 103.326 48.7647 103.326 50.7771C103.326 51.693 102.514 52.6738 102.538 54.2774C102.574 56.5226 102.919 56.174 102.242 58.229C101.398 60.7933 100.07 62.3993 101.321 65.051C102.212 66.9347 101.771 67.4629 102.735 68.5276L103.276 69.0854C103.942 69.9953 104.7 73.2498 104.859 74.3842C105.051 75.7597 101.7 82.0204 107.023 82.5463C108.118 81.3209 110.995 74.9207 112.462 82.473C112.559 82.9835 109.81 92.13 114.757 96.0485C116.886 95.4612 117.313 93.0742 119.462 94.0148C120.34 94.3977 121.12 94.9141 121.611 95.8937C123.13 98.9402 122.982 102.18 124.644 105.014C125.251 106.048 125.719 106.34 126.241 107.495C127.919 111.192 130.309 114.118 132.009 117.758C132.665 119.159 132.951 119.047 133.457 120.418L135.933 130.198C136.028 131.423 135.933 133.275 135.933 134.566C136.798 134.023 137.648 134.043 138.068 133.096C138.626 131.843 137.613 131.035 137.613 129.802C137.613 127.366 139.153 124.268 139.296 122.259C142.758 122.259 142.676 123.581 145.44 124.132C146.771 124.398 146.765 123.848 147.617 124.738C148.603 125.773 149.381 132.565 149.381 134.964L149.908 134.921C149.934 134.923 150.034 134.939 150.058 134.943C150.659 134.993 150.225 136.412 150.994 134.523C152.181 131.617 150.864 123.448 154.421 123.448C156.797 123.448 157.185 125.831 159.129 125.831C160.417 125.831 161.07 123.049 163.835 123.049C165.104 123.049 165.922 127.848 167.057 130.761C167.461 131.798 167.526 131.584 167.768 132.701C169.654 141.412 173.262 138.097 172.779 134.631L171.542 130.625C170.884 127.415 168.96 125.399 170.193 122.641C171.69 119.293 173.465 119.589 174.756 116.889C176.086 114.104 177.296 112.724 180.977 112.724C181.902 112.724 189.125 113.474 187.775 108.312L186.07 103.134C183.963 98.6235 186.441 98.8055 184.577 93.7832C183.912 91.9941 184.022 90.0088 183.424 87.9952C182.811 85.9236 181.963 84.4323 183.79 82.6905C185.884 80.6945 188.637 80.509 188.711 76.5904C187.342 76.1556 188.631 76.373 187.523 76.0079C185.472 75.3307 184.894 76.0114 182.997 74.2377C182.568 73.8382 182.339 73.5806 181.833 73.1942C178.515 70.6346 179.301 68.3397 179.301 63.8823C179.301 61.5425 180.309 60.6338 180.309 58.7182C180.309 56.9303 178.97 57.5082 180.091 55.3255C180.675 54.1805 181.202 53.1713 181.319 51.5724C178.98 49.7219 174.939 48.8533 175.025 44.8662C175.074 42.5938 175.904 42.8821 176.272 41.2454C178.532 41.2454 179.155 42.1553 181.114 42.6753C182.229 42.9707 182.643 42.7698 183.77 43.1421C185.833 43.8263 184.312 43.4316 186.36 43.2319V42.439C184.901 42.0384 183.862 41.6129 182.355 41.2123C181.337 40.9417 178.986 40.3355 178.362 39.5532C177.324 38.2522 177.705 36.437 178.668 35.3463C179.665 34.219 179.232 34.8925 180.561 34.3998C182.128 33.8184 181.265 34.525 181.989 32.9085C180.759 30.7376 180.139 32.3968 179.36 29.2652L178.054 23.6592C177.694 21.0571 177.372 20.9968 175.609 19.4003C170.027 14.3461 170.319 19.6461 166.034 15.6247C163.995 13.7127 163.743 10.1463 156.849 9.0024L152.327 8.09721C149.043 7.86796 150.872 9.07449 146.496 6.93796C145.029 6.22302 144.986 5.87914 143.788 4.97159C141.852 3.50626 138.013 3.52399 136.614 3.52399C135.154 3.52399 132.113 2.7606 131.567 0.940761L130.904 0.710327C130.842 3.23446 128.283 5.50571 126.185 5.50571Z" fill="#02734A"/>
<path opacity="0.73" fill-rule="evenodd" clip-rule="evenodd" d="M315.095 165.537C316.395 168.979 315.66 166.748 316.775 168.713C316.382 169.595 315.766 170.651 315.766 171.893C315.766 178.783 320.159 178.891 321.818 179.832C321.818 182.296 321.698 182.822 322.635 184.432C323.716 186.286 323.639 186.024 323.766 187.898C324.421 197.617 326.723 197.27 329.594 200.427C330.366 201.28 329.971 201.144 330.715 201.883C331.697 202.848 332.306 202.784 334.124 204.604C337.245 207.735 337.488 205.142 339.432 203.419C343.261 200.021 340.423 203.487 343.275 199.224C343.711 198.574 343.965 198.42 344.433 197.813C346.19 195.557 345.835 191.667 345.483 188.807C344.788 183.193 345.003 182.171 340.908 177.531C339.386 175.806 334.279 175.263 333.397 175.367C331.948 175.535 330.674 176.455 329.493 175.938L326.57 173.818C325.629 172.575 325.882 168.103 322.113 167.786C321.134 167.704 319.6 167.868 318.158 167.482C316.184 166.95 317.322 165.915 315.095 165.537Z" fill="#02734A"/>
<path fill-rule="evenodd" clip-rule="evenodd" d="M281.816 131.783C281.816 133.534 282.467 134.233 283.287 134.815L284.353 135.539C287.786 138.021 285.968 137.133 289.88 143.31C291.769 146.297 294.511 146.903 296.468 145.12C302.141 139.956 290.673 134.539 290.278 134.097C287.441 130.902 290.801 128.679 284.108 130.118C283.079 130.338 281.816 130.654 281.816 131.783Z" fill="#02734A"/>
<path fill-rule="evenodd" clip-rule="evenodd" d="M295.263 121.459C295.263 123.72 295.01 124.215 296.198 125.915C297.911 128.37 302.545 129.823 305.112 127.137C305.476 126.755 307.029 124.582 307.029 124.238C307.029 117.559 303.096 116.695 298.961 116.695C298.075 116.695 298.763 116.409 297.265 117.868C296.134 118.969 295.263 119.625 295.263 121.459Z" fill="#02734A"/>
<path fill-rule="evenodd" clip-rule="evenodd" d="M194.759 116.298C194.759 120.731 205.461 127.352 206.394 118.524C206.774 114.925 201.552 111.531 199.461 111.531C196.943 111.531 194.759 113.467 194.759 116.298Z" fill="#02734A"/>
<path fill-rule="evenodd" clip-rule="evenodd" d="M268.709 108.751C268.709 106.381 266.623 105.254 265.096 104.68C264.438 104.434 263.967 104.219 263.167 103.772C261.883 103.058 260.837 102.562 259.599 103.522C258.368 104.479 253.894 110.468 262.51 112.106C264.71 112.522 267.062 113.559 268.088 111.196C268.144 111.067 268.709 109.032 268.709 108.751Z" fill="#02734A"/>
<path fill-rule="evenodd" clip-rule="evenodd" d="M248.876 119.074C248.876 120.327 249.169 120.781 250.059 121.652L254.253 124.238C254.53 123.026 254.551 123.328 255.306 122.702C255.85 122.247 256.406 121.886 256.943 121.46C255.089 116.89 256.297 115.105 251.229 115.105C249.834 115.104 248.876 117.311 248.876 119.074Z" fill="#02734A"/>
<path fill-rule="evenodd" clip-rule="evenodd" d="M296.608 150.05C296.608 153.638 304.337 156.256 304.337 148.86C304.337 145.215 298.879 144.728 297.56 146.805C297.258 147.276 296.608 149.24 296.608 150.05Z" fill="#02734A"/>
<path fill-rule="evenodd" clip-rule="evenodd" d="M152.07 163.947C154.733 163.947 153.248 153.252 152.921 152.22C152.364 150.484 153.25 151.407 152.07 150.843C152.585 149.006 152.249 150.785 152.493 150.2C152.513 150.157 152.727 149.891 152.584 149.077C151.847 144.915 153.002 142.762 150.388 142.505C151.47 145.17 150.623 150.477 150.568 154.544C150.552 155.621 150.913 156.074 150.933 156.844C150.968 158.196 150.515 157.753 150.402 159.606C150.368 160.168 150.423 160.452 150.449 160.948L150.539 162.296C150.745 163.359 151.045 163.947 152.07 163.947Z" fill="#02734A"/>
<path fill-rule="evenodd" clip-rule="evenodd" d="M269.381 123.84C274.47 132.82 280.232 119.87 272.744 119.87C270.634 119.87 269.79 121.778 269.381 123.84Z" fill="#02734A"/>
<path fill-rule="evenodd" clip-rule="evenodd" d="M308.371 157.994C308.019 158.863 307.787 159.555 307.702 160.772C309.613 161.967 309.595 161.666 311.399 161.168C311.413 160.489 312.741 155.989 308.371 157.994Z" fill="#02734A"/>
<path fill-rule="evenodd" clip-rule="evenodd" d="M229.981 306.553C231.282 309.995 230.545 307.764 231.661 309.731C231.269 310.611 230.654 311.669 230.654 312.909C230.654 319.799 235.048 319.909 236.704 320.848C236.704 323.312 236.584 323.839 237.521 325.449C238.604 327.303 238.524 327.04 238.652 328.916C239.307 338.632 241.606 338.286 244.481 341.444C245.251 342.296 244.857 342.162 245.601 342.9C246.58 343.863 247.192 343.799 249.011 345.62C252.133 348.751 252.374 346.159 254.317 344.435C258.149 341.039 255.309 344.504 258.162 340.242C258.599 339.591 258.851 339.436 259.322 338.829C261.075 336.572 260.721 332.683 260.371 329.822C259.673 324.209 259.888 323.189 255.796 318.549C254.274 316.823 249.165 316.281 248.284 316.382C246.834 316.55 245.56 317.47 244.38 316.954L241.459 314.836C240.517 313.592 240.769 309.118 237.002 308.802C236.021 308.72 234.487 308.884 233.043 308.498C231.072 307.966 232.21 306.932 229.981 306.553Z" fill="#04A100"/>
<path fill-rule="evenodd" clip-rule="evenodd" d="M196.705 272.8C196.705 274.551 197.353 275.251 198.171 275.832L199.239 276.556C202.671 279.038 200.855 278.151 204.765 284.327C206.655 287.315 209.396 287.922 211.356 286.139C217.028 280.975 205.559 275.559 205.165 275.116C202.328 271.919 205.686 269.697 198.994 271.137C197.967 271.356 196.705 271.67 196.705 272.8Z" fill="#04A100"/>
<path fill-rule="evenodd" clip-rule="evenodd" d="M210.146 262.475C210.146 264.737 209.898 265.231 211.084 266.931C212.795 269.387 217.433 270.839 219.997 268.153C220.36 267.771 221.917 265.6 221.917 265.254C221.917 258.577 217.983 257.712 213.847 257.712C212.964 257.712 213.65 257.426 212.152 258.884C211.021 259.985 210.146 260.641 210.146 262.475Z" fill="#04A100"/>
<path fill-rule="evenodd" clip-rule="evenodd" d="M183.592 249.768C183.592 247.399 181.508 246.273 179.984 245.696C179.323 245.45 178.852 245.236 178.052 244.79C176.767 244.073 175.721 243.578 174.485 244.538C173.255 245.495 168.779 251.484 177.394 253.122C179.595 253.539 181.946 254.575 182.974 252.211C183.029 252.083 183.592 250.049 183.592 249.768Z" fill="#04A100"/>
<path fill-rule="evenodd" clip-rule="evenodd" d="M163.761 260.092C163.761 261.344 164.054 261.798 164.945 262.668L169.14 265.256C169.415 264.043 169.435 264.346 170.191 263.719C170.736 263.263 171.293 262.902 171.828 262.476C169.974 257.908 171.182 256.121 166.114 256.121C164.717 256.121 163.761 258.328 163.761 260.092Z" fill="#04A100"/>
<path fill-rule="evenodd" clip-rule="evenodd" d="M211.496 291.067C211.496 294.654 219.225 297.272 219.225 289.875C219.225 286.232 213.766 285.744 212.446 287.822C212.144 288.292 211.496 290.256 211.496 291.067Z" fill="#04A100"/>
<path fill-rule="evenodd" clip-rule="evenodd" d="M184.268 264.857C189.355 273.836 195.118 260.885 187.628 260.885C185.52 260.886 184.675 262.794 184.268 264.857Z" fill="#04A100"/>
<path fill-rule="evenodd" clip-rule="evenodd" d="M223.257 299.01C222.904 299.879 222.672 300.572 222.587 301.791C224.496 302.983 224.481 302.682 226.283 302.184C226.297 301.505 227.628 297.006 223.257 299.01Z" fill="#04A100"/>
<path fill-rule="evenodd" clip-rule="evenodd" d="M77.8196 285.36C75.7586 282.485 76.9926 284.383 75.4566 282.864C75.6266 281.889 75.9676 280.67 75.6726 279.479C74.0426 272.863 69.8006 274.209 67.9846 273.854C67.4016 271.487 67.3926 270.943 66.1126 269.707C64.6336 268.284 64.7706 268.51 64.2056 266.753C61.2736 257.641 59.1516 258.731 55.6446 256.649C54.7026 256.085 55.1136 256.085 54.2236 255.621C53.0546 255.021 52.4856 255.284 50.3086 254.137C46.5696 252.163 46.9506 254.73 45.4906 257.028C42.6156 261.556 44.5236 257.291 42.7956 262.325C42.5286 263.093 42.3236 263.326 42.0166 264.063C40.8656 266.811 42.1246 270.427 43.1406 273.056C45.1356 278.217 45.1726 279.268 50.2016 282.369C52.0686 283.524 57.1036 282.356 57.9256 281.967C59.2766 281.327 60.2826 280.023 61.5366 280.127L64.8436 281.197C66.0436 282.08 66.8596 286.459 70.5516 285.517C71.5126 285.273 72.9456 284.607 74.4226 284.502C76.4416 284.363 75.5916 285.732 77.8196 285.36Z" fill="#04A100"/>
<path fill-rule="evenodd" clip-rule="evenodd" d="M117.761 306.773C117.345 305.091 116.554 304.636 115.629 304.348L114.435 304.003C110.552 302.756 112.507 303.008 107.292 298.367C104.771 296.125 101.993 296.447 100.536 298.807C96.3096 305.638 108.604 307.05 109.087 307.346C112.567 309.476 109.869 312.72 115.953 309.127C116.886 308.577 118.026 307.858 117.761 306.773Z" fill="#04A100"/>
<path fill-rule="evenodd" clip-rule="evenodd" d="M107.294 321.125C106.758 318.956 106.882 318.398 105.339 317.159C103.115 315.366 98.3215 315.503 96.4915 318.93C96.2325 319.417 95.2535 322.017 95.3365 322.347C96.9165 328.758 100.9 328.289 104.867 326.924C105.719 326.631 105.126 327.132 106.219 325.238C107.044 323.805 107.728 322.889 107.294 321.125Z" fill="#04A100"/>
<path fill-rule="evenodd" clip-rule="evenodd" d="M135.796 324.553C136.355 326.83 138.623 327.223 140.226 327.27C140.916 327.288 141.418 327.337 142.293 327.502C143.694 327.766 144.816 327.895 145.779 326.565C146.731 325.241 149.611 318.011 140.95 319.286C138.74 319.613 136.237 319.395 135.811 322.001C135.789 322.144 135.728 324.286 135.796 324.553Z" fill="#04A100"/>
<path fill-rule="evenodd" clip-rule="evenodd" d="M152.391 308.091C152.096 306.888 151.707 306.548 150.648 306.008L146.008 304.91C146.031 306.164 145.938 305.88 145.362 306.732C144.947 307.348 144.497 307.88 144.084 308.466C146.944 312.24 146.207 314.353 151.075 312.679C152.415 312.219 152.809 309.782 152.391 308.091Z" fill="#04A100"/>
<path fill-rule="evenodd" clip-rule="evenodd" d="M99.2356 294.12C98.3866 290.675 90.3435 290.718 92.0955 297.818C92.9565 301.317 98.3145 299.981 99.0905 297.551C99.2645 296.999 99.4256 294.9 99.2356 294.12Z" fill="#04A100"/>
<path fill-rule="evenodd" clip-rule="evenodd" d="M131.578 310.287C124.567 303.349 122.099 317.687 129.29 315.213C131.315 314.516 131.675 312.405 131.578 310.287Z" fill="#04A100"/>
<path fill-rule="evenodd" clip-rule="evenodd" d="M86.0605 290.38C86.1945 289.429 86.2526 288.688 86.0466 287.491C83.9296 286.977 84.0156 287.261 82.4036 288.334C82.5506 288.989 82.3415 293.749 86.0605 290.38Z" fill="#04A100"/>
<path fill-rule="evenodd" clip-rule="evenodd" d="M267.336 52.8263C269.09 55.9732 268.06 53.9123 269.43 55.6387C269.162 56.5818 268.7 57.7434 268.87 58.9676C269.817 65.7672 274.165 65.031 275.931 65.6419C276.273 68.0739 276.224 68.6151 277.372 70.0237C278.694 71.6462 278.58 71.4028 278.964 73.2285C280.947 82.6905 283.169 81.907 286.44 84.4714C287.315 85.1627 286.911 85.1071 287.745 85.6921C288.845 86.4578 289.437 86.2758 291.483 87.7246C294.992 90.2145 294.875 87.6076 296.555 85.5361C299.868 81.4462 297.542 85.4132 299.771 80.658C300.113 79.9336 300.341 79.7327 300.72 79.0426C302.143 76.4794 301.258 72.7098 300.519 69.9552C299.059 64.5489 299.129 63.4995 294.456 59.7086C292.718 58.2976 287.602 58.7431 286.746 59.0125C285.337 59.4569 284.211 60.609 282.972 60.3266L279.798 58.7963C278.697 57.7505 278.331 53.2883 274.571 53.6996C273.592 53.8059 272.099 54.2644 270.624 54.1581C268.605 54.0103 269.584 52.7707 267.336 52.8263Z" fill="#02734A"/>
<path fill-rule="evenodd" clip-rule="evenodd" d="M229.857 25.908C230.096 27.6356 230.836 28.2005 231.725 28.6176L232.877 29.1293C236.604 30.9173 234.69 30.3902 239.398 35.7339C241.672 38.3195 244.459 38.3939 246.149 36.2574C251.035 30.0723 238.975 26.929 238.525 26.5686C235.288 23.9593 238.296 21.122 231.89 23.8258C230.906 24.2418 229.702 24.7936 229.857 25.908Z" fill="#02734A"/>
<path fill-rule="evenodd" clip-rule="evenodd" d="M241.707 13.1396C242.015 15.3707 241.839 15.9072 243.242 17.3572C245.267 19.4512 250.043 19.9947 252.204 16.8514C252.511 16.4059 253.746 13.9633 253.699 13.6229C252.782 7.03371 248.782 6.93563 244.702 7.72856C243.828 7.89991 244.466 7.48394 243.187 9.21043C242.224 10.5162 241.455 11.3304 241.707 13.1396Z" fill="#02734A"/>
<path fill-rule="evenodd" clip-rule="evenodd" d="M213.758 5.69718C213.432 3.35975 211.218 2.64718 209.634 2.37302C208.95 2.25603 208.455 2.1355 207.606 1.84834C206.241 1.38984 205.139 1.10149 204.052 2.28557C202.969 3.4661 199.375 10.2338 208.103 10.1971C210.331 10.1853 212.794 10.7573 213.482 8.22958C213.518 8.09132 213.796 5.9737 213.758 5.69718Z" fill="#02734A"/>
<path fill-rule="evenodd" clip-rule="evenodd" d="M195.607 19.6899C195.781 20.9259 196.133 21.3171 197.129 22.0037L201.625 23.7526C201.73 22.5035 201.792 22.7978 202.45 22.0344C202.926 21.4825 203.423 21.0181 203.895 20.4934C201.436 16.3433 202.381 14.3473 197.383 15.3211C196.005 15.5917 195.366 17.9504 195.607 19.6899Z" fill="#02734A"/>
<path fill-rule="evenodd" clip-rule="evenodd" d="M246.965 41.093C247.457 44.6322 255.444 45.73 254.429 38.4341C253.927 34.8382 248.473 35.4054 247.454 37.7085C247.226 38.2309 246.854 40.2918 246.965 41.093Z" fill="#02734A"/>
<path fill-rule="evenodd" clip-rule="evenodd" d="M216.497 20.4591C222.75 28.3411 226.655 14.456 219.268 15.8941C217.187 16.2971 216.615 18.3438 216.497 20.4591Z" fill="#02734A"/>
<path fill-rule="evenodd" clip-rule="evenodd" d="M259.663 46.673C259.434 47.5995 259.3 48.3262 259.384 49.5458C261.434 50.3564 261.378 50.0622 263.086 49.2243C263.007 48.5519 263.697 43.857 259.663 46.673Z" fill="#02734A"/>
<path fill-rule="evenodd" clip-rule="evenodd" d="M25.8657 110.71V113.071C27.0727 114.025 28.4507 114.14 29.8837 114.761C30.2167 114.907 29.9057 114.803 30.2897 114.925C31.1107 115.189 31.9207 115.268 32.7357 115.68C33.1617 115.899 32.9647 115.902 33.4437 116.129L36.2487 117.538C36.8697 117.894 37.1137 117.982 37.8087 118.266C38.8957 118.714 39.3867 119.198 40.9207 119.741C41.3677 119.9 41.1297 119.811 41.3137 119.919C41.6587 120.122 41.4387 120.122 41.9997 120.395C43.3207 121.03 43.9937 120.534 44.6187 122.236C44.7527 122.602 44.6237 122.338 44.7957 122.671C45.6387 124.308 47.1127 124.432 48.6887 124.935C52.5717 126.174 52.2397 125.375 55.4557 125.185C55.9047 125.158 56.2647 124.898 57.0267 124.814C57.7527 124.732 57.9337 125.059 58.7377 125.075C59.9817 125.103 59.1487 124.568 60.2547 125.197L62.6137 126.072C64.8737 126.805 67.1137 127.933 69.1357 129.308L72.1577 133.244C72.0347 133.862 71.6867 134.648 71.5807 135.294C71.3227 136.799 72.3717 137.781 72.8157 139.119C73.8997 142.386 73.1187 143.055 76.4907 144.468C77.6467 144.95 76.9277 143.937 78.0027 143.804C78.5607 143.738 78.5717 144.013 78.6927 144.402C80.0957 143.293 80.3757 142.576 82.8257 143.38C83.4737 143.593 84.2227 144.325 84.7117 144.39C85.5567 144.5 85.1887 144.292 85.7117 144.144C86.3187 143.973 86.0007 144.165 86.8627 144.189L87.2247 143.331C86.9877 143.207 87.2587 143.113 86.9257 143.423C86.9097 143.442 86.8657 143.498 86.8487 143.517L86.6787 143.761C86.4107 142.968 86.5547 143.579 86.1607 142.973L85.0647 141.804C83.5467 140.549 84.4917 139.6 85.7717 140.326C85.8717 139.253 85.6957 140.081 86.0577 139.589C86.2177 139.368 86.5107 139.172 86.6787 139.038C87.8277 140.035 87.8307 141.56 88.4667 142.29L88.7877 142.554C89.9167 143.367 89.7697 143.532 90.4297 144.904L92.0187 148.179C92.7867 149.445 93.3827 149.981 94.8497 149.981C94.7937 150.751 94.5587 151.227 95.3187 151.565C95.7057 151.738 95.9057 151.641 96.1817 151.583C97.2297 151.368 96.8077 151.696 97.0277 151.054C97.9337 151.078 97.9067 151.143 98.2857 151.714L98.4347 151.966C99.4287 153.447 99.4867 154.049 100.187 155.903C100.683 157.217 101.586 158.712 101.856 160.389C102.066 161.708 101.664 160.596 101.565 161.999C102.457 162.383 101.462 162.026 102.128 162.409C102.534 162.644 103.152 162.534 103.665 162.737C104.427 163.042 103.824 162.809 104.191 163.187L105.322 164.011C106.188 164.774 105.445 164.59 105.742 165.433C106.286 166.115 107.183 165.134 107.609 166.43C108.204 168.226 107.38 166.247 107.739 167.15C108.476 167.075 109.9 166.301 110.825 167.793C110.573 168.905 109.144 168.699 108.216 172.454C108.022 173.246 108.475 174.817 108.804 175.335C109.641 176.663 111.419 176.425 110.014 179.497C109.861 179.835 109.838 180.02 109.772 180.286C109.29 182.246 108.074 183.398 107.448 185.261C106.75 187.325 106.061 189.586 106.75 191.71C107.769 194.844 112.128 193.67 113.683 192.415C114.738 191.564 114.809 191.702 116.146 191.463C117.432 191.234 117.845 190.733 118.678 190.576C120.571 190.221 122.626 193.006 125.429 191.708C125.752 191.559 125.978 191.183 126.431 190.96C127.15 190.601 130.66 190.392 132.145 189.99C132.841 189.802 133.94 189.082 134.257 188.625C134.78 187.871 135.791 184.736 133.225 183.799C130.948 182.971 130.367 184.82 128.013 182.453C124.77 179.188 125.703 181.47 122.467 180.438C122.086 180.315 122.245 180.36 122.063 180.258L120.981 179.609C120.756 179.47 120.823 179.488 120.529 179.286C120.272 179.112 120.186 179.076 119.94 178.908L119.005 178.081C117.3 175.991 118.033 172.762 116.114 169.908C115.571 169.097 115.021 168.388 114.818 167.364C115.572 166.035 117.302 165.925 117.724 167.791C120.275 165.582 116.745 166.155 121.428 162.929C122.269 162.348 122.647 163.167 122.988 163.928C123.575 163.595 123.925 163.818 124.386 163.219L124.978 162.204C124.994 162.184 125.183 161.977 125.26 161.896L125.782 161.439C126.49 160.868 126.471 159.81 126.94 158.946L130.25 152.986C130.768 153.232 130.229 152.935 130.531 153.297C130.865 153.696 131.144 153.912 131.849 153.819C132.604 153.717 132.087 153.476 132.851 153.795C133.583 154.1 133.093 154.403 133.648 154.133C134.379 153.775 133.141 153.071 132.89 152.868C132.131 152.259 132.224 151.87 132.426 150.839C133.846 150.447 134.646 151.698 136.238 151.698C137.941 148.694 135.271 148.401 136.562 146.504C137.242 145.511 138.611 145.867 139.363 144.232C140.875 140.949 139.842 140.991 140.094 138.673C140.189 137.79 140.272 137.774 140.156 136.552C140.081 135.734 140.217 135.243 140.399 134.506C140.671 133.398 140.489 133.369 140.536 132.625L141.564 129.023C142.397 126.93 141.742 127.041 141.462 125.532C141.021 123.166 140.352 124.293 140.228 122.3C140.063 119.659 140.609 118.287 140.589 115.64C140.577 113.905 141.062 112.403 141.711 110.951L142.812 108.393C142.908 108.182 143.475 107.136 143.604 106.967L145.063 105.689C145.091 105.659 145.13 105.617 145.156 105.585L145.827 104.662C145.923 104.515 145.972 104.432 146.062 104.296C146.084 104.26 146.12 104.211 146.144 104.176C147.707 101.799 147.009 101.787 151.253 100.989C153.207 100.622 153.161 100.395 154.591 99.3537C156.595 97.8955 156.663 95.5285 158.624 94.8986C160.246 94.3775 161.171 93.1674 162.332 91.7695C162.777 91.2318 162.839 91.0959 163.411 90.6823C164.096 90.186 164.051 90.1269 164.622 89.5396L165.772 88.5363C166.666 87.7836 167.525 87.5011 168.185 86.4553C169.22 84.8175 171.191 84.0375 172.582 82.8534C172.694 82.7601 172.791 82.6726 172.893 82.5781L174.471 81.2227C175.372 80.5255 175.934 79.7125 176.903 79.1618C177.51 78.8179 177.622 78.7907 178.129 78.2519L181.553 74.7894C182.023 74.2671 182.133 73.9611 182.532 73.5794C183.479 72.6635 184.808 72.023 185.636 71.0292C186.57 69.9125 188.054 69.3819 188.822 68.5736L190.184 66.963C191.58 65.1396 189.863 63.9803 187.957 66.0483L187.291 66.5458C187.255 66.5706 187.206 66.5954 187.168 66.6203L186.282 67.2856C185.511 67.8599 185.047 68.6989 184.478 69.4481C183.549 70.6676 181.73 71.2656 180.998 72.7403C180.743 73.2508 181.283 72.7793 180.757 73.0452C180.544 73.1516 180.546 73.0641 180.294 73.2898L179.179 74.1265C178.85 74.338 178.943 74.312 178.644 74.5673C178.017 75.1026 178.195 74.9513 177.384 75.2255C175.536 75.853 174.723 77.6267 173.384 79.0814L172.502 80.1851C171.743 81.1104 171.41 81.3503 170.474 82.0806C170.023 82.4351 169.812 82.5887 169.419 82.9775C168.311 84.0777 166.842 84.1971 165.544 84.8328C164.269 85.4603 162.894 85.309 161.985 86.6385C161.678 87.0934 161.445 87.4066 161.086 87.7339C161.044 87.7729 160.923 87.8864 160.882 87.9194L160.489 88.1806C159.757 88.4382 159.568 88.3354 158.969 89.0787C158.074 90.1931 157.329 91.4776 156.009 92.0188C155.371 92.28 154.358 92.4017 153.897 92.7396C153.463 93.0552 153.838 92.8306 153.324 93.1343C152.867 93.4061 152.651 93.555 152.148 93.8895C151.88 94.0655 151.834 94.0679 151.583 94.2972C150.998 94.8325 150.739 95.3075 150.351 96.0555C149.829 97.0588 149.491 96.735 148.888 97.5469C148.72 97.7726 148.633 97.9132 148.452 98.1023C147.764 98.8243 146.938 99.0937 146.148 99.6728C144.937 100.563 143.414 100.919 142.408 101.686C141.896 102.08 141.956 102.144 141.213 102.421C139.766 102.964 138.136 102.756 137.009 101.639C136.483 101.122 136.517 100.799 136.219 100.429L133.174 99.7106C132.039 99.5983 131.302 100.426 130.436 100.297C130.09 100.246 129.68 99.7791 129.313 99.5818C125.694 97.639 125 98.582 123.591 98.1944L123.058 97.9628C122.296 97.6166 121.757 97.4724 121.262 96.644C120.704 95.7057 120.89 94.3113 121.165 93.3151C121.319 92.7656 121.483 92.3237 121.536 91.6064C121.214 91.7872 120.948 91.8522 120.627 92.0354L120.491 91.4256C120.437 91.1089 120.691 91.1136 120.263 90.7473L119.689 93.1355C119.679 93.1698 119.66 93.2301 119.652 93.2667C119.361 94.4283 119.526 95.6266 118.791 96.3037C118.025 97.0009 117.066 97.1013 116.441 96.3427C115.517 95.2094 115.253 93.6992 115.787 92.3213L116.814 90.1044L116.098 90.0654C116.082 90.069 116.035 90.0891 116.019 90.0962C115.056 90.5417 116.75 89.6317 115.836 90.2143C115.179 90.6327 116.214 90.2652 115.362 90.5334C115.338 89.2347 115.48 89.9024 115.001 89.6743C115.223 88.8719 115.078 89.6128 115.644 88.9357L116.45 88.1723L116.664 88.9759C116.82 89.5467 116.466 89.4663 116.995 89.6743C117.223 88.5316 117.135 88.4146 116.635 87.5295C116.016 87.546 116.052 87.5118 115.626 87.8403L115.331 88.131C114.306 89.2926 115.199 90.479 114.275 93.5397C114.007 94.4224 113.948 95.0345 113.082 95.3453C111.913 95.7696 109.655 95.9575 108.896 95.6183C108.134 95.2744 108.375 94.9624 108.146 94.1282C107.915 93.2856 107.535 91.708 106.467 92.0354C104.991 92.4868 105.94 95.6431 105.363 97.1652C104.875 98.4461 103.72 98.9602 102.753 99.6609L100.291 101.042C98.0197 102.096 99.1007 101.905 96.4817 101.905C95.8707 100.539 95.0577 98.998 93.5467 99.2875C92.5977 99.4707 92.2587 99.9918 92.4897 101.016C92.6727 101.835 93.5737 103.031 93.3927 103.837C92.9257 104.665 92.6417 104.716 92.5117 106.014C92.2837 108.25 91.6247 108.91 90.6437 110.671C89.9147 111.979 88.1807 112.629 87.1287 111.889L86.8037 111.631C86.0527 111.089 85.5497 110.701 84.6317 110.841C83.4127 111.029 82.1437 111.211 81.0767 111.808L78.5457 113.752C77.6827 114.392 77.5797 114.248 76.8247 115.151C76.1097 115.998 75.7747 117.41 74.8997 118.026L71.5887 119.261C66.1827 121.597 68.6467 120.097 64.4227 121.092C60.6587 121.98 63.6077 122.261 58.9047 122.498C57.5907 122.559 56.5457 122.429 55.1397 122.784C54.5007 122.943 53.2397 123.116 52.6777 122.55C51.6727 121.532 53.3487 121.987 51.8507 120.547C51.8207 120.517 51.7777 120.478 51.7477 120.45L49.3007 119.05C49.2547 119.033 49.2067 119.02 49.1607 119.001C49.1167 118.982 49.0687 118.964 49.0247 118.946L45.8007 117.609C42.3667 115.986 45.5957 116.939 41.3177 116.042C40.4317 115.857 39.5347 115.271 38.6767 114.868C36.2857 113.749 33.5187 113.752 31.1487 112.59C30.5517 112.298 30.5537 112.344 30.0377 112.637C29.9687 111.881 29.9257 111.967 29.3877 111.691C28.8937 111.436 28.6557 111.464 28.0907 111.293C27.1357 110.999 26.8987 110.424 25.8657 110.71Z" fill="#8CA724"/>
<path fill-rule="evenodd" clip-rule="evenodd" d="M187.614 72.7239C186.026 72.7239 185.704 73.4601 184.501 74.4114C182.446 76.0421 182.888 75.1157 181.75 78.0251C180.906 80.177 180.589 78.3122 179.391 82.2024C179.376 82.252 179.337 82.3678 179.319 82.4151L178.722 83.8864C178.013 85.1992 176.36 85.6837 176.36 87.3169C176.36 88.4891 176.687 88.7964 176.295 89.8115C175.563 91.7164 175.671 89.8103 175.815 91.8263C177.406 91.7826 176.42 90.8892 177.987 90.3149C178.599 90.0892 178.714 90.0927 179.212 89.6177C179.483 89.3565 179.392 89.3872 179.707 89.1308C181.366 87.7813 180.512 88.5057 182.032 86.7284L184.53 83.4597C184.989 82.9162 184.875 82.9646 185.459 82.4128L190.2 77.2841C191.404 75.9582 190.997 77.1104 191.79 75.0838L194.13 72.2725C194.155 72.2418 194.194 72.1957 194.219 72.1626L194.807 71.3578C195.067 71.0388 195.012 71.1439 195.242 70.7977C196.769 68.5135 196.034 69.7791 198.148 67.795C198.652 67.3235 198.519 67.3093 198.958 66.8224C199.559 66.1595 199.329 66.5116 199.812 65.6821C200.531 64.4401 203.017 62.8081 203.17 61.2944C203.21 60.8902 203.109 60.4471 202.739 60.0028C201.61 58.6509 200.369 59.3209 199.499 60.3774C198.895 61.1112 199.253 60.6669 198.587 61.2306C197.637 62.0353 197.394 63.347 196.161 65.0144L195.9 65.3512C195.242 66.1406 195.217 65.8499 194.671 66.2576C194.224 66.592 193.662 67.6425 193.221 68.1932C192.239 69.408 192.968 68.8455 191.874 70.4645C190.08 73.1198 189.002 72.7239 187.614 72.7239Z" fill="#8CA724"/>
<path fill-rule="evenodd" clip-rule="evenodd" d="M168.732 110.066C167.945 110.289 168.042 109.897 167.012 110.393C164.98 111.373 161.039 113.378 158.774 112.407C156.215 111.309 157.71 111.229 156.336 110.325C155.325 109.658 151.788 111.334 150.309 112.532L149.022 113.801C148.997 113.834 148.962 113.883 148.938 113.916C148.456 114.616 147.848 116.182 147.941 117.029C148.023 117.783 148.258 118.425 148.66 118.775C148.85 118.946 149.818 119.366 150.083 119.399C151.798 119.615 153.36 117.695 154.325 117.068C154.626 116.871 156.568 116.309 158.169 115.388C160.509 114.046 161.425 114.213 163.561 112.962C164.129 112.631 164.457 112.592 165.086 112.405C165.778 112.2 165.914 112.039 166.843 111.889C169.003 111.541 166.666 112.46 169.913 111.021C170.356 110.825 171.318 110.508 170.644 109.997C170.199 109.662 169.362 109.807 168.86 110C168.829 110.012 168.778 110.053 168.732 110.066Z" fill="#8CA724"/>
<path fill-rule="evenodd" clip-rule="evenodd" d="M233.723 74.8709C232.176 74.8709 228.645 75.6993 227.339 76.7664L226.199 77.7803C225.709 78.4539 225.856 78.5673 225.661 79.5033C225.336 81.0359 224.435 80.9367 223.736 82.1668C224.502 82.2425 224.611 82.4055 225.086 82.2106L229.623 80.3269C230.097 79.9807 229.412 80.3387 230.227 79.9677C231.837 79.2326 233.689 77.5085 234.935 76.7322C236.128 75.9841 235.573 75.925 236.643 75.3176C237.645 74.7504 237.741 74.4739 238.722 74.1288C239.831 73.7389 242.467 72.8183 243.373 72.1187C243.408 72.0939 243.447 72.0537 243.481 72.0313C244.318 71.4251 244.905 71.5562 245.077 70.6629C245.077 70.6593 245.139 70.0023 245.158 69.721C243.83 69.3015 244.917 68.895 242.717 69.8546C241 70.6038 243.261 68.8466 240.389 71.3802C239.528 72.14 235.298 74.7575 234.49 74.9371C233.622 75.1321 234.116 74.8709 233.723 74.8709Z" fill="#8CA724"/>
<path fill-rule="evenodd" clip-rule="evenodd" d="M164.922 124.659C163.11 124.659 163.834 122.781 161.438 123.976C160.331 124.528 160.404 124.176 159.398 124.996C157.955 126.175 156.533 128.056 158.407 129.79C158.582 129.953 158.426 129.881 158.753 130.038C159.799 130.55 160.538 129.506 163.108 129.18C163.716 129.101 163.751 129.055 164.23 128.991C167.855 128.483 167.087 128.175 171.106 128.104C172.624 128.078 172.673 127.807 172.728 127.02C172.104 126.957 171.102 126.665 170.518 126.615C169.706 126.54 166.193 127.49 166.193 125.731C166.193 124.444 167.915 124.879 168.806 124.314L169.746 123.495C170.442 122.885 170.703 123.019 170.911 122.084C170.095 121.539 169.46 122.08 169.46 122.08C166.751 123.029 168.306 122.563 166.41 124.056C166.127 124.28 165.287 124.659 164.922 124.659Z" fill="#8CA724"/>
<path fill-rule="evenodd" clip-rule="evenodd" d="M197.053 120.795C198.019 121.062 197.624 120.633 199.96 120.155L206.162 118.689L209.538 116.887C209.58 116.868 209.625 116.842 209.665 116.822L210.607 116.432C210.649 116.413 210.701 116.395 210.741 116.376L214.426 114.937C215.479 114.59 215.216 115.127 216.644 114.34L217.976 113.557C218.913 113.091 219.501 113.068 219.744 111.995C219.144 110.933 218.334 111.146 217.142 111.711L214.322 113.096C211.856 114.145 210.989 114.695 208.152 115.245C205.383 115.782 202.461 116.705 199.981 118.249C199.007 118.863 197.327 119.405 197.053 120.795Z" fill="#8CA724"/>
<path fill-rule="evenodd" clip-rule="evenodd" d="M138.962 206.205C138.962 206.82 139.62 208.078 139.971 208.446C140.001 208.477 140.043 208.516 140.072 208.546L141.694 209.513C142.023 209.625 143.173 209.587 144.043 209.661C147.218 209.931 148.479 207.069 146.822 205.288C146.473 204.91 146.451 204.994 146.102 204.634C144.732 203.223 145.3 204.196 144.047 203.629C142.761 203.047 143.564 203.204 141.503 203.204C139.973 203.204 138.962 205.18 138.962 206.205Z" fill="#8CA724"/>
<path fill-rule="evenodd" clip-rule="evenodd" d="M72.3376 145.69C73.1616 147.146 74.2006 146.758 77.0486 148.709C78.1196 149.442 81.5646 150.924 82.5146 151.043C84.6066 151.309 86.0137 152.367 86.1367 150.625C87.7657 150.787 86.8317 151.535 88.1337 150.196C86.9577 149.826 86.3467 148.695 85.2277 148.695C84.7367 148.695 83.8217 149.593 82.8387 149.172C82.1877 148.896 82.4127 148.75 81.8837 148.353C81.3557 147.956 81.2096 148.13 80.6906 147.836C80.8206 147.264 80.9777 147.29 81.1767 147.126L78.5107 145.69C78.5867 146.061 79.2037 147.283 77.5417 147.539C76.9157 147.636 76.3387 147.254 75.9257 147.029C74.8887 146.459 74.2596 145.589 73.0656 145.261C72.6236 145.611 72.8816 145.501 72.3376 145.69Z" fill="#8CA724"/>
<path fill-rule="evenodd" clip-rule="evenodd" d="M144.409 163.715C144.409 165.773 145.233 165.858 145.454 166.232C145.464 166.252 145.487 166.311 145.502 166.332L145.626 166.554C146.01 167.098 146.075 167.021 146.633 167.308C149.875 168.983 148.744 168.45 151.123 167.794C151.123 163.429 150.473 164.788 148.636 162.799C148.195 162.319 148.263 162.324 147.616 162.055C145.893 161.339 144.409 163.134 144.409 163.715Z" fill="#8CA724"/>
<path fill-rule="evenodd" clip-rule="evenodd" d="M160.202 198.268C159.487 198.47 159.581 197.833 158.592 199.153C158.171 199.713 157.598 200.111 157.772 200.915C158.221 202.964 161.803 204.103 162.83 201.796C162.849 201.748 162.874 201.697 162.891 201.65C162.91 201.601 162.937 201.547 162.954 201.499C163.07 201.163 163.188 200.921 163.054 200.297C162.848 199.353 161.534 198.118 160.716 198.108C160.045 198.105 160.31 198.233 160.202 198.268Z" fill="#8CA724"/>
<path fill-rule="evenodd" clip-rule="evenodd" d="M129.159 161.997C129.79 163.015 129.711 161.612 130.28 162.809C130.592 163.466 130.517 164.295 130.431 164.789C129.352 164.45 129.685 164.418 129.364 163.705C129.232 163.41 129.124 163.269 128.979 163.072C128.979 166.987 129.823 164.834 130.633 166.729C131.374 168.458 131.498 166.832 132.749 168.269C133.187 168.772 133.81 169.531 134.423 169.725C133.446 167.996 134.259 169.78 134.094 168.379C134.013 167.719 133.477 167.013 133.142 166.729L131.667 165.683C130.727 165.112 131.206 164.949 130.794 163.93C132.083 162.911 133.484 162.213 135.15 162.213L133.504 161.47C133.164 161.446 132.959 161.782 131.52 161.782C131.306 161.086 131.174 161.349 131.157 160.497C130.357 160.517 129.363 161.097 129.159 161.997Z" fill="#8CA724"/>
<path fill-rule="evenodd" clip-rule="evenodd" d="M180.351 109.636L180.586 110.001C181.361 110.949 182.995 110.853 183.657 109.895C185.8 106.783 185.413 109.137 186.34 107.062L185.765 106.236L182.173 106.635C181.578 106.929 181.202 107.244 180.946 107.765C180.794 108.078 180.422 109.286 180.351 109.636Z" fill="#8CA724"/>
<path fill-rule="evenodd" clip-rule="evenodd" d="M137.692 150.195C137.692 152.232 139.929 153.809 140.757 151.673L141.114 150.379C141.115 150.375 141.786 149.589 140.818 148.215C139.878 146.875 137.692 147.135 137.692 150.195Z" fill="#8CA724"/>
<path fill-rule="evenodd" clip-rule="evenodd" d="M141.139 191.83C141.069 192.857 140.797 193.27 141.468 194.012C142.837 195.533 142.688 195.263 144.044 195.263C144.355 195.263 145.02 194.693 145.169 194.428C145.875 193.184 144.882 191.399 142.773 191.399C141.993 191.399 141.792 191.649 141.139 191.83Z" fill="#8CA724"/>
<path fill-rule="evenodd" clip-rule="evenodd" d="M260.046 46.543C259.27 46.0301 259.327 46.4756 258.185 47.1008C258.164 47.1126 258.115 47.135 258.095 47.1457L255.193 48.7504C254.975 48.8651 250.745 50.5939 251.65 51.8418C252.089 52.448 253.4 51.4802 253.875 51.2699C256.68 50.0267 255.912 48.9253 257.865 48.0438C258.344 47.8252 258.676 47.8571 259.137 47.616C259.681 47.3324 259.931 47.0476 260.046 46.543Z" fill="#8CA724"/>
<path fill-rule="evenodd" clip-rule="evenodd" d="M196.145 131.527C196.145 132.396 196.247 132.866 196.712 133.22C197.519 133.829 199.826 133.816 200.319 131.311C199.771 130.968 198.997 130.155 198.12 130.094C197.426 130.045 196.145 130.624 196.145 131.527Z" fill="#8CA724"/>
<path fill-rule="evenodd" clip-rule="evenodd" d="M83.7756 161.784C84.6606 162.217 85.8266 160.927 87.4086 160.927L90.8576 162.214C91.0076 161.836 91.0636 161.519 91.2186 161.142C90.5006 160.914 91.0086 160.887 90.2856 160.74C89.1576 160.513 90.0036 160.914 88.6196 160.34C88.1316 160.14 88.4386 160.245 88.1646 160.208C85.5736 159.859 87.2926 160.487 84.5096 161.151C83.7756 161.327 83.9576 161.192 83.7756 161.784Z" fill="#8CA724"/>
<path fill-rule="evenodd" clip-rule="evenodd" d="M120.807 87.3168C120.73 87.7127 119.559 90.5369 120.444 90.5369C121.036 90.5369 120.583 90.3502 121.354 90.1068C121.479 90.7355 121.33 90.4164 121.717 90.7508C122.173 89.731 122.029 89.562 122.286 88.8506C122.286 88.8506 123.255 87.3121 121.864 87.2116C120.702 87.1242 122.779 87.0485 121.463 87.325L120.807 87.3168Z" fill="#8CA724"/>
<path fill-rule="evenodd" clip-rule="evenodd" d="M131.701 195.693C131.701 196.382 131.701 196.616 132.065 196.978C132.406 197.319 132.878 197.407 133.334 197.407C133.872 196.207 133.78 194.617 132.063 194.617C131.857 195.529 131.701 194.993 131.701 195.693Z" fill="#8CA724"/>
<path fill-rule="evenodd" clip-rule="evenodd" d="M176.175 126.804C175.825 126.804 175.451 128.397 178.535 128.092C178.571 127.559 178.676 127.429 178.514 127.032C178.499 126.997 178.469 126.941 178.453 126.909C178.044 126.128 176.425 125.661 176.175 126.804Z" fill="#8CA724"/>
<path fill-rule="evenodd" clip-rule="evenodd" d="M162.198 84.0978C160.783 84.1344 159.966 86.5132 160.46 86.8169C161.085 87.1998 160.953 86.7815 161.705 85.8739C162.295 85.159 162.371 85.0621 162.198 84.0978Z" fill="#8CA724"/>
<path fill-rule="evenodd" clip-rule="evenodd" d="M124.258 168.223L124.698 168.775C124.733 168.799 124.784 168.818 124.822 168.843L125.19 169.051C125.643 169.299 125.923 169.37 126.435 169.51C126.055 168.843 126.221 168.869 125.708 168.653C125.754 168.549 126.114 167.86 126.121 167.835C126.329 167.056 125.165 167.025 125.165 168.223L124.982 167.15C124.508 167.297 124.258 167.562 124.258 168.223Z" fill="#8CA724"/>
<path fill-rule="evenodd" clip-rule="evenodd" d="M135.15 189.469C135.171 190.619 135.24 190.357 135.877 190.757C137.288 189.873 136.336 189.254 136.238 189.254C135.612 189.252 135.85 189.38 135.15 189.469Z" fill="#8CA724"/>
<path fill-rule="evenodd" clip-rule="evenodd" d="M133.88 155.562C134.698 155.847 134.969 154.743 134.969 154.703C134.969 154.054 134.755 154.11 134.242 154.059C134.178 154.959 134.036 154.767 133.88 155.562Z" fill="#8CA724"/>
<path fill-rule="evenodd" clip-rule="evenodd" d="M172.366 109.636C172.784 110.574 172.296 109.997 173.09 110.493C173.631 109.576 173.58 109.851 173.09 108.992C172.498 109.363 172.732 109.01 172.366 109.636Z" fill="#8CA724"/>
<path fill-rule="evenodd" clip-rule="evenodd" d="M182.442 201.518C183.082 198.719 180.885 197.695 180.441 195.257C179.778 191.603 178.258 190.851 177.735 188.507C177.085 185.581 178.048 183.847 177.391 180.26L174.2 171.948C174.175 171.833 174.141 171.61 174.12 171.493C172.523 162.468 169.949 166.17 167.186 161.853C166.207 160.33 166.067 155.817 165.619 153.554L158.018 151.604C156.235 150.66 154.861 147.055 154.388 144.963C152.013 146.843 152.613 148.866 150.424 148.866C147.962 148.866 148.057 147.14 146.184 146.069L141.835 144.181C139.752 148.834 139.219 147.305 133.246 147.305C132.012 152.762 129.158 150.956 126.142 153.745C125.937 153.935 123.242 157.084 123.151 157.239L116.457 170.41C116.377 170.541 116.248 170.712 116.17 170.852C114.801 173.38 113.451 181.978 109.859 185.257C104.763 189.91 102.946 189.094 96.7827 188.06C92.7277 187.38 91.3617 186.147 87.8587 184.551C78.0387 180.074 76.8827 179.748 66.9687 173.323L51.5537 162.651C49.8277 161.575 49.3547 161.312 47.7357 160.138C42.1657 156.109 30.1927 151.185 26.2457 145.709L22.4647 141.591C22.3507 141.496 22.1867 141.37 22.0677 141.277C21.9487 141.188 21.7867 141.061 21.6667 140.974C19.7927 139.58 16.9977 138.472 14.3177 138.645L11.2147 139.722C11.0797 139.8 10.9227 139.923 10.7917 140.006L7.81272 141.953C5.83772 143.427 4.87572 145.671 3.55772 147.865L2.33372 149.597C1.36472 151.168 0.348712 157.353 0.0697121 160.099C-0.307288 163.756 0.944709 167.67 1.43571 170.355C2.09571 173.962 0.858734 172.164 1.89173 176.007C3.70473 182.761 9.27071 183.059 11.9057 184.521C12.0437 184.598 12.2097 184.709 12.3417 184.789L16.4597 186.952C18.3017 187.37 20.3577 187.154 22.2497 187.136C28.2857 187.075 34.3557 189.717 38.3407 185.061L45.5027 176.348C52.2327 169.78 50.2577 172.164 63.6987 181.874L75.8667 192.482C77.7907 194.479 76.3687 194.235 78.9857 195.822C82.3787 197.876 80.5997 194.544 82.4897 198.707C84.8207 203.838 83.6777 203.531 90.3007 203.531C93.0067 209.576 93.7967 207.106 98.2287 208.217C98.3397 214.006 99.8267 215.034 102.458 218.054C106.125 222.259 103.86 221.814 108.801 224.613C108.801 229.466 109.516 229.537 111.17 232.744C113.285 236.847 114.125 242.478 117.706 245.325L118.999 246.165C119.137 246.256 119.305 246.364 119.441 246.451L122.056 247.68C126.789 247.958 123.625 241.104 127.294 240.514C131.858 239.783 130.535 248.22 139.038 248.343C142.879 248.396 141.477 249.571 144.474 251.941C146.754 251.316 147.528 250.985 148.372 248.734C150.348 243.484 146.744 243.145 150.427 240.307C154.959 236.82 154.568 238.985 157.536 241.19C159.468 242.628 160.747 242.512 162.075 245.196C162.969 247.001 162.586 247.474 164.595 248.465C165.534 248.927 165.075 248.822 166.278 248.822C171.993 248.822 166.549 240.953 166.148 239C165.682 236.709 166.437 237.834 166.637 235.485C166.947 231.818 165.598 232.435 168.26 227.737C170.603 228.384 172.881 230.082 174.867 230.082C176.895 230.082 179.475 222.183 180.214 219.929C181.679 215.446 178.169 213.381 178.169 207.434C178.171 205.561 181.671 204.889 182.442 201.518Z" fill="#8CA724"/>
<path fill-rule="evenodd" clip-rule="evenodd" d="M73.7847 158.236C73.7847 155.775 73.5987 154.929 72.6987 153.274C72.3017 152.543 72.3627 152.903 71.5617 151.493C69.0067 147.002 65.9747 145.15 60.8117 146.101C53.7157 147.407 51.5257 156.818 56.1047 162.733C57.3287 164.311 60.4597 166.339 62.4337 166.979C64.4187 167.62 66.6227 167.099 68.6277 166.206C69.7277 165.713 73.7847 164.518 73.7847 158.236Z" fill="#8CA724"/>
<path fill-rule="evenodd" clip-rule="evenodd" d="M133.042 225.23C132.557 224.653 132.713 224.458 132.058 223.786C131.462 223.174 131.385 223.318 130.936 222.518C129.41 223.383 129.394 223.727 127.743 222.512C126.503 222.959 127.914 223.15 126.585 223.229C125.757 223.279 126.349 222.873 125.368 222.84C125.808 223.853 125.02 225.409 124.607 226.365C122.583 226.479 120.686 224.192 119.099 225.066C119.328 226.095 120.194 226.915 119.409 228.259C117.743 231.104 105.012 228.73 101.986 229.204C101.464 229.285 99.5097 229.794 98.8677 229.984C97.4787 230.397 97.2787 229.835 95.8257 229.784C94.4597 229.734 93.6227 230.096 92.3227 229.991C91.3327 229.911 90.0777 229.704 89.0457 229.454L82.4217 228.921C81.2787 228.843 80.3067 228.887 79.3917 228.702C76.6897 228.155 72.6367 226.637 70.1557 228.229C69.9307 229.818 70.5187 230.149 71.6557 230.214C73.9087 230.347 78.5147 230.272 80.3757 230.858C81.3357 231.161 82.3277 231.057 83.4637 230.968C84.2777 230.903 85.1147 231.239 85.8937 231.338C87.6397 231.554 89.0847 230.778 90.9237 231.058C93.3207 231.418 94.6257 232.418 95.8947 232.176C97.1927 231.929 97.1407 231.553 98.5367 231.756C102.257 232.295 107.708 232.968 110.887 235.299C110.942 238.714 109.818 239.055 108.119 240.623C105.226 243.298 105.433 240.464 100.438 242.185L96.1557 243.934L96.9667 244.505C99.2647 245.803 102.022 249.063 98.4417 250.752C97.9437 250.988 97.6877 250.926 97.1557 251.031C96.1737 251.222 96.9437 251.064 96.1227 251.395C94.1137 252.207 92.9437 250.593 91.5317 251.019C91.9357 251.92 93.2537 252.162 93.9647 252.693C94.4497 253.053 96.0297 254.132 96.2737 254.393C97.1107 255.297 96.8257 257.028 95.8127 257.246C94.5407 257.522 93.9417 256.689 92.8017 257.491C93.5017 258.798 93.5577 257.534 95.0347 257.964C97.7417 258.75 97.0127 259.899 96.6267 261.298C96.2127 262.801 96.8507 262.468 95.9867 263.671C94.5427 265.681 95.9957 265.592 93.5257 266.994C92.0147 267.852 91.3707 268.311 90.2887 269.414C85.1817 274.604 87.6797 271.735 86.5167 277.129L85.5897 282.245C85.3977 283.819 85.5717 283.512 84.8547 284.523L82.5527 288.038C81.4307 289.589 78.6507 296.801 78.7787 298.677C78.9137 300.667 78.9047 302.211 77.8407 303.49L71.5977 308.334C70.0937 308.99 65.4817 311.295 64.5177 312.159C64.4807 312.192 64.4337 312.243 64.3997 312.278L61.5967 314.563C61.6407 315.945 62.0327 316.34 63.1387 316.451C64.2967 316.569 65.3737 314.844 66.2217 314.398C66.9767 314.002 66.7527 314.457 67.5617 313.677C70.4877 310.845 72.9917 309.972 76.0897 307.918C77.2727 307.134 77.4287 307.47 78.6757 306.298C79.5337 305.493 79.8847 305.686 80.9727 304.591C81.9467 303.612 82.0617 303.477 82.7357 302.01C83.6097 300.11 85.0727 298.429 86.6417 297.287C87.2597 296.839 87.2557 297.006 87.8947 296.434C91.5767 293.143 90.5467 294.495 95.1377 293.832C96.6667 293.612 96.9647 293.871 98.3277 294.245C99.3307 294.52 101.105 294.561 101.235 295.991C101.399 297.734 99.8007 299.822 99.0087 301.261C98.9717 301.332 98.8297 301.57 98.7997 301.62L98.5737 301.999C100.462 301.865 99.9327 301.349 101.117 300.091C103.579 297.482 103.131 298.715 105.101 298.307C106.219 298.076 107.167 297.801 108.304 298.06L109.711 298.529C110.34 299.725 109.769 300.285 109.528 301.546C111.454 303.372 111.896 299.561 113.841 298.667C116.678 298.931 115.574 301.174 116.061 302.622C119.569 301.936 116.758 295.915 122.475 296.443C122.696 296.769 123.625 297.848 123.696 298.006C124.033 298.756 123.47 299.125 123.921 300.118C124.428 301.235 124.582 299.812 124.563 302.324C124.552 303.686 124.675 303.186 125.706 303.038L126.215 301.733C126.449 301.095 126.404 301.287 126.654 300.426C126.979 299.294 127.111 298.869 127.552 298.112C128.34 296.747 128.76 294.632 130.101 294.301C131.193 294.853 131.226 295.999 132.299 296.381C133.255 294.19 133.02 292.032 135.375 291.198C137.893 293.049 135.222 296.302 137.118 297.793C137.323 297.877 137.889 297.487 138.059 297.058C138.255 296.552 138.271 295.529 138.198 294.92C137.974 293.081 137.725 294.076 138.102 291.35C139.551 290.446 138.744 290.993 139.495 289.632C139.827 289.027 140.52 288.568 141.121 288.391C143.54 287.677 143.918 290.174 145.262 289.721C146.926 288.453 145.839 287.129 147.704 286.373C150.283 285.328 150.758 282.335 152.366 283.619C152.629 283.83 153.501 285.017 153.651 285.241C154.06 285.856 154.486 286.499 154.75 287.051C155.155 287.888 155.234 288.095 155.675 288.832C156.578 290.354 157.092 294.327 157.66 295.825L158.798 298.367C158.841 298.555 159.004 299.446 159.036 299.647C159.294 301.251 159.024 301.871 159.713 303.281C160.215 304.31 160.357 305.427 161.683 305.205C162.314 303.434 161.688 303.259 161.248 301.949C160.58 299.971 161.552 300.872 159.96 299.347C160.108 300.299 160.316 300.135 159.981 300.803C159.195 299.666 159.784 299.921 159.716 298.827C159.601 296.966 158.382 294.333 158.21 292.505L157.826 293.532C157.82 291.852 157.497 291.835 157.347 290.243C157.162 288.288 157.126 288.957 156.486 287.617C155.776 286.119 156.176 286.006 155.839 284.46C155.629 283.487 155.296 282.809 155.068 281.735C153.807 275.833 155.359 273.901 154.824 272.453C154.399 271.309 154.24 270.82 153.16 270.785C153.098 268.326 152.905 265.193 153.616 262.959C154.417 260.439 153.849 259.128 156.633 257.446C157.571 256.878 157.751 257.154 158.883 257.037C159.863 256.936 159.93 256.589 160.861 256.427C161.701 256.602 162.424 259.2 164.602 258.587L165.598 258.689C165.314 257.361 166.828 258.561 164.246 256.654C163.361 256.004 162.929 255.218 162.044 254.553C160.787 253.612 160.898 253.739 159.881 252.189C158.982 250.817 159.152 250.712 158.13 249.557C157.302 248.617 156.676 247.84 156.536 246.546C156.057 241.991 157.247 241.194 157.436 240.49C157.727 239.417 156.685 237.85 156.904 234.904C157.909 234.509 157.694 234.897 158.077 234.003C157.333 233.36 157.162 233.673 156.244 233.106L155.903 229.616C155.723 229.602 155.037 229.591 154.928 229.554C153.798 229.158 154.608 229.584 154.293 228.905C153.789 227.808 154.069 227.973 152.834 227.002C152.33 226.604 152.714 227.059 152.281 226.601C151.79 226.074 151.989 225.564 152.101 225.006C150.455 225.824 151.022 225.109 149.546 224.925C149.094 224.868 148.796 224.872 148.374 224.517L147.678 223.478C145.681 224.504 144.418 223.148 142.187 223.341C141.427 224.97 142.801 225.205 139.841 225.955C136.335 226.843 136.549 225.686 134.637 225.765C133.893 225.798 133.584 225.876 133.042 225.23Z" fill="#097609"/>
<path fill-rule="evenodd" clip-rule="evenodd" d="M96.9398 212.601C97.2298 211.878 96.9398 210.748 96.4298 210.074C95.6188 209.004 91.1418 207.55 90.7998 211.821C90.3748 217.161 95.2568 216.822 96.9398 212.601Z" fill="#097609"/>
<path fill-rule="evenodd" clip-rule="evenodd" d="M162.661 289.131L164.051 292.456C164.074 292.512 164.103 292.579 164.121 292.637L164.335 293.41C164.402 293.688 164.478 293.967 164.54 294.173C165.581 297.524 165.107 298.157 165.982 299.47C167.232 301.343 168.423 302.547 169.024 305.226L171.194 312.077C171.654 313.777 171.119 314.86 172.697 314.872C172.687 312.384 171.37 310.272 171.137 309.479C170.467 307.254 171.541 306.178 168.165 301.312C167.589 300.481 167.657 298.702 165.537 295.087C164.632 293.541 163.588 290.112 162.661 289.131Z" fill="#097609"/>
<path fill-rule="evenodd" clip-rule="evenodd" d="M166.707 317.327C165.854 316.296 165.327 316.081 165.11 315.093C164.561 312.62 164.793 314.108 163.802 312.647C163.475 315.081 164.36 314.243 164.419 316.171C164.467 317.709 163.898 317.911 164.527 319.619C164.991 320.866 165.374 320.628 165.963 322.091C166.249 322.807 166.782 324.301 167.895 323.457C168.768 322.797 167.215 317.939 166.707 317.327Z" fill="#097609"/>
<path fill-rule="evenodd" clip-rule="evenodd" d="M216.465 110.866C216.289 112.322 214.537 114.411 213.707 116.167C212.777 118.134 211.563 119.231 209.946 120.384C208.191 121.635 206.979 122.788 205.516 123.733C203.82 124.827 201.825 125.369 199.986 126.173C198.191 126.955 196.838 128.227 195.324 129.241C192.653 131.03 192.866 130.282 191.051 133.203C189.517 135.669 184.638 138.066 182.019 140.093C179.729 141.868 176.133 141.994 173.809 143.283L165.778 146.69C163.906 147.363 161.674 147.99 159.987 148.823C157.854 149.878 157.385 151.305 154.788 151.003C152.988 150.793 150.113 150.966 148.72 151.547C143.148 153.87 138.75 150.289 137.443 155.913L138.249 156.427C140.152 157.852 142.65 157.382 144.641 156.488L152.196 154.478C153.974 153.896 156.269 152.368 159.038 151.628C161.685 150.921 164.924 150.665 166.972 149.683C173.414 146.595 176.961 148.307 181.051 144.023C182.36 142.651 182.046 142.464 183.808 142.245C187.621 141.765 185.914 137.833 194.34 139.732C198.03 148.889 187.396 142.309 186.47 146.347C188.009 147.842 190.265 146.624 192.484 146.278C196.939 145.584 195.916 145.578 198.356 147.797C198.545 154.444 194.752 150.656 193.138 154.234C194.628 156.574 195.99 153.269 198.756 155.258C199.899 156.084 199.771 156.614 200.402 157.983C200.918 159.101 201.584 160.136 201.663 161.205C201.905 164.573 199.778 164.773 197.72 166.08C195.387 167.559 193.126 167.106 193.11 170.254C194.771 171.623 197.167 168.248 199.631 168.141C203.235 167.989 203.774 168.367 205.402 172.006C208.202 178.269 206.018 178.447 201.425 181.377C199.54 182.582 199.325 182.159 200.24 184.682C201.799 184.636 202.804 183.526 203.967 182.433C208.885 177.807 212.209 183.286 212.159 185.462C212.069 189.236 211.841 188.154 214.415 189.872C214.785 192.44 213.03 199.24 217.262 197.39C218.485 196.855 218.836 195.195 220.129 195.03C220.751 194.95 223.625 195.999 224.238 196.164C226.327 196.728 226.407 196.772 227.295 198.488C229.508 202.771 231.003 199.515 232.927 203.933C233.747 205.818 233.666 206.989 234.164 208.797C235.069 207.405 234.775 204.147 235.983 201.931C237.012 200.042 239.474 199.426 241.274 199.912C242.422 202.956 240.842 202.389 243.895 203.912C245.957 204.943 245.615 205.424 245.757 207.87C245.873 209.8 246.217 212.561 245.994 214.206C245.834 215.404 245.588 215.806 245.789 216.905C246.024 218.161 247.031 219.946 245.2 220.234C242.361 220.679 240.93 219.139 238.592 222.97C235.877 227.418 238.267 235.1 239.973 236.252C241.393 237.216 242.643 236.525 244.123 237.598C245.803 238.814 249.22 241.905 251.187 240.687C252.519 239.423 250.962 237.06 250.92 235.455C250.848 232.604 250.66 232.261 250.019 229.406C249.528 227.213 249.766 225.164 249.288 222.916C248.695 220.113 248.97 219.081 249.54 216.638C252.287 216.74 251.46 217.847 253.699 218.151C255.077 215.637 256.118 205.2 255.899 201.891C255.55 196.604 255.092 199.629 256.577 194.235C257.103 192.316 257.158 192.34 257.88 191.067C258.753 189.522 258.419 189.236 258.98 187.648C260.138 184.366 261.31 185.107 260.595 180.598C259.33 172.626 260.672 171.884 261.136 168.256C261.34 166.677 261.179 165.753 261.961 164.617C262.635 163.643 265.838 161.468 267.133 161.225C267.442 162.484 268.052 163.527 268.509 165.017C268.915 166.345 269.513 168.124 269.974 169.175C270.807 168.743 270.634 168.372 271.185 167.462C273.502 167.812 273.597 168.919 275.192 170.053L276.178 170.807C277.125 172.027 276.017 171.129 276.708 172.473L278.398 172.494C277.627 170.141 277.668 173.309 276.86 170.279C278.943 171.002 280.355 171 278.476 168.124C276.8 165.557 274.297 164.655 276.089 156.674C277.045 152.409 273.971 149.416 272.565 146.169C271.704 144.173 271.389 142.399 270.819 140.431C270.271 138.536 269.744 136.857 268.984 135.174L266.652 130.121C266.056 128.712 266.388 129.265 265.457 127.995L259.951 115.362C259.061 112.97 260.512 112.112 259.285 109.097C257.97 105.864 257.215 107.519 255.539 106.161C254.323 105.173 255.09 104.745 254.771 103.116C254.452 101.484 254.3 102.171 252.973 101.406C251.889 100.783 251.99 100.471 251.21 99.8974L249.963 99.0241C247.828 96.6004 250.012 97.508 246.953 96.9703C245.646 96.7411 245.583 96.2636 245.369 95.3088C243.9 95.3242 244.126 95.3088 242.746 95.0772L239.888 94.3268C239.191 94.2335 239.836 94.3587 239.06 94.5324C236.631 95.076 239.079 94.3067 236.954 94.1779C236.592 94.6294 236.336 95.0335 235.977 95.6054C234.403 95.4105 235.812 95.1883 233.994 95.1706C233.221 96.5591 233.339 96.2282 232.49 97.2882C230.559 96.8486 229.627 95.388 229.123 93.6249C227.652 88.4939 226.093 79.5708 226.205 74.1302C226.236 72.744 226.817 69.453 227.166 68.0172C227.722 65.7483 227.869 63.9202 227.173 61.461C226.705 59.8114 225.18 57.8344 224.211 57.1915C222.999 56.3915 220.388 56.0559 219.163 56.2639C216.817 56.6656 212.779 60.3668 211.321 62.2031C210.282 63.5137 209.731 65.434 208.805 67.06C207.868 68.7144 206.969 70.162 208.385 72.3623C209.643 74.311 210.023 74.2578 211.042 76.659C214.594 85.035 213.411 80.2751 212.625 88.4773C212.38 91.0452 213.031 92.377 213.69 94.4899C216.086 92.533 215.814 86.4176 216.581 85.6058C218.989 84.3496 220.296 86.0218 220.4 88.9867C220.59 94.6104 222.513 108.883 216.465 110.866Z" fill="#02734A"/>
<path fill-rule="evenodd" clip-rule="evenodd" d="M162.57 182.032C163.237 183.339 163.118 182.06 163.482 183.748C164.15 186.841 162.684 185.536 165.188 187.101C166.811 188.116 166.009 188.661 166.477 191.103C166.912 193.369 166.68 193.839 166.648 195.857C166.628 196.882 166.764 199.405 166.865 200.784C166.981 202.4 166.679 203.484 166.76 205.573C166.888 208.815 167.291 212.223 167.291 215.727C167.286 221.047 168.67 219.736 166.833 225.19C164.395 232.414 166.157 235.7 169.276 241.664C171.753 246.396 169.194 246.879 168.099 249.331C168.983 251.236 169.542 251.391 170.266 252.676C172.276 256.256 165.917 255.72 165.82 262.632C165.77 266.241 166.605 268.598 168.206 270.689C170.297 273.421 170.395 274.628 172.378 276.697C173.288 277.645 173.671 278.494 174.573 279.575C178.601 284.403 175.988 283.208 184.961 282.899C189.572 282.739 195.857 279.636 198.456 276.99C201.285 274.108 204.028 264.471 203.797 261.56C203.317 255.646 202.055 250.045 197.586 246.923L194.596 244.966C192.833 243.588 192.719 244.735 191.039 244.524C189.52 244.331 189.011 243.575 187.268 243.458C182.685 243.155 185.602 243.886 181.664 239.155C178.854 235.784 181.641 236.046 181.398 231.701C181.131 226.924 182.327 225.986 176.028 221.965C173.341 220.249 172.551 211.446 172.289 207.537C172.158 205.629 172.296 206.948 171.909 205.782C170.631 201.923 170.641 195.986 170.114 191.501C169.897 189.633 169.738 188.156 170.07 186.827C170.576 184.804 170.771 184.597 171.693 183.245C174.341 179.369 170.995 175.128 167.041 174.872C164.612 174.712 161.095 179.151 162.57 182.032Z" fill="#02734A"/>
<path fill-rule="evenodd" clip-rule="evenodd" d="M216.465 110.866C216.471 108.85 216.196 105.911 213.352 106.81C210.641 107.667 210.995 112.882 216.465 110.866Z" fill="#02734A"/>
<path fill-rule="evenodd" clip-rule="evenodd" d="M212.702 102.659C212.702 105.045 213.537 105.131 214.354 105.443C215.825 103.297 214.919 100.027 214.272 98.1354C214.247 98.0622 214.196 97.9334 214.152 97.8376C213.741 98.3623 214.115 97.3449 213.528 98.7936L212.702 102.659Z" fill="#02734A"/>
<path fill-rule="evenodd" clip-rule="evenodd" d="M112.921 122.03C112.557 121.66 112.495 121.108 111.744 120.576L107.496 117.623C105.751 116.495 106.316 116.223 105.117 114.591C104.24 113.4 100.895 111.352 99.6828 110.378C99.2188 110.002 98.8828 109.576 98.3058 109.156C97.8598 108.835 97.4928 108.557 97.0178 108.127L91.4788 104.202C89.6078 102.963 87.8188 100.826 86.2248 99.0383L83.7088 96.3783C79.3118 92.1194 75.3428 87.1054 71.4298 82.2155C67.0728 76.7702 66.8788 74.3051 63.2028 70.5922C62.7498 70.1337 62.4068 69.6846 62.0658 69.1954C61.8468 68.8822 60.9598 67.7088 60.8688 67.5433C60.5678 67.0092 60.6828 66.7457 60.1308 65.8629C59.0128 64.0715 58.6018 64.4496 59.2398 61.9739C59.7038 60.1801 59.2968 58.9346 59.6898 58.0849C60.2428 56.8914 61.3258 56.2603 60.3628 54.6674C59.8388 53.8036 59.5098 53.7208 59.7858 52.6443C60.2568 50.8127 62.0418 50.5999 60.5998 47.1387C59.7618 45.1203 60.1538 44.3404 59.8798 42.6907C59.6828 41.5173 59.4098 41.9297 59.2178 40.6062C59.1248 39.9882 59.1658 39.1113 59.0938 38.5299C58.7798 35.9715 58.1828 36.4631 56.6478 36.6156C54.5018 36.8306 54.9008 36.0826 54.4918 34.3266C54.1538 32.8589 52.9158 33.0515 53.0788 30.603C53.1628 29.3504 53.6388 27.8366 52.5948 27.2209C52.4358 28.4901 52.1898 30.5345 51.0208 31.1868C50.1618 31.6642 46.9448 30.9847 46.8788 30.8807C46.4028 29.1838 47.2688 27.9229 46.2558 27.0059L44.7728 27.7929C44.6718 28.3235 44.7468 27.8981 44.7308 28.5421L44.5078 30.7708C43.3288 31.338 42.7448 30.993 41.7868 30.7968L40.4678 26.2236C40.3478 26.1645 39.5388 25.8998 39.4308 25.888C38.9168 25.8383 38.9088 25.3928 38.8038 26.4682C38.7018 27.5235 39.3388 28.3873 39.2818 29.4922C39.2088 30.8937 36.9988 33.7109 35.9238 31.8899C35.7908 31.6642 35.7288 31.52 35.6378 31.2636C35.4638 30.7684 35.4428 30.4529 35.3358 30.0133C35.0678 28.8931 35.0578 28.7501 34.4328 27.9666C33.9958 27.9725 33.6038 28.1273 33.4278 28.5409L34.5828 28.6414C34.3738 28.9628 34.3098 29.0561 33.9328 29.3835C33.8988 29.3539 33.8538 29.2984 33.8378 29.283L33.3498 28.8482C33.4128 30.6479 33.3638 30.0689 33.8968 31.5661C34.1208 32.1959 34.1428 32.0742 34.0198 32.8932C33.8268 34.1871 32.8958 34.4235 31.9838 34.882C30.9998 35.3771 31.1558 35.3629 30.3638 34.9742C29.6378 34.6196 28.0888 33.224 27.3698 35.012C27.1838 35.4764 27.3838 38.7036 27.5478 39.1728C27.8458 40.0224 28.4718 40.2576 28.3688 41.021C28.2528 41.9014 27.9768 41.3672 27.1348 41.9616C27.0568 43.0216 26.5988 43.5758 26.9678 44.6642C27.5008 46.2323 27.8268 44.975 28.5108 46.9425C28.8988 48.0711 28.8678 48.8002 28.8758 49.8933C28.8788 51.2676 28.9658 51.1648 28.4108 52.2C26.4938 52.2496 25.2778 49.7184 22.1238 49.5766C23.0778 51.5678 22.6728 50.9686 22.4958 52.5769C22.2238 55.0325 26.4388 56.4861 27.2448 57.741C29.1918 60.7721 27.3728 61.5402 28.2608 63.1036C28.6968 63.8718 30.9778 65.096 31.8678 65.9847C33.0938 67.2054 34.2128 67.6461 35.5788 68.5561C36.2508 69.0039 36.6708 69.4861 37.3868 69.9883C37.9598 70.3925 38.6778 70.6548 39.3128 71.0885C40.1428 71.6604 40.3518 72.5715 40.9738 72.9119C42.3508 73.6634 41.7508 71.5907 42.7978 73.4046C43.9428 75.3923 43.2488 73.654 44.8628 74.0309C45.7178 74.2306 45.6488 75.0803 45.9778 75.9607C46.7478 74.3807 45.8768 75.0709 47.5528 74.8782C48.5588 74.7624 48.5998 74.1456 49.7928 73.5772L51.1708 74.2838C51.2248 74.3736 51.2828 74.3595 51.3408 74.3866C51.1108 70.8604 52.4328 73.3125 53.5138 71.6238C53.8958 71.0294 53.6928 70.4704 54.3068 69.8725C54.9528 69.2485 55.0028 69.9292 55.5638 69.3348C56.3388 67.9108 55.0468 68.0586 56.1078 66.8059C57.2938 65.4552 59.1608 68.7132 59.7578 69.5711L62.7378 74.6726C63.6928 76.4676 64.8268 77.3255 66.0548 78.7471C66.6438 79.4302 67.0718 80.0364 67.7398 80.97C69.2558 83.084 71.0478 84.6699 72.6978 86.9825L82.9348 98.477C83.4988 99.0502 84.1428 99.7486 84.7508 100.337C85.3178 100.888 86.0278 101.384 86.6698 101.931L99.3048 113.705L105.181 117.143C106.568 118.079 107.624 118.674 109.064 119.769L111.058 121.069C111.29 121.247 112.633 121.997 112.921 122.03Z" fill="#8CA724"/>
<path fill-rule="evenodd" clip-rule="evenodd" d="M151.082 146.033C152.07 148.962 155.334 149.275 157.549 149.236C159.37 149.207 159.28 150.689 160.583 151.075C161.918 151.473 163.399 149.326 161.735 148.302C160.769 147.707 159.777 148.286 158.568 146.982C157.497 145.828 157.312 145.062 156.007 143.962C153.13 141.534 149.977 142.765 151.082 146.033Z" fill="#8CA724"/>
<path fill-rule="evenodd" clip-rule="evenodd" d="M227.864 165.694C226.122 165.957 223.72 164.192 222.149 165.998C221.41 167.758 226.387 172.698 228.103 173.375C229.04 173.745 229.622 174.413 230.749 174.228L227.864 165.694Z" fill="#8CA724"/>
<path fill-rule="evenodd" clip-rule="evenodd" d="M30.8157 119.378C30.6407 118.988 29.8587 118.077 29.4647 117.802C28.8987 117.4 28.3757 117.066 27.5167 117.553C24.3407 119.351 26.4257 124.803 29.4717 123.364C30.7707 122.751 31.3697 120.605 30.8157 119.378Z" fill="#8CA724"/>
<path fill-rule="evenodd" clip-rule="evenodd" d="M196.998 160.909C194.508 163.315 197.14 164.199 197.793 164.616C198.653 165.167 199.037 165.44 199.996 165.781C202.916 166.827 203.814 168.239 204.426 167.381C205.236 166.246 203.59 165.579 203.111 165.465C200.329 164.795 199.725 161.29 196.998 160.909Z" fill="#8CA724"/>
<path fill-rule="evenodd" clip-rule="evenodd" d="M117.06 122.388C116.542 122.316 115.702 122.45 115.072 122.368C114.198 122.254 114.069 121.904 113.445 122.189C114.011 123.534 115.474 126.117 116.646 126.473L118.448 125.622C119.282 123.962 118.469 122.58 117.06 122.388Z" fill="#8CA724"/>
<path fill-rule="evenodd" clip-rule="evenodd" d="M128.242 129.652C127.789 128.573 126.699 129.009 125.747 129.062C124.466 129.132 124.046 128.47 124.965 130.208C125.574 131.362 125.826 132.372 126.957 132.12C127.808 131.928 128.727 130.793 128.242 129.652Z" fill="#8CA724"/>
<path fill-rule="evenodd" clip-rule="evenodd" d="M89.8067 45.0801C89.1617 44.1135 87.3008 44.8 85.6328 43.1516C84.5218 42.0573 84.3517 39.6324 83.1437 38.1411C82.4857 37.3281 82.1598 37.2028 81.5598 36.1275L77.2668 28.7666C73.6788 24.4486 69.0408 25.8726 68.7028 31.3037C68.4558 35.3156 68.5288 32.6036 67.3008 36.0837C66.7588 37.6211 65.8187 42.3055 66.1427 43.9173C66.5987 46.1826 66.7617 47.8489 67.5357 50.1083C68.4307 52.7199 68.5098 53.2056 70.1668 54.6874C72.8508 57.0828 75.4218 58.151 79.0548 56.1374L87.8847 49.6557C88.9537 48.7399 89.9587 47.7709 90.0497 46.6282C90.1007 46.0278 90.2277 45.71 89.8067 45.0801Z" fill="#8CA724"/>
<path fill-rule="evenodd" clip-rule="evenodd" d="M101.597 52.9585C101.205 52.1904 100.881 51.3266 100.205 51.0253C99.7566 50.8267 98.7666 50.8492 98.2126 51.0654C96.1916 51.8584 95.8506 56.0345 98.0696 56.8676C100.451 57.761 102.561 54.841 101.597 52.9585Z" fill="#8CA724"/>
<path fill-rule="evenodd" clip-rule="evenodd" d="M84.3416 67.9558C84.6966 70.6642 88.7556 69.661 88.2296 66.8721C87.6026 63.5279 83.9446 64.9058 84.3416 67.9558Z" fill="#8CA724"/>
<path fill-rule="evenodd" clip-rule="evenodd" d="M85.7928 28.9923C85.6488 29.4957 85.5998 30.2095 86.1378 30.7566C86.4878 31.1076 86.3038 30.9315 86.7408 31.0213C87.9568 31.2778 88.9968 30.746 89.1898 29.1389C89.5988 25.7013 86.5048 26.5025 85.7928 28.9923Z" fill="#8CA724"/>
<path fill-rule="evenodd" clip-rule="evenodd" d="M119.42 37.9674C118.578 37.4403 117.571 37.5231 116.818 38.251C116.208 38.8407 115.665 40.0141 116.283 40.9252C117.608 42.8668 120.054 40.3344 119.42 37.9674Z" fill="#8CA724"/>
<path fill-rule="evenodd" clip-rule="evenodd" d="M52.4646 23.4701C52.2556 24.4072 52.9196 25.9375 53.9846 25.6858C54.8076 25.492 55.5436 24.2985 55.6396 23.4914C55.9736 20.6919 53.0726 20.7605 52.4646 23.4701Z" fill="#8CA724"/>
<path fill-rule="evenodd" clip-rule="evenodd" d="M66.2546 24.2725C65.1496 24.3966 65.2106 23.8104 64.3626 24.2299L63.9237 24.5537C63.2927 25.1186 62.7286 26.2081 63.3626 27.2835C63.8996 28.1922 66.8496 28.633 66.2546 24.2725Z" fill="#8CA724"/>
<path fill-rule="evenodd" clip-rule="evenodd" d="M108.387 35.0427C105.223 36.5352 108.824 39.948 110.053 36.9819C110.666 35.513 109.397 34.5676 108.387 35.0427Z" fill="#8CA724"/>
<path fill-rule="evenodd" clip-rule="evenodd" d="M184.515 156.486C184.629 157.33 185.055 157.924 185.937 157.01C185.932 157.093 185.92 157.316 185.93 157.348C186.123 157.836 185.894 157.433 186.138 157.625C186.192 156.426 185.034 156.091 184.515 156.486Z" fill="#8CA724"/>
</svg>
