<svg width="356" height="350" viewBox="0 0 356 350" fill="none" xmlns="http://www.w3.org/2000/svg">
<path fill-rule="evenodd" clip-rule="evenodd" d="M39.4698 240.139C39.4967 239.092 39.6278 238.883 39.8186 238.074H40.8541C40.9942 239.762 41.8339 240.087 39.4698 240.139ZM13.2499 215.354C12.597 216.243 13.0183 216.286 10.4893 215.698C10.4893 213.646 12.4102 214.215 13.2499 215.354ZM14.2724 215.322C14.9511 215.382 14.7692 215.218 15.6636 215.012C16.3671 216.057 16.0988 216.006 17.7345 216.043C16.9047 214.808 17.3887 215.485 16.1455 214.875C14.6858 214.162 15.8822 214.548 14.6301 213.634C13.5023 214.228 13.9484 213.663 13.2499 214.665C13.3075 214.728 13.379 214.756 13.4128 214.864L14.2724 215.322ZM119.52 197.453C119.102 197.453 118.952 197.966 118.175 196.003C117.841 195.156 117.717 194.73 118.086 193.996C118.656 192.861 120.496 192.751 121.935 192.632C123.151 195.165 122.938 197.453 119.52 197.453ZM115.38 187.467C114.138 186.564 115.244 187.316 114.616 186.51L113.976 185.773C112.27 183.749 112.953 179.207 114.689 179.207C120.277 179.207 120.217 186.182 115.38 187.467ZM108.514 160.997C110.757 159.145 113.331 159.647 115.658 158.487C117.017 157.811 115.934 157.894 117.771 157.496C120.978 156.801 128.598 155.564 125.833 161.054L123.86 164.949C123.459 165.569 123.497 165.334 123.084 165.894C119.713 170.458 122.625 169.941 122.625 172.67C122.625 175.495 122.575 175.066 118.706 176.327C117.724 176.651 117.304 176.718 116.269 176.997C114.544 177.46 114.235 178.721 112.198 176.876C110.968 175.761 107.443 162.951 107.443 162.341L108.514 160.997ZM127.11 126.193C127.11 127.87 126.824 128.01 126.923 129.197C127.097 131.226 127.682 130.125 126.908 130.835C126.458 131.253 127.159 130.816 126.42 131.015C125.67 129.206 126.893 131.21 126.241 129.738L125.482 128.875C123.97 127.38 124.013 127.871 123.993 126.144L121.935 126.538C122.13 126.01 122.099 126.133 122.288 125.834L123.068 125.091C123.114 125.077 123.219 125.068 123.269 125.06L125.73 124.476C126.439 125.944 125.503 125.763 127.11 126.193ZM120.208 118.965C120.329 117.541 120.646 117.531 121.591 116.901C121.396 119.232 120.978 117.151 122.631 118.927C124.075 120.477 125.41 119.256 125.73 123.095L124.2 123.661C124.131 123.691 124.039 123.736 123.964 123.758C122.948 124.107 123.957 124.189 122.544 123.9C117.57 122.883 121.933 118.967 121.935 118.965H120.208ZM108.134 158.211C111.487 158.211 113.307 150.809 120.075 149.119C122.108 148.616 124.029 147.36 125.612 146.032C126.75 145.079 126.68 144.564 126.439 143.078C125.96 140.153 126.348 137.845 126.081 134.794C125.99 133.757 123.423 129.595 122.406 127.79L122.138 127.368C122.098 127.308 122.039 127.225 121.996 127.163C120.171 124.405 120.538 126.555 119.827 123.821C119.345 121.974 118.14 121.883 118.14 116.901C118.225 116.93 118.331 116.93 118.365 117.037L118.81 117.273C120.044 117.689 120.058 117.232 120.554 116.555L118.744 116.298C118.7 116.297 118.507 117.158 117.512 115.5C117.002 114.652 116.842 113.627 116.079 112.859C116.05 112.831 115.969 112.77 115.939 112.745C115.91 112.721 115.83 112.663 115.803 112.638C115.772 112.614 115.694 112.563 115.663 112.54C115.633 112.518 115.554 112.462 115.524 112.436C114.374 111.467 114.052 110.387 112.768 109.523C111.159 108.436 110.879 108.092 109.859 106.572C107.437 107.733 105.101 106.099 102.536 108.215C101.518 109.059 101.383 109.705 100.807 110.962C99.8426 113.057 99.9807 120.916 99.9589 123.046C99.9092 127.466 100.215 127.395 100.292 130.868C100.352 133.569 101.176 135.541 101.677 138.147C101.778 138.678 101.833 139.106 101.905 139.985C102.101 142.371 102.075 141.038 102.484 142.505L103.228 145.554C103.836 147.521 103.771 147.029 103.9 148.765C104.131 151.826 104.763 150.386 105.428 153.682C105.628 154.667 105.679 154.71 106.004 155.521C106.41 156.546 106.893 158.211 108.134 158.211ZM98.1295 110.357V111.393H96.7472C96.776 110.351 97.1338 110.442 98.1295 110.357ZM104.339 103.129C104.996 103.129 104.573 102.443 105.718 102.443C108.786 102.443 107.732 104.592 106.063 105.195C106.44 104.485 106.54 104.379 106.752 103.473L105.596 104.064C104.576 104.689 104.82 104.968 104.764 105.09L103.994 106.225C103.478 105.882 103.234 105.581 102.469 105.338C101.415 105.002 101.556 105.335 100.542 104.849C100.723 104.176 100.155 104.752 100.802 104.156C101.891 103.16 100.135 104.083 101.061 104.08L102.268 104.506C102.238 104.418 102.157 104.315 102.134 104.268C102.113 104.226 102.03 104.098 102.009 104.049C101.153 101.924 101.195 104.505 101.954 103.414C102.749 102.268 103.342 103.129 104.339 103.129ZM127.11 126.193C127.636 124.923 127.026 125.964 126.915 124.298C126.805 122.62 126.761 120.731 125.625 119.412L125.147 118.857C125.089 118.773 124.926 118.529 124.864 118.447C124.435 117.881 124.749 118.203 124.229 117.703L122.369 116.12C121.729 115.582 122.137 115.84 121.386 115.379C119.171 114.021 119.542 113.493 117.744 112.129C117.685 112.085 117.599 112.026 117.542 111.983L112.349 106.151C111.803 105.45 112.164 105.78 111.846 105.274L111.063 104.336C110.517 103.773 110.806 104.179 110.267 103.409C108.953 101.539 107.389 99.773 104.445 100.102C101.588 100.417 101.066 100.803 99.2971 102.575L96.3646 105.847C95.3878 106.822 94.562 107.758 94.0165 109.011C93.2056 110.876 93.2384 111.815 92.9353 114.126C92.4514 117.85 91.1337 120.14 91.8154 125.261C92.3014 128.942 92.1225 132.392 92.8062 135.978L96.7611 158.229C96.8814 159.959 96.5375 159.595 96.2374 160.795C95.6323 163.163 95.994 163.299 94.2858 165.045C91.0552 168.353 86.7694 167.522 81.1122 170.145C80.2596 170.54 81.4978 169.965 80.6303 170.355L79.6972 170.8C78.8475 171.372 79.243 171.507 78.1182 171.979L74.5279 173.905C73.1496 174.586 71.5219 174.926 70.1884 175.774L65.7206 177.854C62.3271 179.256 61.6216 178.849 58.3215 179.769C55.0323 180.686 51.9757 181.253 51.8902 185.057C57.456 185.057 55.242 184.816 59.0111 183.554C62.1006 182.521 62.3709 181.773 64.6047 180.875C67.0691 179.877 71.9681 176.723 73.8859 176.02C74.6183 175.753 74.984 175.56 75.8485 175.221L81.2831 172.388C82.2341 171.838 81.9668 171.942 83.1642 171.508C85.4577 170.677 84.9121 169.974 87.4024 169.86L91.6157 169.267C92.2855 169.178 93.4491 169.167 94.1497 169.144C96.3408 169.061 98.1632 167.232 99.78 169.293C100.667 170.429 101.217 174.341 101.397 175.803L101.686 176.967C101.944 178.244 102.255 180.789 101.02 181.743C99.0536 183.263 98.5041 180.932 97.7826 184.024C99.934 184.024 102.381 183.302 103.376 184.297C104.54 185.455 103.573 187.806 103.398 189.285C103.03 192.324 103.796 192.252 101.312 193.401C98.9026 194.517 98.2954 194.106 97.4339 195.729C102.064 195.729 105.487 194.508 104.883 199.368C104.566 201.94 105.531 201.784 106.223 203.487C106.46 204.07 106.62 205.259 106.686 205.779C107.056 208.63 109.21 209.962 107.644 212.454C106.865 213.691 106.943 212.615 106.742 214.316C106.684 214.812 106.74 216.504 106.804 217.025C107.058 219.098 107.297 219.558 106.496 221.655C105.169 225.131 107.108 224.668 104.826 230.643C104.321 231.97 103.469 233.332 103.302 234.69C103.007 237.129 105.059 237.61 106.206 238.961C107.02 239.92 107.293 240.63 107.051 242.119C106.635 244.646 105.384 243.178 104.634 248.358C104.48 249.419 104.355 249.406 103.881 250.357C103.506 251.107 102.358 253.634 102.282 254.299C102.076 256.033 102.957 256.652 102.957 259.073C102.055 259.548 101.108 259.858 100.279 260.531C99.2086 261.395 98.2646 263.061 97.892 264.348C97.725 264.926 97.7608 265.472 97.6207 266.139C97.251 267.879 97.092 267.468 97.092 269.744L98.5538 270.694C99.5057 271.332 99.1699 270.549 99.5057 271.81C101.818 271.81 101.283 271.907 102.556 270.723C103.562 269.784 103.794 269.815 104.346 268.379C105.309 265.88 104.743 264.675 106.448 262.554C107.115 261.727 107.33 260.909 108.332 260.301C109.087 259.85 110.315 259.543 111.544 259.77C112.74 259.992 113.145 260.789 113.913 261.567C116.919 264.615 116.773 265.686 116.525 270.164C116.235 275.347 118.598 279.378 114.884 283.709C113.806 284.967 112.631 286.813 110.892 286.956C110.086 285.281 110.203 284.549 110.203 282.137C108.896 281.446 108.728 281.255 107.69 280.169C106.645 279.075 106.686 278.432 105.732 277.645C104.32 276.486 101.779 275.297 98.8737 275.642C96.6349 275.908 94.9903 275.512 93.1271 276.806C92.6899 277.111 92.2556 277.373 91.8492 277.596C89.8996 278.652 88.0374 279.344 85.8502 280.215C80.5289 282.345 80.3828 280.649 76.7826 278.303C76.1556 277.891 74.4206 277.362 73.6167 276.983C72.3159 276.368 71.7793 276.43 71.3361 274.783C70.0353 269.973 72.7014 271.205 72.4093 268.205C72.2592 266.669 71.9035 266.169 71.9035 264.578C72.8952 263.918 73.7727 263.285 75.5544 263.689C76.8333 263.978 77.977 264.701 78.3825 263.139C79.0403 260.618 75.5842 259.072 82.9446 259.072L84.4183 255.377C84.8992 254.248 85.8432 252.618 86.0509 251.842C83.9035 248.645 84.7313 247.79 85.9774 244.539C86.0907 244.245 86.1702 244.025 86.2616 243.791L86.7425 242.191C86.8747 241.05 86.3312 236.97 86.0807 236.295C84.9151 233.142 85.717 234.427 87.0864 232.566C86.6988 231.12 86.8529 231.955 86.0956 231.143C85.2162 230.205 82.1814 225.118 82.0224 224.162C81.6746 222.05 83.0281 222.872 82.253 221.204C81.1778 220.763 81.0993 221.613 79.4766 220.902C77.7932 220.167 78.6806 219.462 76.5153 218.669L76.0194 218.476C74.673 217.835 73.6693 217.502 73.6296 215.697C72.4798 216.467 71.9184 216.492 70.0333 216.597C68.4235 216.682 68.5189 216.087 67.4199 215.354C65.828 217.723 64.6673 216.525 62.5895 216.043C61.8919 218.652 60.6855 217.485 58.5938 218.227C55.5212 219.317 56.6481 219.435 55.3433 221.894C51.6308 221.812 52.5808 220.214 52.5808 224.304C51.7471 224.706 51.4589 224.503 50.7315 224.866C49.6673 225.4 50.1065 225.14 49.8392 226.041C49.5669 226.951 49.6116 227.526 48.923 228.226C46.3781 230.793 48.2662 231.64 46.0263 234.978C41.7544 234.978 40.239 232.696 37.6623 229.899C35.7007 227.768 33.5046 225.145 31.3393 223.468L24.2959 217.416C23.3837 216.77 22.6394 216.313 21.6715 215.556L16.8401 211.43C16.7884 211.379 16.7169 211.308 16.6652 211.258L14.5427 209.599C13.5162 209.156 12.758 209.518 11.3737 209.71C9.37837 209.988 9.45886 209.322 7.96929 210.058C7.12464 210.473 6.38929 211.314 5.65891 211.909L4.7606 212.74C3.8772 213.883 3.7818 215.382 4.63341 216.36C5.58339 217.449 7.7149 218.356 8.88449 218.7C8.9153 218.707 10.5718 218.968 10.5748 218.968C12.5443 218.916 10.6086 219.063 11.964 218.577C18.4579 216.225 18.4281 218.151 21.5513 221.877C23.2784 223.934 25.9167 225.016 26.6371 227.817C27.2293 230.113 26.7295 229.449 28.4914 230.443C30.0892 231.346 30.9965 233.944 32.1293 235.42C32.8915 236.415 33.1956 236.706 33.7858 237.894C34.07 238.459 34.3036 239.034 34.6176 239.476C37.4914 243.554 33.3635 242.69 36.9607 246.085C38.8508 247.864 38.6789 247.562 40.1664 249.776C42.9021 253.837 42.2671 263.356 44.1055 266.5C44.8905 267.848 44.6053 267.272 45.1558 268.891C45.7511 270.641 46.6514 272.01 48.1916 272.767C49.9654 273.637 50.8886 272.735 52.3175 271.887L52.9724 271.507C54.7064 270.186 53.3679 268.731 56.034 268.023C56.8339 269.682 56.3132 271.455 58.4179 271.462C60.1559 271.465 61.6693 270.343 62.2466 272.497C62.5785 273.402 61.3265 274.356 61.2142 275.6C60.4192 284.502 64.5133 280.764 67.9495 282.644C68.8995 283.163 69.2702 284.429 70.2271 285.191C71.3361 286.075 71.6153 286.931 72.2195 288.034C73.5133 290.397 76.6763 289.79 77.4713 292.433C78.8426 297.005 73.399 302.837 81.3566 305.754C86.4772 307.634 85.726 306.124 88.7011 305.072C91.2649 304.168 92.049 305.926 93.9698 306.597C96.1838 307.375 97.6386 306.626 99.3169 305.695C101.16 304.68 100.836 304.429 102.153 303.707C104.527 302.403 106.895 303.465 108.182 300.081C109.388 296.916 109.091 297.999 111.046 295.712C111.521 295.151 111.471 294.7 111.652 293.908C112.312 291.028 114.592 289.795 115.818 288.425C116.672 287.471 119.164 283.558 119.436 282.392C120.173 279.175 120.912 272.92 125.583 274.34C126.912 274.741 126.97 275.688 128.481 276.295C129.949 276.884 130.881 276.361 131.82 277.783L133.322 280.759C135.329 280.759 136.771 280.342 136.647 282.315C136.453 285.458 137.224 288.696 136.324 291.67C135.842 293.259 135.047 292.926 135.047 295.562C135.891 295.214 135.324 295.328 136.428 295.562L136.439 293.443L138.499 293.84C137.966 291.56 139.758 283.766 140.964 281.499C142.631 278.38 143.618 280.699 146.187 279.847C152.743 277.674 149.04 274.642 156.64 276.083C159.103 276.552 160.917 276.441 162.182 278.127C163.989 280.535 164.013 284.75 165.944 286.763C166.389 287.223 166.003 286.696 166.492 287.251L167.134 288.332C167.164 286.977 167.04 287.523 167.48 286.607H166.097L167.134 285.922C166.539 283.381 165.721 281.426 166.095 278.716C166.315 277.14 166.451 276.432 167.175 275.292C168.554 273.114 169.771 273.225 171.496 274.682C172.134 275.223 172.519 275.432 173.06 275.878C174.208 276.822 174.531 277.962 175.66 279.136C177.072 280.598 179.225 281.514 180.943 282.471C181.718 282.907 181.861 283.073 183.005 283.167C183.278 279.869 184.305 281.016 183.503 275.438C183.139 272.906 182.66 269.858 182.66 267.331C184.391 267.331 184.891 268.047 185.637 267.225C187.171 265.536 185.779 262.578 185.807 261.513C185.834 260.513 186.346 260.051 186.455 258.724C188.18 258.724 187.918 258.449 188.993 259.292C190.21 260.24 190.378 261.649 190.769 263.026C190.999 263.832 191.122 264.568 191.286 265.264H191.976C191.976 263.288 191.581 259.3 191.042 257.593C189.087 251.408 191.001 252.082 190.648 247.66C190.533 246.213 190.694 246.013 190.94 244.957H194.739C195.305 246.026 196.273 248.102 197.153 248.74C197.111 246.936 196.671 246.863 196.283 245.476L195.545 242.051L196.46 235.662C198.787 234.547 198.7 237.59 201.291 236.348C202.609 235.036 200.343 228.885 199.888 227.045C199.496 225.475 199.764 225.39 200.048 224.46C200.777 222.057 199.622 219.495 201.431 218.209C203.144 216.992 204.772 219.087 206.466 219.48C206.774 218.664 206.261 219.028 207.156 218.79C206.364 215.839 203.97 219.041 205.177 211.996C205.65 209.249 206.488 207.39 207.847 205.367C210.767 205.367 211.989 206.193 214.057 205.708C214.057 202.108 212.755 204.424 211.838 202.033C211.169 200.297 212.755 199.119 213.716 198.48C216.487 198.541 214.934 199.511 217.853 199.511C217.853 195.137 215.641 194.872 220.198 191.507C221.638 190.44 223.046 191.329 224.398 191.952C227.221 193.244 225.799 192.628 228.892 192.628L225.248 186.972C223.803 185.645 222.461 185.347 221.657 183.345C221.267 182.378 221.344 183.334 221.63 181.975C222.285 178.835 221.321 176.061 224.082 175.092C225.959 174.435 230.569 174.83 231.654 173.35C231.019 170.975 228.468 171.501 226.249 170.802C224.536 170.26 225.41 170.122 225.187 168.756L223.015 159.593C222.698 158.103 223.264 158.423 222.903 156.634C222.673 155.504 222.269 155.078 221.911 153.804C221.297 151.621 221.432 149.439 221.724 147.261C222.009 145.152 223.111 143.824 225.304 143.239C228.696 142.338 230.85 144.338 232.665 146.18L235.102 148.223C237.541 149.815 238.593 152.367 240.543 154.501C241.951 156.04 242.849 158.606 245.146 161.268L245.463 161.637C245.51 161.693 245.576 161.771 245.621 161.829C249.537 166.675 246.752 164.628 251.596 167.224C252.112 167.498 251.727 167.278 252.204 167.648C252.994 168.258 254.876 168.77 255.74 169.63L261.196 175.546C261.707 176.052 261.716 176.011 262.233 176.578C263.166 177.607 263.974 178.656 265.125 179.374C264.928 178.327 265.056 178.48 264.435 177.793L263.244 176.566C262.897 176.166 262.931 176.256 262.769 176.087L262.246 175.572C261.291 174.553 260.359 174.021 259.919 172.69C259.473 171.338 259.045 170.471 257.783 169.658C256.105 168.57 254.854 168.065 253.733 166.467C252.592 164.833 252.771 165.986 251.396 164.672C250.572 163.883 250.476 163.298 249.524 162.406C248.128 161.111 246.428 159.924 245.596 158.065C244.384 155.373 243.358 154.381 242.742 152.648C242.136 150.938 242.138 151.388 241.078 150.178L237.614 145.373C232.421 141.425 233.035 140.728 225.856 136.449C224.025 135.359 222.72 134.226 220.703 133.326C218.285 132.247 215.799 128.431 216.344 125.68C216.935 122.716 218.452 123.325 217.037 119.776C214.957 114.55 215.08 120.041 214.397 110.013C214.165 106.593 212.722 106.956 211.3 104.841C211.418 103.429 211.645 102.968 211.645 101.056L209.736 99.8464C209.589 99.6919 209.359 99.3531 209.299 99.242L209.058 97.811C209.71 94.0282 211.095 96.3101 207.392 94.9781C205.464 94.2859 206.584 91.7462 204.997 91.1674C202.927 90.4119 201.985 91.9451 201.985 87.9767C200.484 88.6921 198.955 88.6888 198.272 87.2045C197.784 86.1324 198.487 86.4046 197.174 85.5281C195.113 84.156 193.474 86.0213 190.883 84.9437L188.161 83.5472C187.709 83.3117 187.89 83.2828 187.148 83.1561C187.007 84.8515 186.417 84.7426 184.755 84.8959C183.257 85.037 182.625 85.3559 180.989 85.1681C178.671 84.9037 176.799 85.3892 176.108 87.9767C173.186 87.9767 174.738 87.0035 171.967 86.9435C174.373 89.2165 173.261 91.133 170.562 92.4272C168.442 93.4449 163.673 92.4639 162.651 93.4816C161.791 94.3415 164.885 97.49 157.476 101.401C157.68 103.84 158.597 104.987 154.606 107.142L148.947 110.445C144.804 113.663 143.575 112.417 141.068 114.289L137.463 117.233C138.439 117.462 139.644 117.786 140.623 117.835C142.913 117.95 140.919 117.231 142.985 118.61C143.303 117.409 144.351 116.793 145.498 116.598C148.797 116.027 146.217 117.512 148.682 117.092C149.907 116.881 151.027 116.058 152.644 116.545L153.542 116.717C153.824 116.69 154.421 116.35 155.061 116.202C158.539 121.386 155.153 120.891 154.506 123.036L154.173 124.262C152.851 127.019 153.764 127.549 150.896 128.915C150.826 128.953 150.736 128.997 150.666 129.032C150.597 129.067 150.51 129.117 150.441 129.151C150.374 129.188 150.285 129.237 150.218 129.272L144.796 134.878C139.297 140.357 140.817 137.165 137.312 135.974C135.453 135.345 132.943 135.409 131.738 133.619C130.342 131.54 129.889 131.611 128.457 128.975C128.42 128.907 128.365 128.824 128.33 128.76C127.823 127.821 127.839 127.029 127.11 126.193Z" fill="#FFAC02"/>
<path opacity="0.74" fill-rule="evenodd" clip-rule="evenodd" d="M31.8818 300.038C31.8818 296.433 34.1366 293.038 29.8587 292.071C28.1882 291.692 26.8199 291.767 25.4565 292.94L24.9577 293.473C24.7709 293.682 24.5145 293.987 24.3416 294.235C23.4005 295.575 23.3041 296.995 24.116 298.492C26.643 303.156 24.8394 301.611 27.5145 303.017C28.1783 303.369 28.6801 303.613 28.9345 304.359C29.6738 306.557 27.9527 304.9 29.2773 306.114C29.9918 306.772 32.2267 306.445 32.2267 308.3C32.2267 309.925 31.5261 310.584 32.64 311.656C34.4953 313.444 33.9945 310.921 37.859 315.417C40.865 318.921 38.3797 317.886 37.069 320.709C36.12 322.762 37.1624 321.751 35.4165 323.532C32.017 326.993 35.4373 327.975 36.3664 328.951C36.0822 330.17 36.0514 330.171 35.4721 331.16C34.9315 332.09 34.7437 332.199 34.6414 333.429C35.3201 333.787 35.6579 334.12 36.7103 334.12C37.3602 334.12 40.7765 330.169 42.1409 335.585C42.5274 337.12 42.3337 337.884 43.544 338.657C45.3764 339.829 44.8279 338.384 46.5202 340.521C47.8746 342.23 47.7325 341.347 49.4764 341.347C53.173 341.347 53.2655 344.026 54.3079 344.787C55.5261 344.463 55.4039 344.143 56.3241 343.359C60.289 339.996 58.708 343.921 61.553 344.064C62.7335 344.123 62.3956 343.811 63.9647 343.792C65.965 343.763 64.2529 344.347 65.6938 343.756C65.1174 341.602 63.9677 343.637 63.9677 341.69C63.9677 339.657 67.2827 337.909 67.7736 337.223C68.9352 335.585 68.1134 335.181 68.3291 334.257C68.335 334.225 68.7792 333.434 68.9124 333.198C69.5742 332.025 69.4132 331.894 69.2204 330.624C68.5089 325.987 69.4907 328.417 69.4907 325.166C66.9488 324.489 68.812 323.482 65.9621 320.422C64.5162 318.87 63.8176 318.316 62.2406 317.946C58.8541 317.154 61.1843 316.007 58.5003 316.594C57.45 316.823 51.8246 316.11 51.6904 316.074C50.6798 315.81 50.1373 315.185 49.228 314.741C44.657 312.509 43.4884 314.276 39.9845 307.786C39.5334 306.953 38.7752 305.974 38.0786 305.554C36.1021 304.359 36.9885 305.69 36.2373 303.607C34.8769 299.841 33.757 300.937 31.8818 300.038Z" fill="#FFAC02"/>
<path opacity="0.74" fill-rule="evenodd" clip-rule="evenodd" d="M68.0506 300.096L66.6276 298.764C65.6885 298.006 64.9969 297.485 63.9684 296.944C63.9684 294.797 63.8502 293.157 62.3934 292.318C61.3887 291.736 61.1671 291.949 59.9031 291.702C56.9866 291.134 59.2205 290.004 56.8087 288.955C56.0654 288.63 55.2556 288.543 54.4099 288.744C52.2516 289.258 51.8909 291.242 51.8909 293.156C51.8909 294.874 54.1376 293.953 55.34 295.909C55.8905 296.805 55.5835 296.81 56.5712 297.782C59.1787 300.338 60.9475 298.678 63.238 300.078C64.2745 300.714 64.3301 301.282 64.8608 302.246L67.4076 313.819C67.5557 319.044 70.4533 316.336 71.936 318.619C74.0565 321.894 70.5229 321.096 70.5229 324.138C70.5229 324.303 70.9631 324.814 71.1698 325.227C72.2102 327.293 71.7243 326.939 71.5097 328.166C71.2155 329.84 71.611 330.492 73.0827 331.57C75.9456 333.666 74.2612 333.37 75.7687 334.74C76.5825 335.481 76.669 335.236 77.7283 335.539C81.1039 336.506 79.2228 337.741 83.9032 336.458C87.6763 335.424 87.1526 337.155 90.4001 333.987C91.0768 333.335 90.2997 333.955 91.1334 333.337C95.3517 330.219 93.0652 330.605 93.3325 326.929C93.414 325.793 93.9864 325.373 93.9864 324.139C93.9864 324.124 93.1447 322.354 93.0443 321.978C92.4332 319.7 92.4242 319.415 89.939 316.813C87.718 314.489 88.3729 315.252 86.3686 314.519C82.6332 313.151 84.9953 314.5 82.2526 314.5C80.1818 314.5 82.4762 313.562 79.9621 309.901C78.6256 307.957 77.3427 308.446 73.8866 304.945C70.6302 301.639 69.881 302.243 68.0506 300.096Z" fill="#FFDE17"/>
<path fill-rule="evenodd" clip-rule="evenodd" d="M252.854 291.408C250.738 291.408 248.672 290.976 247.482 289.849C243.394 285.983 243.321 282.682 245.508 277.582C246.472 275.331 248.596 273.716 250.873 272.843C255.918 270.907 255.853 273.27 258.371 273.813C259.879 274.14 259.716 273.809 260.667 274.994C263.58 278.653 263.472 281.7 261.634 285.58C261.12 286.657 260.521 287.909 259.819 288.657C258.765 289.765 254.866 291.408 252.854 291.408Z" fill="#FFAC02"/>
<path fill-rule="evenodd" clip-rule="evenodd" d="M259.86 224.644C259.942 225.99 259.603 224.627 259.603 226.369C259.603 228.449 261.982 231.187 264.091 231.187H265.813C271.031 231.187 272.183 221.204 263.743 221.204C260.796 221.204 262.783 222.925 259.259 222.925L259.86 224.644Z" fill="#FFAC02"/>
<path fill-rule="evenodd" clip-rule="evenodd" d="M265.641 179.551L269.997 185.017C270.047 185.066 270.121 185.135 270.173 185.187C270.342 185.355 270.614 185.644 270.683 185.708C270.734 185.759 270.807 185.831 270.857 185.881L271.92 186.884C272.595 187.639 272.695 187.97 273.485 188.767L280.253 195.783C280.255 195.783 280.689 196.333 280.711 196.356C280.757 196.411 280.825 196.49 280.871 196.545L282.527 198.682C283.633 200.51 282.975 199.119 284.956 201.101C285.849 201.993 292.074 206.479 293.073 206.748C291.102 203.809 291.196 204.64 289.908 203.02C289.382 202.353 289.059 201.642 288.497 200.984L283.209 195.933C278.312 192.586 278.962 191.433 274.34 187.571C271.308 185.038 272.481 185.872 269.959 183.333C269.422 182.79 269.753 183.079 269.07 182.501L265.641 179.551Z" fill="#FFAC02"/>
<path fill-rule="evenodd" clip-rule="evenodd" d="M135.391 299.696C135.909 295.667 135.452 298.579 135.391 295.909C134.131 296.83 135.195 295.68 134.595 297.18L134.407 297.682C133.966 298.798 134.011 297.212 134.011 298.662C134.011 300.301 133.925 300.551 135.736 301.761C136.818 301.038 137.114 301.19 137.46 299.696C135.973 299.377 137.063 299.556 135.391 299.696Z" fill="#FFAC02"/>
<path fill-rule="evenodd" clip-rule="evenodd" d="M244.077 207.435L243.524 205.991C243.14 204.69 241.511 204.127 240.282 203.306V205.371C241.445 205.68 242.965 206.847 244.077 207.435Z" fill="#FFAC02"/>
<path fill-rule="evenodd" clip-rule="evenodd" d="M14.4624 230.465C14.9016 224.586 17.0709 226.821 16.7439 224.136L20.4753 222.616C20.1484 227.011 17.7565 229.131 14.4624 230.465ZM188.814 125.059C191.791 127.5 191.791 127.104 188.814 129.544C187.824 126.971 188.177 128.426 188.814 125.059ZM159.768 46.5504C138.708 45.5872 148.94 45.2061 133.346 36.8671C129.559 34.8407 126.006 30.8656 121.677 30.8656C118.668 30.8656 114.663 32.191 114.663 36.4716C114.663 42.0676 117.673 43.8985 117.673 48.8079C117.673 65.1237 99.1443 62.7629 90.7733 56.4159C88.3397 54.5717 87.6471 52.8597 85.2403 53.9817C82.8743 55.0805 78.5109 64.0428 89.4546 69.1699L97.6289 73.4772C97.6289 80.4841 97.6974 87.5366 93.9432 91.7761C77.9733 109.803 82.3307 109.203 69.5228 109.302C60.2505 109.378 58.5642 114.797 58.9428 123.154C59.1107 126.765 58.75 127.757 61.2015 132.154C63.5466 136.352 65.4456 138.042 65.5649 144.122C60.7046 145.388 61.9358 146.643 55.6347 147.585C43.8195 149.365 36.1541 149.953 28.4916 159.82C28.8334 160.398 30.9242 164.462 31.1259 164.72C35.0351 169.745 42.5933 165.681 48.959 170.553C54.0378 174.446 54.5406 180.688 54.5406 187.854C54.5406 198.008 53.8629 203.223 46.6993 210.475L41.7178 216.115C36.8884 220.731 24.2306 220.566 19.4727 220.701C13.577 220.872 8.44946 222.714 8.44946 230.466C8.44946 239.22 24.8536 236.085 31.0335 229.95C34.2928 226.707 36.5446 227.751 41.223 226.772C48.638 225.225 51.9888 223.739 60.5526 223.739C67.0107 223.739 77.9892 247.939 80.5927 254.016L69.7573 264.316C65.2369 267.564 60.5297 272.579 57.5456 277.566C58.5592 279.928 58.284 278.578 58.5493 282.05C64.0504 279.202 62.2568 286.082 73.1657 274.859C73.6805 274.329 75.5009 272.68 75.962 272.38C94.4341 260.237 90.976 269 103 273.792C122.031 281.378 112.54 284.105 112.049 294.214C111.862 298.069 110.652 298.37 110.652 303.357C110.652 307.039 112.747 308.009 114.661 311.206C122.514 309.156 121.695 305.217 124.655 297.721C125.794 294.841 126.265 291.699 128.461 289.646C134.94 283.578 138.163 287.327 143.233 290.441C148.625 293.754 158.954 294.644 159.314 303.244C159.772 314.189 150.279 326.108 159.313 329.63C161.601 330.523 160.229 330.031 162.757 330.268C168.667 320.389 166.617 322.462 167.371 311.779C167.996 302.87 170.765 296.772 179.263 298.228C184.77 299.169 184.823 299.639 186.151 305.21C187.476 310.763 188.075 309.856 191.9 312.232C197.35 315.618 197.556 325.025 203.839 326.901C206.485 321.313 205.227 323.241 206.106 315.983C206.779 310.447 208.85 305.916 210.591 300.819C211.936 296.877 213.489 287.657 216.867 287.657C221.862 287.657 223.756 286.66 225.88 292.226C226.106 292.824 226.839 295.168 226.886 295.39C227.453 297.947 227.084 295.479 227.168 297.609C227.335 301.951 226.882 307.84 231.897 307.84C237.482 307.84 238.74 300.394 240.902 295.492C247.93 279.546 245.001 273.429 251.465 266.961C254.972 263.449 259.523 262.034 259.951 256.258C264.463 255.838 261.436 256.493 264.237 254.327C269.755 250.056 272.046 248.902 274.581 241.233C277.449 232.547 275.698 227.117 278.227 217.283C280.481 208.501 282.878 213.616 285.426 197.301C286.041 193.36 286.978 189.798 288.006 186.732C289.874 181.157 292.354 170.031 292.384 164.493C292.407 160.707 291.008 155.72 291.158 153.14C291.429 148.388 294.02 148.311 294.02 143.001C294.02 139.698 288.008 127.726 288.008 122.816C288.008 118.557 290.593 119.531 291.017 113.846L287.129 111.468C284.396 109.487 285.965 111.752 284.374 107.824C279.771 96.4789 278.738 102.256 277.127 96.1834C276.264 92.9371 277.569 91.4706 273.952 90.4085C272.01 89.8419 272.146 90.4541 269.65 89.5564C265.496 88.0599 265.603 86.2479 263.97 82.4417C262.499 79.021 261.66 76.5113 257.864 75.8158C247.219 73.8594 249.528 76.0169 240.941 68.9655C231.252 61.0054 218.002 61.2664 209.126 54.1084C201.024 47.5725 193.79 42.0321 183.197 48.1313C180.012 49.96 179.628 51.0499 174.784 51.0499C170.486 51.0499 171.537 50.6555 169.3 49.3356L167.379 48.1236C165.671 47.307 161.876 46.6448 159.768 46.5504Z" fill="#FFB700"/>
<path fill-rule="evenodd" clip-rule="evenodd" d="M259.192 59.0967C257.687 59.0967 258.189 58.078 256.711 59.7444C255.687 60.8976 255.407 59.8555 253.958 59.5033C254.143 60.3321 254.085 61.0543 253.494 61.6453C252.715 62.4252 254.012 61.0332 253.285 61.8286C251.894 63.3529 253.17 63.1396 250.08 63.1396C249.93 63.7295 249.516 64.2717 249.21 64.8605C248.575 66.077 249.212 67.8012 247.751 68.5967C247.145 68.9222 246.2 68.7389 246.2 69.6055C246.2 70.7587 246.975 70.7642 246.975 71.6263C246.975 73.0373 246.452 72.9884 246.254 73.905C246.091 74.6671 246.275 74.5527 246.007 75.2681C245.864 75.6525 245.651 75.8214 245.564 76.3613C245.484 76.8746 245.588 78.3744 245.611 79.3099C245.64 80.4808 246.006 81.1097 246.006 82.1329C246.006 82.6006 245.539 83.1005 245.552 83.9171C245.571 85.057 245.77 84.8814 245.38 85.9269C244.894 87.23 244.126 88.0499 244.848 89.3998C245.362 90.3563 245.108 90.6285 245.662 91.1685L245.977 91.4507C246.362 91.915 246.795 93.5737 246.889 94.1514C247 94.8502 245.067 98.0365 248.138 98.3021C248.768 97.6788 250.429 94.4225 251.274 98.2654C251.332 98.5231 249.743 103.179 252.598 105.175C253.829 104.875 254.073 103.66 255.313 104.14C255.822 104.335 256.269 104.598 256.552 105.097C257.426 106.647 257.344 108.294 258.303 109.735C258.652 110.264 258.923 110.412 259.223 111.001C260.193 112.883 261.569 114.37 262.551 116.222C262.928 116.937 263.094 116.879 263.384 117.578L264.814 122.554C264.867 123.177 264.814 124.119 264.814 124.777C265.313 124.501 265.803 124.509 266.046 124.027C266.367 123.391 265.782 122.979 265.782 122.35C265.782 121.113 266.671 119.534 266.752 118.512C268.75 118.512 268.703 119.187 270.297 119.464C271.066 119.602 271.062 119.322 271.553 119.772C272.122 120.302 272.57 123.758 272.57 124.976L272.875 124.954C272.889 124.957 272.945 124.964 272.96 124.967C273.306 124.991 273.056 125.715 273.503 124.753C274.183 123.275 273.425 119.116 275.478 119.116C276.848 119.116 277.071 120.329 278.191 120.329C278.933 120.329 279.312 118.916 280.906 118.916C281.637 118.916 282.108 121.358 282.765 122.84C282.995 123.366 283.035 123.258 283.174 123.826C284.261 128.261 286.343 126.574 286.065 124.809L285.351 122.77C284.971 121.136 283.861 120.111 284.572 118.707C285.438 117.005 286.461 117.154 287.206 115.781C287.973 114.363 288.672 113.66 290.795 113.66C291.325 113.66 295.492 114.042 294.713 111.416L293.729 108.783C292.514 106.488 293.945 106.578 292.868 104.021C292.483 103.111 292.547 102.1 292.203 101.075C291.85 100.022 291.36 99.2631 292.416 98.3743C293.622 97.3588 295.209 97.2655 295.253 95.2713C294.464 95.0513 295.207 95.1591 294.566 94.9769C293.385 94.6303 293.052 94.978 291.954 94.0726C291.71 93.8704 291.576 93.7404 291.285 93.5426C289.369 92.2394 289.823 91.0729 289.823 88.8043C289.823 87.6133 290.406 87.1489 290.406 86.1768C290.406 85.2658 289.634 85.5614 290.278 84.4504C290.617 83.8682 290.921 83.3549 290.986 82.5395C289.637 81.5985 287.307 81.1563 287.356 79.1288C287.385 77.97 287.865 78.1167 288.076 77.2846C289.38 77.2846 289.738 77.7456 290.869 78.0123C291.512 78.1645 291.752 78.06 292.402 78.2489C293.591 78.5988 292.715 78.3978 293.895 78.2944V77.89C293.055 77.6878 292.455 77.4723 291.585 77.2668C291 77.129 289.641 76.8202 289.283 76.4247C288.684 75.7592 288.903 74.8382 289.46 74.2816C290.034 73.7094 289.782 74.0505 290.551 73.7994C291.453 73.505 290.956 73.8627 291.375 73.0406C290.663 71.933 290.306 72.7795 289.857 71.1875L289.104 68.3345C288.896 67.0102 288.71 66.9769 287.694 66.1659C284.473 63.594 284.643 66.2914 282.172 64.2428C280.994 63.2718 280.849 61.4576 276.873 60.8765L274.265 60.4132C272.371 60.2966 273.427 60.9098 270.903 59.8211C270.056 59.4589 270.03 59.2834 269.342 58.8234C268.226 58.0746 266.009 58.0846 265.201 58.0846C264.36 58.0846 262.607 57.698 262.292 56.7703L261.908 56.6537C261.878 57.9402 260.402 59.0967 259.192 59.0967Z" fill="#FFE600"/>
<path fill-rule="evenodd" clip-rule="evenodd" d="M197.959 249.777C195.776 249.777 196.504 248.333 194.36 250.692C192.872 252.328 192.468 250.847 190.367 250.349C190.636 251.524 190.551 252.546 189.695 253.385C188.566 254.49 190.445 252.519 189.388 253.648C187.373 255.803 189.224 255.503 184.744 255.503C184.524 256.34 183.925 257.106 183.482 257.942C182.566 259.665 183.488 262.111 181.368 263.235C180.488 263.699 179.119 263.437 179.119 264.667C179.119 266.302 180.244 266.309 180.244 267.531C180.244 269.527 179.482 269.461 179.195 270.759C178.959 271.839 179.228 271.679 178.84 272.69C178.63 273.237 178.322 273.476 178.198 274.241C178.079 274.967 178.232 277.093 178.265 278.422C178.307 280.079 178.839 280.97 178.839 282.421C178.839 283.083 178.16 283.789 178.177 284.944C178.207 286.565 178.496 286.313 177.931 287.794C177.226 289.645 176.112 290.802 177.158 292.717C177.903 294.072 177.538 294.456 178.339 295.223L178.797 295.624C179.352 296.281 179.982 298.629 180.117 299.446C180.28 300.439 177.475 304.954 181.93 305.332C182.844 304.449 185.25 299.835 186.477 305.277C186.561 305.646 184.257 312.244 188.397 315.07C190.18 314.644 190.536 312.924 192.335 313.603C193.07 313.879 193.722 314.253 194.13 314.958C195.402 317.154 195.278 319.489 196.671 321.533C197.177 322.28 197.571 322.491 198.005 323.323C199.409 325.992 201.408 328.1 202.831 330.727C203.378 331.736 203.618 331.651 204.039 332.643L206.113 339.693C206.191 340.579 206.113 341.914 206.113 342.845C206.837 342.454 207.547 342.466 207.899 341.784C208.365 340.88 207.518 340.297 207.518 339.409C207.518 337.652 208.806 335.417 208.925 333.968C211.82 333.968 211.751 334.923 214.064 335.319C215.179 335.512 215.175 335.114 215.885 335.757C216.711 336.504 217.362 341.401 217.362 343.131L217.802 343.1C217.823 343.102 217.906 343.113 217.927 343.114C218.429 343.152 218.067 344.175 218.71 342.812C219.702 340.718 218.601 334.827 221.577 334.827C223.564 334.827 223.888 336.545 225.512 336.545C226.587 336.545 227.137 334.539 229.45 334.539C230.511 334.539 231.194 338 232.144 340.1C232.482 340.849 232.537 340.695 232.738 341.498C234.315 347.785 237.333 345.39 236.93 342.893L235.894 340.005C235.343 337.689 233.735 336.234 234.767 334.245C236.02 331.833 237.505 332.045 238.584 330.1C239.698 328.094 240.711 327.094 243.789 327.094C244.561 327.094 250.605 327.638 249.474 323.916L248.049 320.18C246.287 316.926 248.357 317.059 246.798 313.436C246.242 312.147 246.333 310.715 245.833 309.262C245.321 307.768 244.61 306.693 246.139 305.435C247.892 303.999 250.194 303.863 250.256 301.037C249.114 300.724 250.191 300.88 249.262 300.617C247.549 300.129 247.065 300.62 245.476 299.341C245.119 299.054 244.924 298.869 244.505 298.589C241.725 296.744 242.383 295.089 242.383 291.873C242.383 290.186 243.227 289.533 243.227 288.152C243.227 286.863 242.11 287.277 243.044 285.705C243.535 284.88 243.976 284.151 244.071 282.998C242.115 281.662 238.736 281.039 238.807 278.163C238.847 276.524 239.541 276.733 239.851 275.552C241.739 275.552 242.26 276.206 243.901 276.582C244.833 276.796 245.178 276.65 246.123 276.92C247.85 277.411 246.576 277.129 248.288 276.983V276.409C247.071 276.121 246.198 275.815 244.937 275.528C244.087 275.33 242.12 274.893 241.598 274.33C240.731 273.392 241.047 272.081 241.857 271.296C242.688 270.485 242.325 270.968 243.439 270.613C244.746 270.196 244.026 270.704 244.632 269.538C243.602 267.974 243.083 269.169 242.432 266.911L241.34 262.869C241.041 260.99 240.77 260.947 239.295 259.795C234.623 256.151 234.871 259.973 231.283 257.073C229.578 255.693 229.368 253.124 223.599 252.298L219.817 251.645C217.072 251.482 218.602 252.347 214.94 250.808C213.715 250.294 213.677 250.046 212.678 249.393C211.059 248.334 207.843 248.347 206.672 248.347C205.454 248.347 202.911 247.796 202.454 246.487L201.899 246.319C201.855 248.139 199.713 249.777 197.959 249.777Z" fill="#FEE500"/>
<path fill-rule="evenodd" clip-rule="evenodd" d="M153.642 2.48356L155.947 5.90093C156.299 6.49642 156.356 6.5353 156.73 7.19745C157.379 8.36175 157.84 8.35286 158.311 9.51273L161.311 14.5966C163.482 17.174 162.337 17.8162 163.614 20.187C164.016 20.9314 164.658 22.2679 164.848 23.1667C164.294 23.8766 163.706 24.3543 162.906 24.8076C160.268 26.2963 159.243 25.9219 157.823 23.1222C155.547 18.6328 152.965 20.1192 152.942 21.9179C152.916 23.6755 154.618 24.9464 154.618 26.7051C154.618 27.1029 154.044 27.5939 153.806 29.6114C153.437 32.7366 154.983 35.8907 155.992 38.777C156.612 40.5535 157.065 41.0823 156.084 42.7588C155.737 43.3543 155.64 43.5153 155.076 43.812C151.689 45.5907 152.457 44.1175 149.017 44.1175C148.012 44.1175 147.238 44.7952 146.827 45.4796C147.257 47.5404 149.144 47.3416 150.509 48.1659C150.773 48.3248 151.456 48.9692 151.761 49.2169C153.379 50.5356 155.422 51.1889 156.812 52.8254C156.709 54.2063 156.344 55.3473 155.918 56.7271C155.47 58.1614 155.65 59.7701 155.188 61.0788C154.625 62.6553 153.754 62.3042 152.039 62.4764L149.404 61.8821C147.81 60.6555 150.552 62.2265 149.016 61.5343C149.169 61.9332 149.199 62.3276 149.26 63.1641C150.491 63.2819 150.763 63.2974 151.764 63.8963C152.748 64.4873 152.874 64.9806 154.074 65.4072C154.924 65.7105 155.133 65.9038 155.838 66.4315C155.811 67.6647 155.656 67.3858 155.488 68.4946C155.151 70.6866 156.288 71.5465 154.863 74.8661C153.261 75.2849 150.72 74.4306 150.72 76.5003C150.72 77.548 151.705 77.588 152.67 77.588C152.877 80.4099 152.809 78.2612 151.931 82.4763C151.802 83.0906 151.835 83.1406 151.501 83.6261C149.771 86.1214 146.6 85.8403 143.969 86.6424C139.644 87.9523 140.489 87.9267 135.864 87.9267C134.096 87.9267 131.656 87.6446 130.177 87.1979C128.368 86.6536 126.816 87.3846 125.148 87.3846C123.285 87.3846 121.346 86.1358 119.055 86.027L115.922 85.5681C115.602 85.5737 113.341 86.368 112.969 86.5669C112.728 87.1224 112.53 87.8512 112.675 88.3156C112.817 88.7666 112.781 88.6089 113.053 88.9C113.539 89.4343 114.638 89.8532 115.47 89.9532L120.645 89.9321C121.361 89.9354 121.706 89.8199 122.708 89.8143C125.136 89.7987 126.561 90.3987 129.66 90.1642C129.86 90.152 130.029 90.122 130.273 90.1109C132.758 90.0032 133.355 91.7363 135.13 91.7363C136.621 91.7363 137.81 90.3753 140.978 90.3753C141.968 90.3753 143.366 90.8319 144.523 91.0386C146.026 91.3074 146.895 91.3208 148.489 91.5063C150.831 91.7807 154.038 92.2796 156.563 92.2796C156.972 92.965 157.2 93.3205 157.58 94.1382C158.609 96.3568 159.93 97.6334 162.299 98.3899C165.098 99.2887 169.496 99.6276 172.393 99.6276C171.702 98.8977 171.846 98.5388 170.691 98.5388C169.898 98.5388 170.506 98.7755 169.469 99.0821C170.08 97.4323 168.411 97.4489 171.905 97.4489C172.534 97.4489 173.502 97.9722 173.828 98.2911L174.36 99.0621C174.666 99.5598 174.598 99.4709 175.001 99.9775C176.408 101.733 177.967 102.034 179.637 103.233C179.987 103.485 179.711 103.247 180.042 103.596C180.852 104.445 180.808 104.952 181.394 105.896L182.484 107.127C183.354 107.818 183.48 107.499 184.086 108.605C184.767 109.853 185.215 111.551 185.922 112.81C186.788 114.341 187.834 114.337 188.478 116.229C188.975 117.679 188.209 118.932 190.404 119.779C192.747 120.676 193.267 119.49 195.529 119.49C196.23 119.49 196.136 119.82 196.928 120.38C198.346 121.379 197.923 122.459 197.2 124.08C196.862 124.838 196.523 125.388 195.529 125.48C195.576 127.891 197.09 126.74 198.35 126.181C199.687 125.594 200.156 124.089 200.156 122.486C201.971 122.014 203.308 122.794 204.877 123.47C206.059 123.982 206.108 123.7 207.403 123.915C207.572 123.942 208.248 124.114 208.559 124.254C209.375 124.63 209.148 124.101 209.412 125.206C209.802 126.266 209.595 125.182 209.316 126.168C209.139 126.799 209.044 127.077 208.923 127.656H209.655C209.813 126.908 209.984 126.228 210.142 125.48C212.222 124.937 213.809 124.713 215.742 125.751C215.72 126.982 215.501 126.832 215.501 128.201C216.24 128.183 216.386 128.079 216.962 127.929C216.962 126.13 216.777 125.363 217.774 124.484C220.742 121.872 223.173 124.169 224.024 124.391C223.423 123.389 223.181 122.776 222.076 122.486C222.196 120.841 223.704 120.036 224.999 120.036C225.755 120.036 225.628 120.581 226.459 120.581C227.452 120.581 227.046 119.707 227.587 118.852C228.156 117.953 230.026 116.849 230.984 116.933C232.644 117.084 231.664 117.547 233.277 117.587C233.234 116.997 233.153 116.806 232.767 116.606L231.774 116.277C230.896 115.81 230.138 115.725 229.867 114.595C229.703 114.09 230.218 113.379 230.236 112.969L229.867 109.969C229.867 108.678 230.176 109.555 229.934 108.267C229.609 106.526 228.7 105.614 230.842 105.614C230.897 104.878 230.954 104.872 231.088 104.255C230.588 103.497 230.594 103.944 230.15 103.123C229.823 102.513 229.82 102.016 229.719 101.155C229.551 99.7098 229.153 98.2733 229.383 97.1767H230.598C231.783 99.6842 230.415 99.7642 231.818 99.9009C231.923 101.324 231.583 100.391 232.303 100.716C231.908 98.811 232.792 98.2222 232.792 96.088C232.792 94.5693 231.87 94.2949 233.105 92.9073C233.89 92.0251 234.932 91.8852 235.226 90.6486C234.12 90.2042 229.623 93.2494 229.623 89.8332L231.293 85.707C231.387 85.4059 231.504 84.8715 231.579 84.6616C232.164 83.0507 232.303 83.4184 232.303 80.852C232.303 79.7577 232.19 80.8276 231.955 79.881C231.641 78.6145 231.75 78.5156 231.189 77.4691C229.915 75.0794 232.808 74.8283 233.764 73.2318C232.155 72.403 232.173 74.5217 230.691 73.4351C229.802 72.7841 229.383 70.7243 229.383 69.1512C228.783 69.4712 226.704 69.5045 226.704 68.3357C226.704 66.7204 226.975 67.8036 227.044 67.808C227.718 67.8391 226.747 67.698 227.314 67.998C228.068 68.3991 228.532 68.2802 229.182 67.8469L229.582 67.5569C230.443 67.017 230.28 66.8181 230.392 66.4926C230.413 66.4315 230.431 66.3515 230.457 66.2893C231.069 64.6506 231.846 64.6017 232.844 61.321C235.392 52.9598 232.63 56.1116 232.907 48.4559C233.062 44.1119 233.233 44.6186 235.465 41.3923C235.823 40.8768 235.722 41.0034 236.16 40.5357L241.451 34.1987C242.038 33.6943 242.713 33.1432 243.208 32.6244C243.517 32.2956 243.606 32.1278 243.905 31.7701C244.748 30.7513 245.274 29.9159 246.33 29.0349C247.16 28.3383 247.215 27.585 247.476 27.3939C247.737 27.2017 247.961 27.835 248.776 26.0141L249.21 25.5964C249.514 25.3731 249.66 25.1098 250.082 24.792L249.413 23.44C249.073 23.0544 248.933 23.5277 248.863 22.6167C250.024 22.9178 250.02 22.9856 250.323 21.528C250.623 21.6168 251.066 21.8413 251.103 21.8413C251.63 21.8446 252.927 20.2903 253.003 20.1681C252.053 19.9426 251.907 19.7304 251.784 20.9847H251.298C251.125 20.0704 251.28 20.237 251.054 19.6237C249.984 20.257 249.371 21.2891 248.527 22.239L245.996 25.2953C245.989 25.302 245.935 25.3186 245.927 25.3231L243.562 27.3084C242.597 28.3116 241.892 29.4426 240.826 30.238C239.429 29.4126 239.392 28.2761 238.845 26.7362C238.615 26.0774 238.635 27.3684 238.635 26.1563C238.635 22.7178 238.415 23.6222 239.61 21.8024C238.934 21.9601 238.403 21.6457 237.906 21.2558L238.71 21.2491C239.962 21.518 240.546 21.7868 240.584 19.8982C239.99 20.5992 239.883 20.7136 238.635 20.7136C238.551 19.6126 238.348 20.3892 237.906 20.1692C238.6 19.1094 238.288 20.1537 238.635 19.0805C237.044 19.2749 238.058 19.7071 236.879 21.2002C235.683 22.71 234.04 23.8299 232.863 25.4231C231.907 26.7185 230.82 27.3484 229.831 28.5682C229.504 28.9738 229.388 29.2604 228.96 29.7681L225.912 32.8944C225.523 33.2843 225.789 33.0299 225.359 33.3666L224.926 33.6965C224.886 33.7298 224.828 33.7821 224.789 33.8154C222.301 35.9929 221.656 35.7718 218.332 33.8732C214.429 31.6456 217.76 31.5712 211.477 29.5581C210.91 29.3759 209.926 29.0671 209.44 28.8426C206.855 27.6717 209.602 23.2233 206.974 22.89C206.082 23.1567 205.229 23.9032 204.7 24.7043C204.291 25.3242 203.63 26.9095 203.563 27.7894C199.349 27.7894 198.542 27.2262 195.512 25.3531C194.933 24.9942 193.555 24.3487 193.14 23.9255L191.302 18.3417C191.112 16.6763 191.383 13.6389 188.952 13.6389C188.28 13.6389 187.775 14.5244 187.489 14.9987C187.797 16.4763 188.592 19.6637 187.606 21.1147C187.594 21.1325 186.877 21.8668 186.838 21.9001C185.583 22.9356 182.604 21.6779 181.219 20.9169C178.564 19.4549 177.646 21.208 175.019 19.1327C174.116 18.4139 173.143 18.0617 172.461 17.094C172.433 17.0507 172.385 16.9885 172.356 16.9418C171.3 15.4054 170.414 13.62 169.299 12.1946L168.621 11.3181C166.419 8.27509 164.896 7.33743 163.784 4.74885C163.253 3.50455 162.777 2.81575 161.84 1.98584C161.042 1.27704 160.384 1.56367 160.089 2.61577C159.902 3.27458 159.966 3.65787 159.966 4.38556C158.019 4.89328 157.801 3.41567 156.837 1.89141C156.409 1.21482 156.346 1.577 156.072 0.711548L155.487 1.03595C154.389 1.71698 154.544 0.979295 153.642 2.48356Z" fill="#FFC300"/>
<path fill-rule="evenodd" clip-rule="evenodd" d="M91.0527 67.2491C88.6062 67.2491 85.1302 69.0523 85.3081 72.0364C85.5019 75.2304 86.1786 76.988 87.529 79.351C89.7917 83.3184 91.1153 84.8904 95.8543 85.8314C96.4694 85.9525 97.16 86.3069 97.9669 86.4757C99.9096 86.8835 102.65 86.1258 104.282 85.297C106.77 84.026 109.579 85.2103 108.49 79.3322C108.21 77.8068 107.01 76.0125 105.984 75.0582C103.253 72.5263 103.315 73.2473 100.311 70.7821C98.9229 69.6411 92.739 67.2491 91.0527 67.2491Z" fill="#FFC300"/>
<path fill-rule="evenodd" clip-rule="evenodd" d="M203.081 133.92C203.081 137.127 203.396 136.39 204.229 138.895C204.729 140.399 205.848 143.268 207.614 141.436C208.488 140.535 207.972 139.458 207.703 138.284C207.281 136.454 207.597 134.399 206.351 131.911C205.816 130.843 204.684 130.448 203.936 131.064C203.24 131.643 203.081 132.821 203.081 133.92Z" fill="#FFC300"/>
<path fill-rule="evenodd" clip-rule="evenodd" d="M300.738 88.7477C299.376 88.7477 299.007 88.5422 298.183 89.1477C293.982 92.2184 298.235 96.8545 300.738 93.9249V88.7477Z" fill="#FFC300"/>
<path fill-rule="evenodd" clip-rule="evenodd" d="M259.339 36.7728C260.68 36.7728 261.048 36.6284 261.775 35.4107C261.543 34.4386 260.838 33.752 259.97 33.4265C258.846 33.0055 260.18 34.1065 259.051 33.0199C257.983 31.9945 259.326 32.3222 257.881 32.1478C257.78 31.129 257.76 31.3057 256.418 30.5135C256.12 31.7712 254.539 33.9976 257.52 35.8151C257.872 36.0307 259.149 36.7728 259.339 36.7728Z" fill="#FFC300"/>
<path fill-rule="evenodd" clip-rule="evenodd" d="M242.051 89.8376L246.184 87.109C247.065 86.3535 246.324 86.939 246.804 86.1713C247.528 85.0192 247.925 85.8925 250.442 82.0696C251.331 80.7198 252.92 79.7932 253.255 78.4067C251.235 77.1402 252.202 79.9998 249.406 81.9985C246.828 83.846 247.404 84.6493 246.37 85.6847L244.814 86.9379C243.714 87.7522 242.408 88.3388 242.051 89.8376Z" fill="#FFC300"/>
<path fill-rule="evenodd" clip-rule="evenodd" d="M257.393 12.5534C258.447 12.3023 257.675 12.4423 258.854 12.5534V13.6422H259.585C258.986 14.5665 259.747 13.9444 258.702 14.0866C258.114 14.1643 257.79 14.1877 257.147 14.1877V14.4588C258.114 14.4588 258.065 14.5943 258.61 15.002L260.926 12.129C260.955 12.099 261.013 12.0457 261.048 12.019C261.086 11.9857 261.152 11.9413 261.191 11.9102L261.818 11.5102C262.41 10.9658 262.054 11.3514 262.139 10.8281C262.339 9.62489 262.341 9.53157 261.29 8.745C259.66 9.16717 257.675 11.3836 257.393 12.5534Z" fill="#FFC300"/>
<path fill-rule="evenodd" clip-rule="evenodd" d="M253.983 16.6374C255.179 15.6553 253.769 15.7519 255.201 16.0908C254.157 17.8294 253.832 16.8862 253.496 16.6374L251.985 18.486C252.632 18.8093 252.211 18.4949 252.564 19.0371L253.009 19.9003C253.625 19.6503 253.283 19.7514 253.497 19.6281C253.712 19.5059 253.37 19.6059 253.984 19.3548C253.658 18.8149 253.542 18.6038 253.255 17.995L254.175 17.5372C254.77 17.3062 254.724 17.2473 255.445 17.1784C254.896 18.015 255.603 17.6183 254.469 17.7239L254.716 18.8104L255.781 17.555C256.578 16.6607 256.262 16.6229 256.907 16.3596V15.0009C256.364 14.9876 255.289 15.1186 256.028 14.0499C256.297 13.6566 256.412 13.8655 256.663 13.0978C255.519 13.7744 254.078 15.372 253.983 16.6374Z" fill="#FFC300"/>
<path fill-rule="evenodd" clip-rule="evenodd" d="M227.923 132.83C228.817 132.83 229.102 132.409 229.628 132.015C229.628 129.874 228.974 129.023 227.193 129.023C226.522 130.587 226.75 130.637 227.184 131.678L227.524 132.484C227.897 132.952 227.45 132.83 227.923 132.83Z" fill="#FFC300"/>
<path fill-rule="evenodd" clip-rule="evenodd" d="M234.988 101.266C235.121 103.026 236.381 105.18 237.579 101.438C237.861 100.554 238.399 99.6808 238.192 99.2508C237.595 98.0154 237.094 100.019 234.988 101.266Z" fill="#FFC300"/>
<path fill-rule="evenodd" clip-rule="evenodd" d="M223.541 176.914H224.029C224.752 174.961 223.583 174.557 223.055 172.017H222.323C222.327 172.344 222.78 176.914 223.541 176.914Z" fill="#FFC300"/>
<path fill-rule="evenodd" clip-rule="evenodd" d="M183.842 139.362C184.981 139.658 184.776 139.362 186.276 139.362C186.813 138.473 187.243 138.514 187.496 137.456C186.36 137.486 184.323 138.623 183.842 139.362Z" fill="#FFC300"/>
<path fill-rule="evenodd" clip-rule="evenodd" d="M241.806 15.002H240.345C240.428 15.1798 240.469 15.4253 240.577 15.5186C241.011 15.8919 240.556 15.4186 241.232 15.412C241.234 15.412 241.729 15.5264 241.806 15.5475C242.273 14.7665 242.63 13.66 243.508 15.002C242.798 15.192 243.158 14.9665 242.778 15.5475C242.816 15.5664 242.884 15.5342 242.897 15.5831C243.053 16.2674 242.987 15.5797 243.124 15.6419C243.818 15.9552 242.621 16.1063 243.576 15.9941C243.859 15.9575 243.87 15.8752 243.913 15.5797C244.177 13.6944 240.776 13.3133 241.534 14.7209L241.806 15.002Z" fill="#FFC300"/>
<path fill-rule="evenodd" clip-rule="evenodd" d="M174.83 158.412C175.674 158.158 176.23 157.531 176.924 156.942C177.315 156.614 178.529 155.451 178.731 155.143C177.786 154.66 178.635 154.762 177.199 155.884C176.281 156.596 174.918 157.241 174.83 158.412Z" fill="#FFC300"/>
<path fill-rule="evenodd" clip-rule="evenodd" d="M245.457 153.512C246.391 153.512 245.547 153.594 246.191 153.243C245.226 151.634 244.738 150.895 243.508 149.975C243.673 150.759 244.891 153.512 245.457 153.512Z" fill="#FFC300"/>
<path fill-rule="evenodd" clip-rule="evenodd" d="M187.983 132.83C189.546 132.83 190.319 132.908 190.66 131.47C189.496 132.341 190.532 131.686 189.218 131.757C188.389 131.806 188.177 132.025 187.983 132.83Z" fill="#FFC300"/>
<path fill-rule="evenodd" clip-rule="evenodd" d="M243.269 86.299C244.264 85.708 243.802 86.2868 244.417 85.1247C244.816 84.3815 245.037 84.3271 244.73 83.5771C243.918 84.186 243.524 85.0659 243.269 86.299Z" fill="#FFC300"/>
<path fill-rule="evenodd" clip-rule="evenodd" d="M216.48 132.288C217.731 132.256 217.178 132.531 217.695 131.743C217.575 131.501 217.537 131.201 217.21 131.201C216.516 131.2 216.48 131.514 216.48 132.288Z" fill="#FFC300"/>
<path fill-rule="evenodd" clip-rule="evenodd" d="M306.801 142.428C306.664 142.352 304.645 141.928 303.985 141.747C298.307 140.212 295.879 144.259 295.055 150.261C293.839 159.136 292.742 160.28 285.559 159.656C280.941 159.254 278.503 155.27 274.103 150.897C269.163 145.993 270.589 148.215 266.83 144.578C261.287 139.213 262.423 144.529 259.792 135.774C259.405 134.489 257.816 130.594 256.751 130.002C255.669 129.395 252.793 129.755 251.902 130.079C250.474 132.166 250.535 132.901 250.758 134.627C250.939 136.015 250.803 137.102 251.084 138.492C251.283 139.483 252.433 145.244 252.051 146.101C251.092 148.245 249.632 148.96 248.159 149.787C245.817 151.099 246.654 151.314 241.971 153.742L239.915 154.822C239.383 154.942 239.328 154.852 238.749 154.893C230.577 155.459 235.793 152.917 227.438 156.011L223.807 158.185C219.485 161.105 220.859 160.992 218.194 163.264C217.084 164.211 217.397 164.114 215.962 164.541C215.166 164.775 214.595 164.93 213.726 165.019C212.034 165.193 210.759 165.044 209.323 166.207C206.543 168.463 209.003 174.46 210.649 175.741C211.588 176.473 210.827 175.254 211.577 176.597C213.463 179.98 213.468 181.337 213.291 185.262C213.238 186.45 214.27 189.251 214.752 190.297C215.949 192.886 219.718 194.381 219.964 194.525C223.057 196.394 220.773 195.086 223.112 195.922C224.002 196.239 223.207 195.993 224.112 196.409C226.072 197.306 227.499 198.087 228.473 200.592C228.867 201.611 228.703 203.536 228.275 204.581C227.674 206.044 226.477 206.571 226.591 208.183C226.895 212.477 230.976 211.637 233.236 212.9C234.9 213.827 231.236 219.75 236.088 222.463C237.936 223.494 241.44 217.771 245.745 218.979L256.537 219.312C262.271 217.866 260.024 217.158 266.413 216.567C267.155 216.5 267.007 216.621 267.799 216.427C271.42 215.546 275.066 211.031 277.801 209.336C279.562 208.246 282.966 206.351 284.227 204.586C285.024 203.474 286.997 199.301 287.707 197.92C289.397 194.623 289.662 196.23 289.546 191.905C289.503 190.233 290 190.001 290.132 188.5C290.339 186.169 289.824 185.567 289.798 184.107C289.787 183.649 289.826 183.105 289.847 182.76C290.047 179.467 290.009 179.815 288.609 177.113C288.263 176.442 288.277 176.359 287.955 175.76C287.708 175.303 287.57 175.152 287.343 174.662C286.925 173.756 286.756 173.074 286.696 171.979C286.365 165.738 289.237 165.471 291.518 163.694C295.876 160.294 295.621 160.747 299.384 164.592C299.996 165.22 301.388 166.502 302.242 166.981C303.335 167.59 306.717 167.906 308.636 166.105C312.316 162.653 316.212 157.612 315.272 151.76C314.553 147.277 313.621 146.16 309.328 143.626C309.262 143.586 309.185 143.533 309.119 143.502L308.697 143.354C306.226 142.647 307.936 143.063 306.801 142.428Z" fill="#FFC300"/>
<path opacity="0.74" fill-rule="evenodd" clip-rule="evenodd" d="M350.527 125.685C351.259 125.122 357.729 122.279 355.556 117.326C355.162 116.43 355.005 116.494 354.323 116.101C353.436 115.594 353.404 115.561 352.549 115.689L350.996 116.115C350.931 116.131 350.84 116.152 350.776 116.168C350.711 116.187 350.617 116.209 350.555 116.228C349.754 116.438 349.545 116.42 348.864 116.935C348.438 117.255 348.503 117.278 348.119 117.616C347.642 118.03 347.936 117.78 347.349 118.226C345.29 119.791 346.688 119.344 344.217 121.27C341.949 123.035 341.211 125.06 338.229 126.69C336.359 127.711 334.35 128.645 333.607 130.312C333.293 131.01 333.792 135.992 337.602 138.122C340.374 139.67 339.987 137.371 342.872 133.494C343.826 132.212 343.036 133.157 343.942 132.291C346.856 129.497 344.076 130.66 350.527 125.685Z" fill="#FFC300"/>
<g opacity="0.49">
<path fill-rule="evenodd" clip-rule="evenodd" d="M145.788 125.64C146.3 123.525 144.544 122.751 144.19 120.905C143.662 118.145 142.448 117.578 142.032 115.803C141.51 113.59 142.278 112.28 141.754 109.567L139.207 103.285C139.186 103.197 139.16 103.028 139.143 102.939C137.864 96.1179 135.807 98.9153 133.598 95.6524C132.817 94.5003 132.704 91.0885 132.346 89.3754L126.273 87.9022C124.848 87.1867 123.75 84.4626 123.372 82.8806C121.474 84.3037 121.954 85.8313 120.205 85.8313C118.236 85.8313 118.314 84.5259 116.813 83.7194L113.341 82.2895C111.675 85.8069 111.25 84.6526 106.479 84.6526C105.49 88.7788 103.21 87.4134 100.801 89.5198C100.639 89.662 98.4845 92.0428 98.4119 92.1606L93.0628 102.118C92.9962 102.217 92.8949 102.345 92.8323 102.453C91.7392 104.362 90.659 110.864 87.7872 113.344C83.716 116.861 82.2651 116.246 77.3413 115.463C74.0979 114.947 73.0078 114.015 70.2065 112.809C62.3602 109.424 61.436 109.177 53.5152 104.319L41.1962 96.2501C39.8179 95.4369 39.4423 95.2391 38.1425 94.3503C33.6937 91.3051 24.1282 87.5811 20.9722 83.4427L17.9503 80.3264C17.8549 80.2565 17.7278 80.1631 17.6353 80.0931C17.5399 80.022 17.4088 79.9276 17.3124 79.8609C15.8149 78.8077 13.581 77.9701 11.4416 78.1023L8.96125 78.9155C8.85294 78.9755 8.72774 79.0688 8.62439 79.1277L6.24048 80.602C4.66347 81.7152 3.89334 83.4116 2.842 85.0703L1.86518 86.3791C1.09009 87.5678 0.281212 92.245 0.0556399 94.3192C-0.245454 97.0833 0.755209 100.042 1.14872 102.073C1.67538 104.8 0.689625 103.44 1.51341 106.344C2.96025 111.454 7.40809 111.677 9.51575 112.781C9.62605 112.841 9.7592 112.925 9.86354 112.984L13.1527 114.62C14.6264 114.938 16.267 114.772 17.7814 114.758C22.6039 114.712 27.4572 116.71 30.639 113.191L36.3628 106.603C41.7437 101.636 40.1607 103.439 50.9037 110.784L60.6271 118.801C62.1634 120.312 61.0256 120.125 63.1184 121.325C65.8312 122.878 64.4092 120.362 65.9206 123.506C67.7799 127.384 66.8706 127.154 72.1641 127.154C74.3234 131.724 74.9594 129.856 78.498 130.696C78.5854 135.077 79.7739 135.853 81.8786 138.134C84.8081 141.313 82.9995 140.977 86.9465 143.093C86.9465 146.762 87.5169 146.815 88.8385 149.243C90.5288 152.341 91.1986 156.598 94.0625 158.752L95.0949 159.387C95.2042 159.455 95.3394 159.539 95.4477 159.605L97.5365 160.532C101.318 160.744 98.7935 155.559 101.722 155.115C105.372 154.563 104.316 160.94 111.107 161.034C114.178 161.077 113.057 161.962 115.453 163.757C117.275 163.281 117.895 163.035 118.567 161.33C120.144 157.36 117.267 157.103 120.21 154.959C123.831 152.321 123.52 153.96 125.889 155.629C127.436 156.716 128.458 156.625 129.519 158.655C130.233 160.02 129.926 160.378 131.531 161.123C132.28 161.475 131.912 161.396 132.875 161.396C137.443 161.396 133.092 155.448 132.772 153.969C132.4 152.238 133.002 153.089 133.16 151.312C133.409 148.542 132.33 149.008 134.46 145.458C136.334 145.944 138.152 147.226 139.738 147.226C141.362 147.226 143.421 141.255 144.013 139.552C145.182 136.161 142.379 134.6 142.379 130.105C142.378 128.697 145.173 128.191 145.788 125.64Z" fill="#FFCD00"/>
<path fill-rule="evenodd" clip-rule="evenodd" d="M58.9636 92.9205C58.9636 91.0562 58.8135 90.4197 58.0961 89.1665C57.7751 88.6143 57.8258 88.8854 57.1849 87.8222C55.1418 84.4248 52.7211 83.025 48.5962 83.7449C42.9261 84.7303 41.1742 91.8462 44.8331 96.319C45.8099 97.5133 48.314 99.0464 49.891 99.5286C51.476 100.013 53.2378 99.6186 54.8407 98.9442C55.7211 98.572 58.9636 97.6688 58.9636 92.9205Z" fill="#FFCD00"/>
</g>
<path fill-rule="evenodd" clip-rule="evenodd" d="M275.914 241.408C275.914 241.154 275.083 237.899 274.86 236.806C272.929 227.426 266.557 226.513 258.935 229.258C247.67 233.315 245.596 232.452 241.602 221.453C239.032 214.377 242.123 208.16 244.379 198.795C246.909 188.281 245.228 191.848 247.042 183.909C249.711 172.203 244.193 177.383 252.779 167.737C254.042 166.321 257.586 161.41 257.586 159.45C257.586 157.457 255.266 153.454 254.298 152.358C250.898 151.623 250.068 152.199 248.177 153.664C246.66 154.846 245.292 155.363 243.841 156.691C242.804 157.639 236.763 163.13 235.502 163.13C232.341 163.13 230.534 161.449 228.589 159.824C225.501 157.235 225.8 158.608 219.849 153.31L217.223 150.99C216.733 150.284 216.798 150.145 216.368 149.317C210.315 137.644 216.754 143.658 207.596 133.383L202.643 129.466C196.35 125.019 197.388 126.971 192.953 124.536C191.107 123.525 191.426 123.923 189.978 122.087C189.174 121.073 188.62 120.328 187.939 119.111C186.617 116.73 185.956 114.749 183.638 113.401C179.15 110.792 173.697 118.37 173.27 121.637C173.027 123.508 173.961 121.579 172.87 123.57C170.124 128.58 168.528 129.481 163.785 131.808C162.348 132.514 159.725 135.879 158.809 137.277C156.547 140.748 157.268 147.288 157.257 147.747C157.093 153.54 157.131 149.309 157.687 153.307C157.899 154.829 157.667 153.494 157.772 155.102C158.004 158.58 158.023 161.199 155.71 164.285C154.772 165.536 152.392 166.564 150.877 166.621C148.756 166.699 147.347 165.283 145.519 166.513C140.654 169.788 144.338 175.252 144.338 179.414C144.338 182.478 134.941 180.983 134.941 189.921C134.941 193.325 143.999 194.718 145.41 201.86L152.129 217.989C157.612 225.482 156.968 221.705 161.874 230.735C162.443 231.781 162.202 231.643 162.952 232.681C166.378 237.44 174.106 239.835 177.906 242.754C180.351 244.628 184.829 248.395 187.744 249.095C189.578 249.537 195.799 249.695 197.895 249.83C202.899 250.147 201.175 251.598 206.199 248.58C208.141 247.412 208.742 247.99 210.602 247.197C213.485 245.967 213.855 244.808 215.561 243.806C216.096 243.49 216.758 243.189 217.183 242.992C221.197 241.117 220.761 241.291 223.028 237.443C223.588 236.491 223.696 236.461 224.19 235.591C224.567 234.925 224.652 234.622 225.082 233.965C225.874 232.753 226.567 232.052 227.817 231.243C234.959 226.641 237.167 230.701 240.765 232.888C247.649 237.072 246.946 236.994 244.89 245.073C244.553 246.389 243.957 249.289 243.957 250.863C243.957 252.878 245.815 258.07 249.2 259.708C255.696 262.859 264.207 265.278 270.491 260.037C275.302 256.023 276.004 253.911 276.166 245.919C276.166 245.795 276.179 245.646 276.171 245.527L276.066 244.807C275.279 240.702 275.914 243.499 275.914 241.408Z" fill="#FFC300"/>
<path opacity="0.74" fill-rule="evenodd" clip-rule="evenodd" d="M324.469 294.823C325.619 295.533 333.23 303.193 337.644 296.728C338.443 295.554 338.258 295.37 338.272 294.103C338.288 292.46 338.306 292.392 337.591 291.216L336.064 289.207C336.004 289.123 335.915 289.002 335.854 288.917C335.793 288.836 335.703 288.713 335.642 288.631C334.865 287.591 334.747 287.27 333.694 286.605C333.035 286.189 333.052 286.301 332.399 285.952C331.599 285.525 332.087 285.794 331.171 285.223C327.971 283.22 329.416 284.987 325.518 282.61C321.942 280.429 319.071 280.678 315.185 277.356C312.747 275.272 310.321 272.929 307.867 272.929C306.835 272.929 301.286 276.945 301.286 283.962C301.286 289.07 303.744 286.988 310.218 288.684C312.356 289.246 310.721 288.704 312.339 289.466C317.556 291.924 314.356 288.592 324.469 294.823Z" fill="#FFC300"/>
<path fill-rule="evenodd" clip-rule="evenodd" d="M180.531 226.552C179.765 225.804 180.297 224.445 180.729 223.458C181.983 224.725 182.092 225.148 182.878 226.359C181.822 227.163 181.69 227.671 180.531 226.552ZM122.431 233.465C124.167 235.143 122.706 232.758 124.726 235.489C127.483 239.204 130.275 240.966 133.174 244.377L143.222 251.647C143.348 251.712 143.492 251.776 143.622 251.841L146.887 253.239C147.944 253.455 148.662 253.369 149.644 253.339L153.989 253.678C154.851 253.607 169.924 248.223 165.396 261.167C163.163 267.549 163.842 268.537 162.849 272.794C162.52 274.206 161.784 275.732 161.299 276.873C156.157 289.041 158.394 286.873 166.511 295.926C168.591 298.251 166.824 296.269 167.737 297.816C172.161 305.338 176.497 296.144 179.642 292.078C181.622 289.519 182.879 289.396 183.958 286.931C187.205 279.507 185.943 276.781 195.711 279.232C199.855 280.271 204.135 275.327 208.398 274.88C211.69 274.536 214.483 273.746 218.161 273.93C220.361 274.04 223.349 273.848 224.21 276.115C224.765 277.599 224.173 281.926 226.905 281.704C229.211 281.514 228.6 277.098 231.481 273.374C232.953 271.474 238.463 269.738 240.294 269.89C242.432 270.071 243.24 270.933 245.088 271.107C248.017 271.379 248.697 270.351 251.084 272.659C254.082 275.56 251.427 279.849 255.023 278.93C253.684 275.544 254.506 275.814 253.958 274.623C254.082 274.645 254.16 274.672 254.297 274.79C255.793 276.077 255.032 276.125 257.198 276.115C254.318 273.33 252.474 266.126 253.339 265.005C254.601 263.377 255.987 262.749 256.717 262.517C262.661 260.607 263.486 261.057 267.155 264.085C269.603 266.108 269.483 264.659 271.602 267.92C271.653 267.884 271.648 267.715 271.704 267.745C273.459 268.861 270.996 267.644 272.719 267.02C278.572 264.896 271.662 264.685 270.758 259.202C269.46 251.351 276.895 255.988 281.589 252.173C290.854 261.129 287.942 255.961 291.028 254.937C291.076 254.921 291.235 254.89 291.282 254.891C292.134 254.894 292.568 256.422 292.871 256.527C294.218 253.428 291.348 252.152 288.953 250.187C286.95 248.544 282.358 245.498 283.793 243.646C286.191 240.547 287.792 243.217 290.406 243.238L294.447 244.663C304.328 249.582 302.44 244.688 304.931 248.518C305.139 246.651 304.792 246.435 306.72 246.792C309.672 247.339 308.475 248.401 310.947 247.371C309.294 246.857 308.681 246.47 307.117 245.988L306.325 245.775C306.199 245.731 306.049 245.692 305.922 245.639L296.132 240.006C292.187 236.19 299.003 228.842 304.335 233.194C304.561 231.173 304.335 230.451 305.981 228.226C301.604 225.649 297.646 224.318 293.608 220.108C291.77 218.183 290.217 218.803 287.559 216.658C284.805 214.436 285.856 212.354 285.163 209.708C284.122 205.743 277.86 200.687 275.843 198.757C271.938 195.017 274.61 195.402 272.169 192.312C269.969 189.525 266.299 187.672 268.605 184.695C269.736 183.229 276.427 182.982 273.879 180.475L270.248 179.29C266.226 178.225 268.298 176.927 261.371 176.097C259.394 175.861 258.73 175.336 256.913 173.995C255.796 173.171 252.828 171.068 252.367 170.594C250.187 168.342 252.141 167.953 249.693 165.585C247.811 163.762 243.435 162.319 249.298 159.465C241.802 155.057 236.175 157.487 244.183 147.141C242.637 146.302 241.856 147.07 240.268 147.374C238.342 147.742 236.714 148.34 234.788 147.699C234.661 147.656 234.515 147.583 234.387 147.537L233.174 147.046C230.997 146.226 227.636 146.003 225.978 145.103C225.315 142.385 226.086 142.04 225.641 139.861C222.59 138.204 220.274 141.983 210.862 142.226C205.843 142.358 206.944 141.107 203.322 141.04C200.873 140.994 198.466 142.998 196.204 144.684C196.129 144.742 195.999 144.853 195.928 144.907L195.139 145.46C192.826 146.485 191.535 143.396 189.401 144.547C186.916 145.885 188.563 146.504 184.472 147.279C181.636 147.815 181.42 149.186 178.555 147.304C177.107 146.352 175.383 144.782 175.044 144.591C173.623 143.782 169.088 142.876 167.791 144.554C165.569 147.429 164.307 151.29 164.284 154.044C164.233 161.828 171.044 165.231 163.638 171.505C162.91 172.123 160.85 174.703 160.498 174.977L148.838 179.751C145.993 180.38 142.226 181.766 139.644 183.441C139.52 183.523 139.389 183.618 139.265 183.694L133.916 186.015C130.872 186.643 129.958 187.985 127.606 190.466L123.705 195.456C121.42 198.55 119.224 200.133 117.349 206.179C115.271 212.887 115.708 218.222 118.417 224.562C119.517 227.135 118.594 226.805 119.608 228.861C119.653 228.95 122.393 233.431 122.431 233.465Z" fill="#FFCF00"/>
<path opacity="0.74" fill-rule="evenodd" clip-rule="evenodd" d="M316.509 229.158C322.718 235.165 328.894 231.281 337.438 230.568C340.117 230.343 340.547 232.211 339.808 230.678C339.767 230.592 340.059 230.755 340.184 230.751C337.724 227.938 339.675 226.218 339.57 223.024L339.461 222.092C339.013 210.488 341.008 211.182 332.931 209.627C328.543 208.781 328.816 208.098 322.77 210.457C321.626 210.902 320.452 211.495 319.341 212.061C312.319 215.639 312.181 224.972 316.509 229.158Z" fill="#FFCF00"/>
<path fill-rule="evenodd" clip-rule="evenodd" d="M303.931 202.473C304.698 204.861 306.203 204.314 311.212 205.712L313.594 206.081C312.178 204.927 310.208 204.376 308.727 203.716L305.116 202.527C303.614 202.289 304.858 202.472 303.931 202.473Z" fill="#FFCF00"/>
<path fill-rule="evenodd" clip-rule="evenodd" d="M303.931 202.473C302.244 201.48 301.145 201.102 299.547 201.51C300.49 202.283 300.849 202.588 301.599 202.883C303.17 203.502 302.651 203.442 303.931 202.473Z" fill="#FFCF00"/>
<path fill-rule="evenodd" clip-rule="evenodd" d="M285.637 124.367C284.913 125.139 285.196 124.887 285.112 125.783L283.714 125.179C283.83 125.038 283.859 125 283.928 124.982C283.998 124.967 284.051 124.901 284.074 124.891L285.637 124.367ZM283.277 127.314L281.753 126.22C281.577 125.611 281.704 125.989 281.882 125.356C282.961 125.953 282.943 125.638 283.277 127.314ZM209.819 177.629C209.643 179.155 209.769 178.973 208.499 179.558L208.297 177.859L209.819 177.629ZM187.107 172.336C185.733 172.178 185.656 172.09 185.329 170.434L186.573 171.117C187.011 169.28 185.754 170.757 187.133 169.3C187.964 170.906 187.331 170.409 187.107 172.336ZM285.637 124.367C286.251 123.879 286.233 123.936 286.678 123.346C284.687 123.642 279.35 125.371 278.118 126.321C272.567 130.613 269.18 129.493 263.82 132.079C261.716 133.094 259.841 133.462 257.754 133.117C256.661 132.936 257.776 133.07 256.574 132.832C255.789 132.676 254.459 132.668 254.029 132.704L249.538 133.62C248.457 131.921 249.553 132.83 248.247 132.514C248.115 129.513 250.609 130.888 252.134 129.335C248.81 129.516 249.61 129.155 246.796 130.875C245.669 131.564 244.88 131.686 243.913 132.241C242.58 133.01 243.189 133.284 241.314 133.731C239.632 134.139 240.516 133.042 238.768 134.726C236.885 136.538 238.797 135.293 236.239 135.684C234.681 135.922 234.735 136.38 233.185 136.067C231.289 135.679 232.675 135.312 230.403 135.593C230.17 133.923 230.387 134.58 229.769 133.525C230.709 131.386 231.534 130.299 234.366 129.806L233.681 129.305C232.986 128.725 233.506 129.203 233.071 128.7C230.061 130.093 225.422 135.241 221.622 133.436C220.877 133.082 219.672 131.268 219.316 130.307C220.09 128.546 221.352 127.379 222.808 126.031C225.16 123.855 225.837 123.448 225.26 121.628C224.043 122.192 223.341 123.684 222.083 124.265C221.811 121.484 222.691 121.896 224.264 120.395L237.406 109.08C238.507 108.023 239.479 107.432 240.501 106.376C247.833 98.7754 243.422 93.9493 236.272 105.431C236.229 105.502 236.162 105.61 236.117 105.681L235.791 106.167C234.677 107.717 226.519 115.499 224.892 116.283L214.389 121.884C212.279 122.69 212.569 122.58 210.969 123.925C207.937 126.468 207.214 128.629 205.813 129.455C202.121 131.637 200.134 134.753 197.256 137.045C196.928 134.266 196.444 133.471 194.483 133.085C192.218 132.639 189.401 133.86 187.82 135.467C186.098 137.211 184.749 138.346 182.387 139.229C180.017 140.113 180.725 140.929 179.631 142.992C179.03 144.127 179.022 143.68 178.573 145.141L176.072 151.429C174.732 153.937 174.486 152.95 172.678 151.95L170.255 153.404C170.207 153.431 170.05 153.566 169.932 153.592C169.859 153.61 169.828 153.643 169.782 153.68C170.519 154.94 170.878 157.79 169.691 159.337C168.335 161.106 166.74 159.858 167.179 163.216C167.303 164.165 167.289 163.527 167.223 164.299L167.166 164.73C167.062 165.982 167.366 166.134 166.583 167.388C166.463 167.575 166.159 167.941 166.09 168.011C164.06 170.048 164.395 168.464 165.927 170.352L164.556 170.051L166.102 172.507C166.988 175.362 165.855 174.265 165.554 176.832C166.571 177.187 165.615 176.862 166.556 176.972C166.8 177.001 166.898 176.949 167.127 177.035C167.588 178.482 167.375 179.525 167.817 180.592L168.235 181.292C168.261 181.329 168.335 181.421 168.363 181.461C168.395 181.502 168.469 181.601 168.503 181.647L170.496 184.024C171.848 187.195 171.556 186.386 173.562 188.151C174.962 189.388 173.795 189.02 174.722 190.268L174.986 190.569C175.012 190.604 175.086 190.694 175.117 190.727C176.707 192.552 177.122 191.947 179.795 195.499C181.715 198.051 183.28 198.329 185.851 199.141C189.925 200.434 192.898 205.471 195.615 208.863L200.822 213.241C201.747 213.755 203.132 214.073 204.115 214.429C203.456 216.407 203.929 215.078 201.931 216.357L185.637 222.672C182.726 223.483 180.818 223.802 179.194 223.957C177.438 224.125 176.221 224.879 172.067 225.239L165.342 226.476C164.073 226.738 163.326 227.315 162.113 227.697C161.243 227.976 160.519 228.067 159.198 228.737C156.602 230.044 152.925 230.781 150.577 232.081L142.777 235.323C137.366 237.323 131.851 239.99 126.575 242.511C123.445 244.006 117.323 245.831 114.842 248.53L113.143 250.133C112.455 250.642 112.822 250.166 112.07 251.127L109.752 254.384C108.572 255.578 108.333 257.427 106.945 258.595L102.123 263.263C101.13 264.452 100.696 265.963 100.258 267.404L99.3035 269.266C97.8686 272.044 98.3207 277.658 101.626 278.658C105.694 279.894 105.146 278.217 107.212 277.625C107.218 277.624 107.682 277.575 108.044 277.469C109.002 277.194 110.211 276.371 111.16 275.972C115.404 274.187 113.842 273.827 116.844 274.818C118.94 275.504 120.382 277.094 123.052 276.242C126.026 275.298 129.128 272.216 131.963 270.832C135.466 269.121 136.473 265.799 140.428 265.451C142.86 265.238 144.637 265.639 147.19 264.368C149.187 263.374 150.109 261.304 152.374 260.388C157.293 258.405 156.561 258.204 158.736 257.217C158.795 257.189 158.904 257.153 158.965 257.124C159.428 256.904 159.321 256.967 159.693 256.737C160.597 256.178 160.369 256.256 160.916 255.855C163.716 253.793 167.072 252.802 169.936 250.95C172.279 249.428 172.369 247.547 175.03 246.899C172.714 245.56 175.308 247.664 174.102 246.257C173.737 245.839 173.928 246.457 173.686 245.361L172.88 245.5L173.507 247.122C170.531 245.481 170.916 247.378 169.276 247.975C168.194 248.369 168.785 247.604 166.927 248.348L152.764 254.408C150.909 254.928 149.826 255.256 147.909 255.828L144.932 256.449C143.202 256.68 141.092 257.04 139.643 255.613C140.476 253.73 140.597 254.529 141.728 253.19C142.716 252.024 142.011 252.124 143.543 250.914C144.523 250.144 143.728 250.645 144.631 250.38C148.38 249.263 151.183 247.853 154.945 246.937L163.891 243.145C167.614 241.645 166.457 242.949 169.607 241.496C170.645 241.019 171.777 240.726 172.715 240.324L178.283 237.652C179.932 237.021 182.816 235.313 183.921 236.916C184.25 237.396 182.908 237.588 183.997 240.805C185.136 240.524 185.815 240.086 186.624 239.591C189.531 237.814 192.666 239.488 191.007 234.565C196.616 233.734 195.622 234.786 201.134 232.12C201.776 231.807 202.911 231.641 203.371 231.563C203.963 231.455 204.895 231.142 205.505 230.937C206.262 230.691 207.375 230.385 208.057 230.043C209.29 229.429 207.87 229.521 210.115 229.133C212.12 230.236 212.788 233.201 215.294 233.562C216.758 232.121 216.696 232.304 216.361 229.509C218.074 228.711 217.129 228.238 219.419 228.477C221.449 228.688 227.225 231.794 227.475 231.757C229.476 231.46 229.355 225.686 232.525 227.885L232.959 228.247C234.517 229.588 233.878 229.322 234.488 231.505C234.931 233.086 236.183 234.269 237.021 236.302C238.044 238.797 237.942 239.015 240.585 239.631C242.399 240.052 243.69 240.035 244.403 238.242C245.414 235.702 244.934 234.816 245.451 232.226C246.798 225.466 248.134 229.768 250.204 226.352C251.601 224.049 252.133 221.68 255.272 221.135C255.938 223.104 257.489 223.844 259.081 223.834C264.872 223.802 264.77 221.394 264.894 217.911C264.946 216.375 264.668 216.276 265.445 215.276C267.618 212.482 269.14 216.598 271.52 216.895C273.619 217.155 275.267 216.53 277.178 216.623C278.702 216.693 279.718 218.06 281.222 218.711C282.671 219.338 283.77 220.252 284.77 221.526C286.711 220.991 285.519 221.917 285.813 220.504C287.924 221.779 284.897 221.142 287.106 221.61C287.51 220.214 287.3 219.993 287.082 218.148C285.504 217.279 283.521 216.875 282.875 214.779C282.061 212.154 283.258 212.949 281.632 208.127C282.854 206.925 282.825 207.177 284.233 206.152C285.433 205.275 285.554 204.805 285.694 203.194C289.027 202.702 290.499 203.782 293.842 203.284C294.167 201.629 293.807 203.294 294.27 202.121C294.569 201.359 294.523 201.617 294.729 200.985C293.117 198.457 292.262 198.89 289.706 197.833C289.594 195.218 291.25 195.463 288.694 191.822C285.651 187.49 284.363 189.529 283.76 185.454C282.92 179.776 283.461 180.573 288.018 180.322L288.214 179.712C288.234 179.635 288.274 179.495 288.292 179.413C288.311 179.335 288.341 179.201 288.354 179.123C288.368 179.047 288.38 178.915 288.392 178.84C288.572 177.687 287.895 178.429 288.807 177.175C284.029 177.882 284.843 178.332 281.929 177.788C280.044 177.439 277.324 178.252 275.82 176.658C274.665 175.439 274.836 173.735 274.569 171.489L277.823 169.128C278.201 169.002 278.803 169.123 279.937 168.843C280.667 168.663 280.61 168.462 281.932 168.23C282.082 167.254 281.315 168.343 281.451 167.437L283.586 165.823C282.642 165.961 282.678 165.951 281.849 166.282L281.392 166.525C280.001 167.056 275.623 165.172 274.523 164.566C274.385 163.423 274.441 163.584 274.508 162.634C274.671 160.298 274.166 160.083 276.376 158.888C276.466 158.838 276.56 158.791 276.656 158.744L279.655 157.043C279.581 157.015 279.449 156.983 279.372 156.946C278.631 156.617 279.163 157.086 278.672 156.546C278.031 155.851 278.335 156.029 278.414 154.891L277.652 155.007C277.308 156.509 277.633 155.968 275.698 155.975C273.801 155.975 273.015 155.992 271.498 155.001C266.537 151.756 267.969 155.409 266.111 145.888C267.147 145.285 269.085 141.408 269.97 140.016C270.016 139.945 270.076 139.837 270.126 139.764L274.497 133.945C275.905 132.698 276.078 132.626 277.621 131.653L280.969 129.931C285.234 128.366 284.503 127.052 287.366 125.843C286.78 125.37 286.224 124.839 285.637 124.367Z" fill="#FDE219"/>
<path opacity="0.74" fill-rule="evenodd" clip-rule="evenodd" d="M55.5247 320.504C55.2981 318.637 54.8599 317.813 53.3395 317.158C51.7546 316.477 51.4604 317.1 50.1239 317.806C47.5591 319.158 45.8013 317.185 42.7824 317.632C41.428 317.832 41.6714 319.478 40.7801 317.062C37.8605 319.381 37.2335 318.834 35.0305 320.557C31.5555 323.284 31.1361 330.137 38.1239 330.935C42.6105 331.447 42.2299 331.098 46.3418 328.71C48.1703 327.646 49.3568 326.168 50.8115 325.652C51.84 325.287 56.0663 325.105 55.5247 320.504Z" fill="#FDE219"/>
<path opacity="0.74" fill-rule="evenodd" clip-rule="evenodd" d="M308.009 107.187C309.489 106.223 308.545 107.181 309.959 107.151C310.034 107.149 310.147 107.133 310.226 107.13C311.492 107.034 309.804 107.1 311.353 106.947C312.819 106.803 313.661 107.057 315.913 105.922C317.397 105.177 316.885 104.95 317.952 104.23C318.657 103.752 319.636 103.552 320.54 102.998L323.754 100.4C323.827 100.341 323.915 100.269 323.986 100.212L324.437 99.8365C326.319 98.1878 330.178 94.1238 332.449 93.1317L332.895 92.9884C333.847 92.7895 334.837 92.9084 336.013 92.5473C338.968 91.6441 338.351 90.9453 340.181 89.2188C342.361 87.1713 343.762 88.6178 345.66 85.8603C346.969 83.9572 346.729 84.8294 345.664 81.6764C341.883 82.2363 342.782 82.8151 340.28 84.3327C338.548 85.3804 336.612 86.137 335.011 87.088C332.972 88.2967 331.917 88.5833 330.246 90.2765C329.424 91.1108 329.038 91.6419 328.296 92.4307L320.09 99.1721C316.702 101.6 315.253 100.245 309.56 105.074C308.536 105.94 308.625 105.908 308.009 107.187Z" fill="#FDE219"/>
<path fill-rule="evenodd" clip-rule="evenodd" d="M288.41 124.04C288.315 124.091 288.045 124.3 287.86 124.352C287.714 124.388 287.67 124.438 287.591 124.509C289.898 124.386 288.768 125.071 291.135 123.735C295.218 121.428 296.621 120.188 300.251 118.521C302.391 117.538 304.312 116.371 305.652 114.319C306.474 113.07 306.075 113.906 306.253 112.827C306.838 109.283 302.553 110.884 301.079 112.729C299.984 114.101 300.125 114.698 298.484 115.097C298.58 117.247 298.384 116.518 296.867 117.536C295.818 118.239 295.572 118.672 294.257 119.126C292.335 119.795 292.679 119.606 291.264 120.388C290.165 120.996 289.772 121.325 288.812 121.729C289.335 122.114 288.828 121.786 289.563 122.129C289.663 122.175 289.994 122.293 290.099 122.344C291.129 122.829 290.349 121.986 291.299 123.091C289.662 123.182 289.893 123.246 288.41 124.04Z" fill="#FDE219"/>
<path fill-rule="evenodd" clip-rule="evenodd" d="M256.347 125.68C256.877 126.33 256.502 126.523 257.588 126.361C258.411 126.241 257.704 125.517 258.861 125.083L266.868 120.919C267.787 120.302 268.182 120.055 268.602 119.01L268.687 118.651C269.757 119.059 268.423 119.122 269.881 118.909C269.916 118.903 274.039 115.811 275.284 115.507C274.691 114.809 275.122 114.97 274.229 114.913L273.764 114.972C273.701 114.983 273.59 115.01 273.527 115.026C272.384 115.338 271.994 115.991 270.831 116.663C269.901 117.202 269.21 117.472 267.995 118.059C266.885 118.595 266.418 119.04 265.6 119.454C264.204 120.157 264.093 119.958 262.985 121.037C262.04 121.959 262.187 122.144 261.207 122.956C260.215 123.781 259.969 123.72 258.727 124.279L256.347 125.68Z" fill="#FDE219"/>
<path fill-rule="evenodd" clip-rule="evenodd" d="M285.85 106.577C283.544 107.139 285.221 107.812 281.946 109.354L275.848 113.691C278.987 114.114 279.47 111.711 282.496 110.971C282.768 109.823 282.905 110.741 282.345 109.694C285.118 109.996 284.238 108.791 286.381 107.798C285.862 106.928 286.251 107.662 285.85 106.577Z" fill="#FDE219"/>
<path fill-rule="evenodd" clip-rule="evenodd" d="M187.107 172.336C187.331 170.409 187.964 170.905 187.134 169.302C185.754 170.757 187.011 169.282 186.574 171.118L185.33 170.435C185.656 172.091 185.733 172.179 187.107 172.336Z" fill="#FDE219"/>
<path fill-rule="evenodd" clip-rule="evenodd" d="M238.005 111.506L239.703 110.284C240.577 109.416 240.396 110.14 240.367 108.555C238.18 110.299 239.637 109.795 237.851 110.23L238.005 111.506Z" fill="#FDE219"/>
<path fill-rule="evenodd" clip-rule="evenodd" d="M209.819 177.629L208.298 177.858L208.499 179.557C209.769 178.973 209.643 179.155 209.819 177.629Z" fill="#FDE219"/>
<path fill-rule="evenodd" clip-rule="evenodd" d="M283.276 127.314C282.943 125.637 282.96 125.952 281.882 125.356C281.703 125.989 281.577 125.61 281.754 126.22L283.276 127.314Z" fill="#FDE219"/>
<path fill-rule="evenodd" clip-rule="evenodd" d="M285.636 124.367L284.073 124.891C284.05 124.901 283.998 124.967 283.927 124.982C283.859 125.001 283.83 125.038 283.714 125.179L285.112 125.783C285.195 124.887 284.913 125.139 285.636 124.367Z" fill="#FDE219"/>
<path fill-rule="evenodd" clip-rule="evenodd" d="M143.835 303.289C143.835 307.572 154.764 313.966 155.713 305.44C156.103 301.963 150.775 298.685 148.639 298.685C146.066 298.685 143.835 300.555 143.835 303.289Z" fill="#FFCD00"/>
<path fill-rule="evenodd" clip-rule="evenodd" d="M100.249 349.317C102.969 349.317 101.453 338.983 101.118 337.989C100.55 336.313 101.457 337.203 100.249 336.658C100.776 334.881 100.431 336.602 100.683 336.037C100.703 335.995 100.921 335.737 100.775 334.953C100.025 330.931 101.203 328.851 98.5334 328.605C99.6375 331.178 98.7719 336.306 98.7163 340.234C98.7024 341.274 99.0691 341.71 99.0899 342.455C99.1277 343.762 98.6646 343.333 98.5474 345.123C98.5116 345.666 98.5682 345.94 98.5941 346.42L98.6905 347.722C98.8962 348.749 99.2002 349.317 100.249 349.317Z" fill="#FFCD00"/>
<path opacity="0.74" fill-rule="evenodd" clip-rule="evenodd" d="M251.061 282.725C252.388 286.048 251.638 283.893 252.777 285.793C252.375 286.642 251.747 287.664 251.747 288.862C251.747 295.518 256.231 295.623 257.927 296.532C257.927 298.912 257.799 299.421 258.76 300.975C259.865 302.767 259.783 302.512 259.914 304.324C260.582 313.712 262.929 313.378 265.865 316.429C266.654 317.252 266.251 317.123 267.011 317.833C268.009 318.765 268.633 318.704 270.488 320.464C273.679 323.487 273.924 320.984 275.909 319.319C279.821 316.035 276.922 319.384 279.831 315.268C280.279 314.638 280.536 314.488 281.017 313.903C282.808 311.722 282.447 307.965 282.088 305.202C281.376 299.78 281.593 298.792 277.414 294.31C275.862 292.644 270.646 292.12 269.746 292.218C268.268 292.38 266.966 293.271 265.758 292.772L262.778 290.725C261.816 289.523 262.073 285.201 258.225 284.897C257.226 284.817 255.659 284.978 254.186 284.601C252.173 284.089 253.336 283.09 251.061 282.725Z" fill="#FFE145"/>
<path fill-rule="evenodd" clip-rule="evenodd" d="M217.085 250.119C217.085 251.809 217.748 252.484 218.582 253.047L219.671 253.746C223.177 256.143 221.321 255.287 225.312 261.254C227.242 264.14 230.042 264.726 232.042 263.005C237.834 258.013 226.125 252.784 225.722 252.356C222.827 249.269 226.254 247.121 219.423 248.512C218.37 248.724 217.085 249.029 217.085 250.119Z" fill="#FFE145"/>
<path fill-rule="evenodd" clip-rule="evenodd" d="M230.811 240.146C230.811 242.328 230.556 242.808 231.765 244.45C233.511 246.822 238.245 248.226 240.866 245.63C241.235 245.263 242.823 243.164 242.823 242.832C242.823 236.379 238.81 235.544 234.585 235.544C233.683 235.544 234.382 235.267 232.852 236.677C231.702 237.742 230.811 238.373 230.811 240.146Z" fill="#FFE145"/>
<path fill-rule="evenodd" clip-rule="evenodd" d="M203.7 227.872C203.7 225.583 201.571 224.492 200.013 223.938C199.338 223.701 198.858 223.493 198.041 223.062C196.73 222.37 195.66 221.893 194.399 222.818C193.142 223.744 188.573 229.529 197.37 231.109C199.615 231.513 202.017 232.515 203.066 230.231C203.125 230.108 203.7 228.142 203.7 227.872Z" fill="#FFE145"/>
<path fill-rule="evenodd" clip-rule="evenodd" d="M183.45 237.845C183.45 239.053 183.749 239.493 184.658 240.332L188.94 242.833C189.221 241.661 189.244 241.954 190.014 241.347C190.569 240.907 191.138 240.559 191.687 240.148C189.793 235.734 191.027 234.01 185.852 234.01C184.426 234.009 183.45 236.138 183.45 237.845Z" fill="#FFE145"/>
<path fill-rule="evenodd" clip-rule="evenodd" d="M232.185 267.763C232.185 271.229 240.078 273.758 240.078 266.614C240.078 263.095 234.503 262.621 233.158 264.63C232.852 265.086 232.185 266.978 232.185 267.763Z" fill="#FFE145"/>
<path fill-rule="evenodd" clip-rule="evenodd" d="M204.386 242.447C209.582 251.121 215.464 238.61 207.818 238.61C205.664 238.61 204.802 240.454 204.386 242.447Z" fill="#FFE145"/>
<path fill-rule="evenodd" clip-rule="evenodd" d="M244.197 275.438C243.835 276.275 243.596 276.945 243.511 278.123C245.462 279.276 245.446 278.985 247.284 278.504C247.299 277.847 248.658 273.502 244.197 275.438Z" fill="#FFE145"/>
</svg>
