<svg width="364" height="432" viewBox="0 0 364 432" fill="none" xmlns="http://www.w3.org/2000/svg">
<path fill-rule="evenodd" clip-rule="evenodd" d="M117.38 290.704C117.766 290.481 118.172 290.618 118.809 290.075L122.369 286.992C123.771 285.696 123.761 286.341 125.322 285.753C126.459 285.325 129.071 282.799 130.178 281.965C130.604 281.647 131.021 281.473 131.515 281.059C131.898 280.738 132.221 280.482 132.687 280.171L137.382 276.177C138.904 274.8 141.028 273.816 142.836 272.9L145.576 271.399C150.097 268.634 154.994 266.552 159.783 264.48C165.117 262.174 166.901 262.86 170.787 260.601C171.266 260.323 171.701 260.148 172.162 259.991C172.457 259.889 173.588 259.442 173.737 259.411C174.214 259.311 174.354 259.516 175.166 259.29C176.809 258.838 176.691 258.302 178.187 259.803C179.273 260.888 180.283 260.934 180.736 261.616C181.369 262.577 181.425 263.853 182.875 263.482C183.663 263.279 183.838 262.987 184.488 263.637C185.595 264.743 185.112 266.553 188.03 266.376C189.733 266.277 190.136 266.935 191.382 267.252C192.269 267.477 192.076 267.065 193.07 267.346C193.532 267.475 194.128 267.824 194.556 267.962C196.448 268.563 196.318 267.809 196.755 266.262C197.364 264.101 197.745 264.753 199.111 264.978C200.252 265.169 200.556 263.898 202.203 264.924C203.045 265.448 203.929 266.447 204.728 265.65C203.9 265.045 202.566 264.085 202.526 262.717C202.497 261.712 204.109 258.826 204.207 258.799C205.554 258.939 206.13 260.223 207.122 259.567L207.1 257.844C206.767 257.559 207.036 257.783 206.593 257.537L205.123 256.532C205.144 255.186 205.593 254.738 206.068 253.879L209.717 254.215C209.8 254.123 210.272 253.43 210.316 253.326C210.533 252.847 210.848 252.994 210.136 252.512C209.439 252.041 208.612 252.353 207.861 251.906C206.913 251.337 205.733 248.192 207.383 247.792C207.586 247.745 207.709 247.734 207.919 247.737C208.324 247.744 208.554 247.833 208.897 247.886C209.77 248.024 209.874 248.064 210.64 247.734C210.79 247.307 210.826 246.871 210.598 246.554L210.121 247.639C209.971 247.322 209.928 247.228 209.833 246.747C209.866 246.722 209.921 246.698 209.938 246.69L210.413 246.37C209.139 245.793 209.559 245.951 208.327 245.938C207.809 245.934 207.885 245.999 207.36 245.587C206.528 244.941 206.695 243.953 206.696 242.905C206.7 241.772 206.657 241.93 207.206 241.299C207.711 240.716 209.231 239.705 208.24 238.373C207.985 238.029 205.667 237.08 205.282 237.072C204.586 237.059 204.202 237.586 203.704 237.217C203.134 236.793 203.602 236.711 203.486 235.685C202.778 235.232 202.554 234.589 201.667 234.565C200.386 234.525 201.144 235.29 199.535 235.256C198.61 235.233 198.114 234.946 197.351 234.565C196.392 234.082 196.434 234.203 195.91 233.295C196.554 231.417 198.748 231.134 199.961 228.116C198.237 228.339 198.799 228.156 197.741 227.415C196.128 226.28 193.624 229.862 192.466 230.2C189.666 231.019 189.778 228.979 188.373 229.289C187.684 229.44 186.025 231.222 185.091 231.775C183.809 232.534 183.105 233.463 181.987 234.469C181.436 234.964 180.953 235.204 180.352 235.719C179.866 236.135 179.427 236.737 178.902 237.201C178.209 237.806 177.501 237.685 177.045 238.171C176.034 239.243 177.69 239.392 176.056 239.77C174.269 240.177 175.721 240.12 174.888 241.555C174.448 242.316 173.881 241.948 173.151 241.955C173.977 243.264 173.805 242.173 173.347 243.869C173.07 244.887 173.484 245.143 173.458 246.508L172.476 247.597C172.398 247.616 172.387 247.675 172.345 247.724C174.884 248.75 172.708 249.165 173.498 250.814C173.777 251.397 174.238 251.394 174.437 252.207C174.643 253.053 174.151 252.863 174.366 253.616C175.082 254.873 175.437 253.567 175.932 255.04C176.453 256.672 173.527 257.332 172.715 257.61L168.111 258.7C166.522 258.993 165.522 259.791 164.098 260.483C163.413 260.811 162.84 261.012 161.954 261.331C159.947 262.056 158.209 263.236 156.014 264.02L144.39 269.896C143.789 270.243 143.077 270.621 142.451 271.005C141.867 271.362 141.268 271.876 140.663 272.306L127.994 280.416L123.521 284.908C122.377 285.924 121.59 286.743 120.318 287.751L118.707 289.23C118.502 289.396 117.504 290.434 117.38 290.704Z" fill="#BA9BC9"/>
<path fill-rule="evenodd" clip-rule="evenodd" d="M87.16 319.288C84.77 319.213 83.397 322.273 82.64 324.439C82.015 326.217 81.016 325.606 80.285 326.735C79.536 327.892 80.505 330.094 81.806 328.836C82.563 328.11 82.512 326.937 83.848 326.225C85.03 325.596 85.626 325.687 86.857 324.807C89.565 322.874 89.825 319.373 87.16 319.288Z" fill="#BA9BC9"/>
<path fill-rule="evenodd" clip-rule="evenodd" d="M46.282 386.949C46.717 385.162 48.797 383.452 48.095 381.286C47.131 379.944 41.93 383.033 40.852 384.461C40.264 385.241 39.592 385.569 39.322 386.73L46.282 386.949Z" fill="#BA9BC9"/>
<path fill-rule="evenodd" clip-rule="evenodd" d="M148.301 211.847C148.637 211.815 149.55 211.377 149.879 211.094C150.359 210.683 150.775 210.294 150.742 209.286C150.615 205.565 146.083 205.658 146.005 209.129C145.97 210.611 147.252 211.952 148.301 211.847Z" fill="#BA9BC9"/>
<path fill-rule="evenodd" clip-rule="evenodd" d="M60.5451 358.645C59.7521 355.374 58.2031 357.618 57.6851 358.104C56.9961 358.744 56.6681 359.022 56.0921 359.833C54.3291 362.303 53.0291 362.674 53.4091 363.572C53.9141 364.763 54.9581 363.397 55.2091 362.971C56.6601 360.505 59.3131 361.16 60.5451 358.645Z" fill="#BA9BC9"/>
<path fill-rule="evenodd" clip-rule="evenodd" d="M115.665 294.599C115.899 294.122 116.102 293.257 116.382 292.675C116.771 291.865 117.059 291.862 117.084 291.154C115.946 291.23 113.63 291.738 112.967 292.751L112.92 294.803C113.78 296.201 115.03 295.901 115.665 294.599Z" fill="#BA9BC9"/>
<path fill-rule="evenodd" clip-rule="evenodd" d="M106.648 302.894C107.559 302.834 107.641 301.624 107.945 300.678C108.348 299.408 108.957 299.232 107.423 299.511C106.404 299.694 105.61 299.582 105.384 300.771C105.218 301.667 105.684 302.963 106.648 302.894Z" fill="#BA9BC9"/>
<path fill-rule="evenodd" clip-rule="evenodd" d="M179.12 295.493C180.02 295.211 180.201 293.157 181.938 292.121C183.095 291.429 184.842 292.123 186.308 291.474C187.106 291.123 187.309 290.852 188.269 290.649L194.914 289.084C199.189 287.129 199.843 282.113 196.181 279.864C193.478 278.204 195.337 279.234 193.35 276.806C192.475 275.735 189.546 273.163 188.31 272.906C186.571 272.546 185.354 272.116 183.506 272.068C181.373 272.014 181.006 271.918 179.389 273.003C176.772 274.764 175.118 276.883 175.234 281.128L176.617 292.005C176.876 293.367 177.195 294.689 177.956 295.181C178.355 295.444 178.53 295.677 179.12 295.493Z" fill="#BA9BC9"/>
<path fill-rule="evenodd" clip-rule="evenodd" d="M169.46 304.16C170.134 304.052 170.849 304.044 171.302 303.492C171.597 303.128 171.933 302.161 171.976 301.543C172.141 299.3 169.356 297.488 167.988 299.352C166.524 301.345 167.81 304.429 169.46 304.16Z" fill="#BA9BC9"/>
<path fill-rule="evenodd" clip-rule="evenodd" d="M165.135 282.081C163.123 281.465 162.383 285.766 164.51 286.242C167.06 286.818 167.396 282.773 165.135 282.081Z" fill="#BA9BC9"/>
<path fill-rule="evenodd" clip-rule="evenodd" d="M191.737 297.291C191.438 296.97 190.959 296.669 190.386 296.999C190.02 297.213 190.207 297.097 189.99 297.489C189.382 298.582 189.383 299.779 190.434 300.538C192.679 302.152 193.218 298.861 191.737 297.291Z" fill="#BA9BC9"/>
<path fill-rule="evenodd" clip-rule="evenodd" d="M173.582 326.791C174.247 326.158 174.546 325.15 174.306 324.161C174.113 323.357 173.487 322.414 172.634 322.694C170.813 323.294 171.709 326.57 173.582 326.791Z" fill="#BA9BC9"/>
<path fill-rule="evenodd" clip-rule="evenodd" d="M207.384 266.855C206.806 266.318 205.506 266.423 205.304 267.546C205.15 268.413 205.719 269.551 206.246 269.932C208.075 271.246 209.056 268.405 207.384 266.855Z" fill="#BA9BC9"/>
<path fill-rule="evenodd" clip-rule="evenodd" d="M201.941 279.973C202.246 278.854 202.633 279.118 202.638 278.149L202.57 277.607C202.401 276.794 201.843 275.859 200.871 276.096C200.048 276.293 198.696 279.005 201.941 279.973Z" fill="#BA9BC9"/>
<path fill-rule="evenodd" clip-rule="evenodd" d="M179.524 317.106C179.605 313.503 175.956 315.793 177.584 318.038C178.39 319.151 179.498 318.254 179.524 317.106Z" fill="#BA9BC9"/>
<path fill-rule="evenodd" clip-rule="evenodd" d="M68.0441 348.081C67.4161 347.894 66.8521 348.097 67.1761 349.278C67.1191 349.241 66.9681 349.151 66.9431 349.151C66.5351 349.167 66.896 349.083 66.675 349.253C67.491 349.732 68.1341 348.724 68.0441 348.081Z" fill="#BA9BC9"/>
<g opacity="0.97">
<path fill-rule="evenodd" clip-rule="evenodd" d="M325.681 299.652C325.681 299.492 325.18 297.42 325.044 296.724C323.884 290.759 320.048 290.179 315.464 291.922C308.682 294.503 307.436 293.957 305.032 286.96C303.487 282.463 305.346 278.51 306.703 272.55C308.225 265.865 307.214 268.134 308.307 263.085C309.913 255.641 306.593 258.932 311.763 252.8C312.519 251.899 314.652 248.776 314.652 247.531C314.652 246.264 313.255 243.718 312.672 243.021C310.626 242.555 310.129 242.918 308.991 243.85C308.075 244.6 307.255 244.929 306.382 245.775C305.756 246.379 302.124 249.87 301.361 249.87C299.46 249.87 298.376 248.8 297.206 247.767C295.346 246.123 295.524 246.997 291.944 243.623L290.366 242.15C290.07 241.701 290.112 241.611 289.85 241.087C286.21 233.664 290.083 237.487 284.573 230.952L281.594 228.461C277.807 225.634 278.432 226.875 275.763 225.326C274.652 224.684 274.845 224.937 273.971 223.772C273.492 223.125 273.154 222.654 272.749 221.875C271.953 220.362 271.553 219.105 270.158 218.249C267.457 216.589 264.179 221.408 263.919 223.485C263.774 224.673 264.336 223.448 263.681 224.715C262.029 227.902 261.069 228.475 258.214 229.954C257.349 230.401 255.77 232.542 255.221 233.433C253.859 235.638 254.29 239.797 254.286 240.091C254.187 243.774 254.206 241.083 254.544 243.627C254.671 244.593 254.53 243.745 254.597 244.769C254.733 246.982 254.747 248.647 253.356 250.608C252.79 251.402 251.358 252.058 250.447 252.093C249.172 252.143 248.323 251.241 247.224 252.024C244.297 254.109 246.515 257.583 246.515 260.23C246.515 262.181 240.86 261.226 240.86 266.912C240.86 269.075 246.309 269.962 247.159 274.501L251.2 284.761C254.5 289.527 254.111 287.123 257.067 292.868C257.405 293.533 257.261 293.444 257.713 294.106C259.774 297.131 264.421 298.656 266.708 300.512C268.18 301.702 270.875 304.101 272.629 304.543C273.733 304.824 277.478 304.927 278.735 305.011C281.747 305.213 280.712 306.133 283.734 304.217C284.901 303.476 285.262 303.841 286.382 303.341C288.116 302.554 288.34 301.818 289.366 301.182C289.687 300.979 290.087 300.791 290.343 300.663C292.76 299.47 292.494 299.58 293.862 297.136C294.198 296.531 294.259 296.513 294.558 295.957C294.785 295.535 294.837 295.341 295.095 294.924C295.572 294.153 295.99 293.709 296.743 293.194C301.04 290.267 302.368 292.849 304.531 294.241C308.674 296.9 308.251 296.85 307.013 301.992C306.812 302.827 306.451 304.67 306.451 305.671C306.451 306.95 307.57 310.253 309.608 311.295C313.515 313.298 318.637 314.84 322.416 311.506C325.311 308.952 325.733 307.608 325.833 302.526C325.833 302.447 325.84 302.351 325.836 302.275L325.771 301.817C325.296 299.203 325.681 300.982 325.681 299.652Z" fill="#E000A3"/>
<path fill-rule="evenodd" clip-rule="evenodd" d="M354.892 333.621C355.585 334.074 360.165 338.945 362.82 334.832C363.3 334.089 363.186 333.97 363.197 333.165C363.208 332.121 363.22 332.073 362.79 331.328L361.869 330.052C361.834 329.998 361.782 329.921 361.745 329.865C361.706 329.814 361.653 329.733 361.614 329.684C361.149 329.022 361.079 328.819 360.444 328.396C360.046 328.13 360.06 328.202 359.666 327.98C359.186 327.708 359.477 327.881 358.927 327.517C356.999 326.24 357.874 327.363 355.526 325.853C353.377 324.47 351.647 324.624 349.307 322.513C347.838 321.187 346.382 319.697 344.907 319.697C344.284 319.697 340.948 322.253 340.948 326.713C340.948 329.963 342.426 328.638 346.319 329.718C347.604 330.076 346.623 329.729 347.596 330.213C350.733 331.779 348.808 329.66 354.892 333.621Z" fill="#E000A3"/>
</g>
<path fill-rule="evenodd" clip-rule="evenodd" d="M266.663 416.413C273.431 416.933 271.57 416.108 272.264 418.207C268.872 419.112 271.081 419.134 267.689 420.041L266.663 416.413ZM270.433 415.458C266.419 413.329 267.689 414.524 267.689 408.131C271.006 409.886 269.665 406.37 270.433 415.458ZM260.378 370.556C266.798 371.091 264.033 374.847 264.033 376.968C264.033 377.516 265.296 378.871 265.865 379.722C265.037 381.387 265.157 380.866 264.941 383.383C263.282 382.556 263.801 382.679 261.293 382.465C263.526 377.791 262.652 374.869 260.378 370.556ZM94.0161 61.7235C94.0161 54.2668 93.7871 59.5326 90.3621 54.3886C93.9111 54.6899 92.7411 55.2193 96.7551 55.3091C96.1311 58.0058 95.851 58.105 95.851 61.7235H94.0161ZM88.8021 42.2051L83.0521 36.0685C83.6721 40.9442 85.2551 39.7282 84.7901 45.0424C84.5231 48.181 83.959 49.7444 83.959 54.3898C83.959 60.6741 94.3901 70.604 98.8451 75.2115C104.546 81.1071 108.738 92.4752 108.26 100.796C108.144 102.856 108.182 105.072 107.967 106.216L106.785 111.16C105.773 117.061 102.767 121.288 98.6901 125.063C90.8331 132.318 92.6091 141.207 90.4341 151.609C89.6061 155.592 87.0511 157.127 84.6121 160.435C77.7831 169.693 69.2751 174.909 71.8701 181.904C73.0721 185.144 73.132 183.524 74.481 185.821C76.537 189.328 73.7581 192.34 72.1781 195.624C62.5001 215.78 76.8981 207.589 66.5911 223.013C69.5001 227.371 73.354 232.279 75.425 237.079C75.511 237.288 75.5711 237.55 75.6641 237.758C76.6031 239.741 75.3901 238.213 76.6761 239.545C77.6081 240.497 77.1541 240.538 79.7061 240.821C86.1661 241.535 87.3661 236.934 97.5791 242.355C104.735 246.157 103.401 255.054 103.169 260.597C103.043 263.64 103.295 263.65 102.6 266.446C101.976 268.952 101.329 268.76 101.329 270.667C101.329 276.905 107.725 275.661 107.725 279.833C107.725 288.08 104.545 298.483 105.871 305.194L105.895 310.99L119.357 316.744C124.065 318.417 130.226 318.877 133.572 321.736C136.699 324.4 141.196 327.271 143.956 330.571C146.538 333.683 147.243 337.374 147.33 341.646L147.116 354.076C146.242 358.734 146.802 355.257 145.268 358.709C140.039 370.42 145.067 385.064 156.438 374.487C161.493 369.785 162.003 363.137 162.147 356.243C162.247 351.445 164.574 349.189 165.458 344.128C165.852 341.852 166.579 339.21 166.889 337.314C167.428 333.976 167.415 332.982 168.057 330.235C196.304 327.879 198.117 324.231 198.181 344.022C198.213 355.106 206.527 362.507 212.3 355.345C217.85 348.467 208.665 337.943 215.569 332.054C218.471 329.574 226.389 327.466 229.134 333.214C230.955 337.027 228.061 347.2 230.404 353.865L231.75 357.106C231.797 356.97 231.917 357.534 232.038 357.728C232.115 357.517 232.315 357.278 232.385 357.152C234.759 352.551 233.701 346.896 236.66 341.281C238.304 338.174 241.259 330.235 245.751 330.235C253.327 330.235 252.894 337.054 254.544 342.504C255.286 344.965 256.719 346.264 256.719 346.729C256.719 351.475 255.494 353.207 255.286 357.968C255.107 362.206 255.397 362.284 256.843 366.77C258.595 372.188 259.153 379.917 260.378 385.22C260.511 385.278 260.743 385.159 260.799 385.157L261.607 385.071C262.939 385.249 262.878 384.305 263.118 387.054C260.252 388.211 261.86 385.354 261.294 389.751C260.825 393.453 262.8 395.588 263.064 399.026C263.63 406.482 265.867 411.481 265.867 411.796C265.867 415.514 263.691 412.548 264.539 416.815L266.404 422.245C270.032 436.059 278.66 432.222 278.66 422.792C278.66 419.07 270.11 408.321 269.735 401.001L268.262 384.734C267.606 380.292 268.604 384.71 268.604 379.726C268.604 373.595 268.302 376.456 267.536 374.377L265.751 366.09C265.152 363.154 264.822 363.336 264.097 360.417C259.661 342.591 265.813 345.034 268.321 335.449C269.866 329.535 268.276 329.783 271.259 324.65C273.079 321.506 274.582 320.194 276.486 317.055C279.773 311.653 280.427 303.098 283.234 297.244C287.421 293.046 308.829 298.355 301.172 278.279L300.668 277.118C300.613 276.964 300.514 276.709 300.471 276.565C296.652 264.195 301.055 259.307 297.855 248.692C296.681 244.785 297.084 241.259 296.027 236.798C294.65 231.016 296.448 228.884 296.701 223.715C297.07 216.121 289.568 206.837 302.689 204.029C308.795 202.717 310.655 203.779 310.655 196.439C303.259 193.755 302.944 183.553 301.821 175.886C300.273 165.253 312.158 162.221 295.679 146.39C294.538 145.293 294.882 145.838 293.942 144.465C293.093 143.224 293.442 143.465 292.665 142.082C291.336 139.753 291.731 140.292 289.898 138.439C283.076 131.528 282.903 130.765 278.029 121.929C272.529 111.947 278.342 112.406 259.425 93.8436C255.818 90.3032 258.945 86.6115 251.646 84.2363C248.193 83.1136 249.032 84.4832 245.899 82.661C241.906 80.346 238.928 73.3326 235.809 69.8607C227.75 60.8691 226.067 71.2197 214.002 64.1708C211.643 62.7964 207.451 66.3121 205.541 58.0625C200.951 59.2891 202.476 62.3261 197.181 62.1512C193.193 62.0177 194.536 59.2761 189.997 58.0625L187.285 63.5882C186.256 65.4411 187.507 62.1761 186.342 65.3915C183.684 65.3915 182.815 65.5782 180.338 64.9271C176.296 63.8494 179.799 63.3459 175.688 63.9025C172.681 64.3138 170.529 66.9431 166.893 67.8861C156.532 70.5851 163.12 72.4853 152.282 77.9826C143.645 82.3573 136.312 104.362 124.034 94.8799C111.261 85.0209 105.509 76.9758 102.261 59.8788C100.68 51.5477 93.2041 48.9893 88.8021 42.2051Z" fill="#C15799"/>
<path fill-rule="evenodd" clip-rule="evenodd" d="M176.146 145.302C177.12 144.561 177.028 144.748 177.624 143.958L178.734 147.047C176.767 147.164 178.265 147.272 177.375 146.433C177.08 146.158 176.347 145.456 176.146 145.302ZM174.472 142.45L173.13 142.251C173.231 142.501 173.795 143.401 173.816 143.537L173.44 145.037C177.358 143.77 172.56 145.512 176.146 145.302C175.422 143.688 175.277 143.731 174.472 142.45ZM161.667 132.229C159.425 130.123 161.416 131.04 159.303 131.104C158.808 128.5 162.681 129.617 162.243 131.944C162.018 133.132 161.81 132.893 161.016 133.9L159.968 132.959C160.635 132.184 158.699 132.684 161.667 132.229ZM174.472 142.45C175.105 141.47 172.955 142.386 175.947 141.107C174.063 138.304 170.23 138.437 167.595 135.003C165.321 132.029 167.072 132.727 163.848 130.291C162.541 129.308 162.631 129.431 161.773 128.438C160.97 127.501 161.189 127.391 160.234 126.421C157.197 127.132 158.822 126.201 156.272 128.114C156.904 132.834 158.311 133.625 163.881 136.079C169.925 138.742 166.044 141.302 171.506 145.177C189.12 157.66 180.283 151.751 185.233 157.722C187.073 159.947 185.771 159.02 187.58 158.966C187.862 159.017 188.046 160.487 189.305 158.04C190.085 156.517 188.865 155.522 188.865 155.522C188.793 155.38 188.499 154.96 188.447 154.809C187.815 152.959 187.376 154.973 188.632 152.805C189.44 154.086 189.582 154.04 190.31 155.657C190.383 155.655 190.467 155.532 190.487 155.522L190.855 155.291C191.463 155.17 190.085 154.351 191.522 155.359C192.55 156.081 192.174 155.803 192.892 157.407L189.5 158.859C191.486 162.019 193.933 161.736 196.415 163.86L207.371 178.716C214.968 188.721 209.886 179.018 211.576 185.812C212.994 186.154 213.546 186.269 215.07 186.456C215.496 187.642 215.997 189.628 216.332 190.519C217.07 192.468 217.111 191.586 218.078 193.021C216.921 194.236 217.773 193.637 215.816 193.99C219.036 202.969 211.804 202.529 215.054 210.957C218.201 219.122 213.595 216.229 219.924 221.294C221.819 222.807 221.939 223.411 224.484 223.334C227.405 223.251 225.689 223.373 229.046 224.28C234.905 225.864 231.939 227.299 235.14 229C238.259 230.662 237.721 227.154 241.074 235.299C243.198 240.463 246.752 239.11 249.296 241.74C251.177 243.681 250.923 250.536 251.451 254.09C252.045 258.105 252.995 258.12 253.954 260.551C254.874 262.876 254.145 263.765 254.89 266.487C256.187 264.96 256.356 265.34 258.284 265.033L258.092 260.328C258.607 257.582 258.783 259.466 258.483 255.902C257.491 244.234 258.779 245.354 262.594 242.485C261.741 240.115 259.91 238.638 261.618 234.848C264.151 229.228 268.823 230.698 270.718 230.35C276.978 229.215 281.621 226.923 282.467 226.901C282.579 226.9 282.763 226.902 282.876 226.911L286.027 228.443C286.109 228.53 286.237 228.68 286.313 228.773C289.079 232.152 289.461 241.3 292.27 246.867C293.866 250.039 295.322 249.786 298.33 249.306C296.742 237.435 295.184 238.987 293.215 234.168C292.574 232.606 292.839 231.58 292.576 229.641L299.095 228.067C301.225 228.188 302.397 230.348 303.315 232.692L305.395 238.87C305.767 239.828 305.974 240.142 306.83 241.714L308.073 243.711C309.026 241.718 308.611 242.119 311.023 241.022C312.136 243.487 311.459 242.099 312.253 242.634C311.101 238.432 309.601 236.251 308.231 232.626C306.031 226.817 305.473 226.887 306.025 220.686C306.731 212.758 305.231 210.131 301.125 204.711C300.144 203.419 298.492 201.622 297.767 200.196C294.943 194.666 295.264 196.284 292.596 191.995C292.113 191.214 291.96 190.834 291.157 189.729C286.553 183.416 282.298 174.218 281.687 165.485C281.386 161.208 283.229 158.523 285.567 155.547C287.299 157.31 288.463 161.642 291.063 162.483C291.123 162.502 291.336 162.546 291.386 162.562C291.475 162.59 291.887 162.664 292.071 162.76L289.407 155.28C288.22 152.332 288.572 150.687 290.461 149.17C293.145 151.695 292.824 152.118 294.478 156.73C297.403 155.145 295.403 155.655 295.403 155.654C295.395 155.544 295.211 155.231 295.168 155.088C292.85 147.31 289.734 143.655 295.251 140.696C297.426 146.384 298.107 145.203 299.069 144.058C300.471 142.608 299.454 144.169 299.6 142.259C300.004 137.009 299.924 140.425 300.828 136.695C301.365 134.467 300.87 135.097 300.406 132.389C299.554 127.459 297.407 121.362 297.405 118.654C297.403 115.385 296.887 112.821 295.541 110.588C293.946 111.793 294.186 112.08 292.591 113.282C294.405 116.165 295.224 118.2 291.761 120.062C289.348 118.226 289.167 115.264 289.163 112.153C289.154 108.297 290.521 107.911 290.05 104.376C291.92 103.764 293.508 104.92 297.15 105.727L298.249 106.08C300.672 107.258 302.625 113.515 305.082 110.061C307.243 107.016 304.624 98.8965 302.48 96.7541C299.975 94.2382 298.513 93.4441 295.308 88.8472C292.123 84.274 292.162 87.6868 290.872 81.692C290.313 79.1029 290.203 78.6869 288.593 77.4862C286.112 75.6345 288.237 78.792 285.488 74.6749C284.34 72.9579 284.054 72.2595 282.859 70.6819C281.196 68.4922 282.009 69.8382 280.556 67.0529C277.975 62.1015 276.538 64.7238 274.259 61.5721C271.552 57.8261 273.522 55.7593 274.325 53.2871C272.861 52.1775 272.137 52.1373 270.523 51.0549C261.689 45.1203 265.622 47.9694 264.69 40.9926C262.955 40.852 262.99 41.3294 261.268 41.3388C253.417 41.3838 255.321 38.8005 252.63 38.3066C250.232 38.1116 249.667 39.5746 246.975 40.7279C244.522 37.0906 242.099 40.5566 240.748 40.7374C238.712 41.0139 240.836 40.2919 238.634 40.4017C235.014 40.5766 237.902 42.0325 234.909 43.681C232.893 44.7906 232.653 43.3477 229.797 43.8015C228.437 45.9451 229.139 46.159 226.727 47.973C225.28 45.8234 224.373 45.4867 221.656 46.575C222.904 48.5579 222.95 48.3653 223.998 51.2806C221.814 52.4517 222.394 52.7223 220.793 53.8508C219.156 55.003 218.974 54.5267 217.666 55.9448L213.459 63.672C213.419 63.8079 213.388 64.0041 213.36 64.1424L213.213 65.6077C212.776 68.5206 213.893 65.948 211.944 68.5903C209.993 71.2338 209.628 74.9739 207.663 77.823L205.197 80.749C203.497 83.1325 203.994 84.5553 203.377 87.5651L198.431 100.066L196.051 98.9733C195.941 98.9166 195.466 98.6448 195.28 98.5597C193.235 100.962 191.676 103.203 191.412 106.97C190.901 114.147 193.167 111.819 195.295 114.976C194.847 117.198 193.524 119.35 192.32 121.24C190.359 120.77 189.686 120.491 187.131 121.323C186.973 122.112 186.46 123.547 186.481 124.159C186.643 128.695 188.389 124.975 189.032 129.363C189.412 131.966 188.178 128.808 189.208 132.573C191.44 131.612 191.434 131.39 192.946 130.256C194.266 134.186 190.56 136.145 193.133 136.025C194.073 135.979 193.527 136.125 194.274 135.121C196.632 131.94 194.365 130.044 198.041 128.072L203.216 133.952C203.325 134.051 203.468 134.154 203.574 134.263C205.501 136.19 205.241 140.574 204.638 139.939C204.558 139.853 204.468 140.201 204.401 140.343C208.802 139.541 204.225 139.579 208.262 136.549C211.055 140.988 208.822 139.537 209.532 143.335C210.205 146.962 212.117 146.106 211.505 149.857C211.218 151.614 210.956 150.819 210.763 153.123C210.536 155.868 210.903 160.047 208.902 161.975C212.199 164.476 210.781 162.724 212.359 161.697C216.012 159.313 216.357 165.589 217.185 168.503C217.829 170.759 218.876 171.861 216.806 172.75C214.472 173.757 204.882 165.211 203.022 163.778C197.102 159.213 196.011 156.322 193.306 154.041C191.079 152.159 188.465 151.51 186.073 149.84C180.096 145.67 181.533 145.988 176.742 141.482L174.472 142.45Z" fill="#C15799"/>
<path fill-rule="evenodd" clip-rule="evenodd" d="M140.907 92.5779C143.054 98.555 141.299 94.2583 144.809 98.0729C149.108 102.73 155.174 99.0596 156.537 95.9458L157.575 91.8287C157.67 83.5555 149.624 80.9912 147.516 81.8976C143.976 83.4125 143.236 83.4633 141.378 87.1645C140.578 88.7633 140.132 90.4213 140.907 92.5779Z" fill="#C15799"/>
<path fill-rule="evenodd" clip-rule="evenodd" d="M131.125 105.333C135.167 116.6 151.254 103.996 139.209 99.1885C134.988 97.5022 129.227 100.052 131.125 105.333Z" fill="#C15799"/>
<path opacity="0.65" fill-rule="evenodd" clip-rule="evenodd" d="M125.558 73.4531C127.557 73.3337 126.121 73.3727 127.205 74.3405C127.311 74.4292 128.076 75.1512 128.143 75.2008L131.536 73.7485C131.471 70.9632 131.527 73.8608 131.923 71.8897C132.155 70.7564 132.253 71.443 132.072 70.5047C131.939 69.8028 130.882 68.3374 129.883 67.3176C127.971 67.6213 123.534 67.4204 125.558 73.4531Z" fill="#C15799"/>
<path fill-rule="evenodd" clip-rule="evenodd" d="M297.142 164.154C297.588 165.409 297.566 166.005 298.441 166.774C299.958 168.099 298.294 167.621 300.736 166.9C300.889 164.636 300.487 164.389 299.527 161.71L298.958 161.949C299.838 164.392 299.684 164.542 299.95 166.524C299.845 166.463 298.695 166.667 297.705 163.913L297.142 164.154Z" fill="#C15799"/>
<path fill-rule="evenodd" clip-rule="evenodd" d="M159.303 131.103C161.416 131.039 159.425 130.122 161.667 132.228C158.699 132.684 160.635 132.184 159.969 132.958L161.017 133.899C161.811 132.892 162.019 133.131 162.244 131.943C162.681 129.617 158.808 128.498 159.303 131.103Z" fill="#C15799"/>
<path fill-rule="evenodd" clip-rule="evenodd" d="M176.146 145.302C175.422 143.688 175.278 143.731 174.472 142.45L173.13 142.251C173.231 142.501 173.795 143.401 173.816 143.537L173.44 145.037C177.357 143.77 172.56 145.513 176.146 145.302Z" fill="#C15799"/>
<path fill-rule="evenodd" clip-rule="evenodd" d="M308.07 243.711C309.139 246.095 309.023 245.63 310.879 246.076C310.714 244.796 310.647 244.996 310.773 243.978L308.07 243.711Z" fill="#C15799"/>
<path fill-rule="evenodd" clip-rule="evenodd" d="M176.146 145.302C176.347 145.456 177.08 146.158 177.375 146.435C178.266 147.274 176.767 147.164 178.734 147.048L177.624 143.959C177.027 144.748 177.119 144.561 176.146 145.302Z" fill="#C15799"/>
<path opacity="0.65" fill-rule="evenodd" clip-rule="evenodd" d="M14.458 84.2634C11.789 81.4486 15.11 80.4346 13.604 76.6142C11.854 72.1709 7.92799 75.3237 5.59299 70.5732C4.46899 68.2949 4.359 67.9817 1.634 67.5173C1.023 68.601 0 69.2178 0 70.4173C0 73.1057 3.26999 72.8882 3.26999 76.7028C3.26999 76.7028 1.28699 79.6784 3.23499 82.5417C6.25499 86.9873 10.726 82.6988 13.254 85.1946C14.506 86.4295 13.114 85.594 15.849 89.3814C17.757 92.0202 16.028 94.3682 17.154 97.0188C18.176 99.4201 20.203 99.3539 22.146 100.305C25.318 101.854 25.922 105.131 27.633 107.834C31.27 113.575 29.134 118.63 30.965 122.265C32.59 125.499 35.257 126.082 38.441 126.959C40.14 135.584 38.262 133.039 40.642 140.305C41.567 143.136 42.101 142.698 43.808 144.3C47.99 148.226 50.09 145.512 52.863 144.968C54.929 144.56 55.498 144.781 57.412 144.063C64.359 141.465 68.209 135.203 69.813 127.301C71.006 121.424 70.17 120.902 68.731 117.259C68.021 115.458 67.589 111.524 63.867 109.479C60.477 107.614 58.499 107.603 54.807 107.624C52.395 107.64 51.547 107.856 49.643 106.958C44.428 104.494 46.267 107.109 38.427 103.295C34.432 101.353 33.131 100.901 29.757 98.0753C25.177 94.237 29.281 97.6735 26.35 93.8861C25.131 92.3073 25.163 93.1581 22.997 91.0854C21.749 89.886 20.713 89.5906 19.378 88.592C19.134 88.41 18.609 87.9385 18.442 87.7648L14.458 84.2634Z" fill="#C15799"/>
<path opacity="0.65" fill-rule="evenodd" clip-rule="evenodd" d="M181.014 37.7193C181.014 47.6634 184.534 47.2014 187.985 53.1607C188.415 53.9076 188.206 53.7528 188.893 54.5008C195.201 61.3677 205.042 61.8499 208.983 52.4068C210.933 47.7379 213.388 50.7678 216.592 50.7678C217.902 50.7678 218.891 48.7624 218.594 46.5467C218.349 44.7233 217.394 43.2556 216.138 42.582C213.717 41.2822 210.867 44.4196 207.75 39.4659C202.591 31.2648 197.931 22.3972 188.099 28.6934C187.267 29.224 186.775 29.2606 186.075 29.6825C183.648 31.1454 185.552 31.3132 183.531 33.4462C182.364 34.6823 181.014 34.9447 181.014 37.7193Z" fill="#94006B"/>
<path opacity="0.65" fill-rule="evenodd" clip-rule="evenodd" d="M190.009 19.3567C191.11 19.3567 192.161 18.6713 193.029 18.0864C195.218 16.6068 196.001 13.7223 195.327 11.1828C194.764 9.05097 194.649 9.3275 193.639 7.81727C192.805 6.56701 192.682 5.88399 191.657 4.8429C188.819 1.95597 185.582 0.988159 181.425 0.988159C180.449 0.988159 178.562 4.03698 179.39 6.27514C180.286 8.69411 179.859 6.19596 180.014 9.1987C180.075 10.3804 180.271 11.0304 180.907 12.2298C182.265 14.8047 186.808 19.3567 190.009 19.3567Z" fill="#94006B"/>
<path opacity="0.65" fill-rule="evenodd" clip-rule="evenodd" d="M140.938 44.4846C140.938 45.3543 141.293 46.7949 141.566 47.6055L142.547 49.3497C142.604 49.4206 142.695 49.5175 142.752 49.5896C142.81 49.6605 142.9 49.761 142.957 49.8319C143.014 49.9028 143.098 50.0103 143.156 50.0788L144.962 51.3291C146.954 52.0511 150.516 53.4739 152.092 48.4835C152.602 46.8835 153.609 44.695 151.275 41.9368C150.674 41.2278 148.775 39.5486 147.807 39.408C144.448 38.9223 140.938 40.2387 140.938 44.4846Z" fill="#94006B"/>
<path fill-rule="evenodd" clip-rule="evenodd" d="M22.6389 241.849C22.8639 238.662 23.9779 239.875 23.8069 238.42L25.7219 237.598C25.5559 239.979 24.3299 241.127 22.6389 241.849ZM112.052 184.712C113.581 186.035 113.581 185.823 112.052 187.146C111.546 185.751 111.727 186.539 112.052 184.712ZM97.1579 142.157C86.3569 141.632 91.603 141.432 83.6089 136.91C81.6659 135.811 79.8449 133.658 77.6219 133.658C76.0789 133.658 74.0279 134.375 74.0279 136.696C74.0279 139.727 75.5679 140.72 75.5679 143.378C75.5679 152.225 66.0669 150.945 61.7729 147.506C60.527 146.505 60.1729 145.576 58.9359 146.183C57.7229 146.784 55.4839 151.64 61.0979 154.42L65.2879 156.751C65.2879 160.552 65.3219 164.374 63.3979 166.675C55.208 176.449 57.4409 176.118 50.8749 176.172C46.1189 176.215 45.2549 179.155 45.4509 183.682C45.5339 185.64 45.3479 186.177 46.6059 188.56C47.8059 190.836 48.7819 191.753 48.8459 195.047C46.3509 195.735 46.9849 196.411 43.7519 196.927C37.6909 197.887 33.7609 198.206 29.8309 203.554C30.0069 203.87 31.0809 206.074 31.1839 206.213C33.1889 208.935 37.0659 206.732 40.3279 209.377C42.9359 211.486 43.1939 214.87 43.1939 218.754C43.1939 224.257 42.8439 227.089 39.1699 231.015L36.6159 234.071C34.1369 236.573 27.6479 236.486 25.2069 236.56C22.1849 236.65 19.5549 237.651 19.5549 241.851C19.5549 246.599 27.9679 244.899 31.1349 241.569C32.8069 239.817 33.9629 240.379 36.3629 239.85C40.1659 239.011 41.8839 238.205 46.2769 238.205C49.5909 238.205 55.2189 251.324 56.5509 254.615L50.9959 260.201C48.6799 261.962 46.2629 264.679 44.7319 267.385C45.2539 268.664 45.1119 267.931 45.2469 269.812C48.0699 268.27 47.1499 272 52.7449 265.915C53.0079 265.629 53.9419 264.734 54.1789 264.574C63.6539 257.99 61.8759 262.739 68.0439 265.338C77.8059 269.449 72.9399 270.928 72.6849 276.409C72.5909 278.498 71.9699 278.661 71.9699 281.365C71.9699 283.361 73.0419 283.885 74.0279 285.617C78.0529 284.509 77.6349 282.372 79.1509 278.309C79.7369 276.749 79.9769 275.047 81.1039 273.933C84.4239 270.642 86.0789 272.677 88.6769 274.361C91.4429 276.157 96.7409 276.64 96.9249 281.304C97.1609 287.234 92.2899 293.698 96.924 295.604C98.099 296.091 97.3969 295.823 98.6899 295.952C101.72 290.596 100.673 291.721 101.058 285.931C101.377 281.1 102.797 277.795 107.156 278.584C109.981 279.098 110.008 279.349 110.689 282.368C111.365 285.374 111.674 284.887 113.636 286.175C116.431 288.012 116.537 293.11 119.76 294.126C121.114 291.101 120.469 292.144 120.92 288.209C121.266 285.21 122.329 282.75 123.223 279.989C123.91 277.85 124.709 272.855 126.442 272.855C129.001 272.855 129.97 272.314 131.063 275.333C131.178 275.657 131.555 276.925 131.581 277.046C131.869 278.432 131.68 277.094 131.722 278.251C131.81 280.604 131.578 283.796 134.15 283.796C137.016 283.796 137.659 279.76 138.767 277.1C142.371 268.458 140.869 265.143 144.185 261.637C145.983 259.735 148.318 258.967 148.537 255.834C150.85 255.606 149.298 255.961 150.733 254.789C153.569 252.474 154.74 251.846 156.041 247.689C157.512 242.984 156.613 240.035 157.906 234.708C159.067 229.951 160.295 232.718 161.602 223.877C161.918 221.739 162.396 219.809 162.924 218.145C163.881 215.126 165.155 209.091 165.17 206.096C165.182 204.041 164.462 201.338 164.539 199.939C164.678 197.359 166.01 197.321 166.01 194.441C166.01 192.651 162.924 186.16 162.924 183.502C162.924 181.193 164.25 181.722 164.466 178.64L162.474 177.35C161.072 176.276 161.877 177.503 161.061 175.373C158.7 169.223 158.169 172.359 157.346 169.062C156.902 167.306 157.571 166.508 155.714 165.935C154.722 165.622 154.791 165.96 153.51 165.471C151.382 164.659 151.434 163.678 150.597 161.615C149.845 159.762 149.412 158.398 147.466 158.023C142.006 156.963 143.195 158.132 138.789 154.308C133.818 149.994 127.021 150.138 122.469 146.256C118.316 142.716 114.604 139.712 109.173 143.018C107.539 144.007 107.343 144.598 104.859 144.598C102.656 144.598 103.194 144.383 102.046 143.67L101.061 143.011C100.188 142.569 98.2379 142.207 97.1579 142.157Z" fill="#94006B"/>
<path fill-rule="evenodd" clip-rule="evenodd" d="M313.766 229.995C312.031 232.892 311.543 230.988 311.011 232.496L308.792 232.002C310.087 229.843 311.806 229.56 313.766 229.995ZM201.073 225.039C200.246 222.757 200.14 222.963 202.234 222.713C202.054 224.385 202.257 223.513 201.073 225.039ZM195.007 275.624C205.08 283.317 199.969 280.018 205.45 289.662C206.783 292.009 207.499 295.281 209.62 296.76C211.097 297.79 213.401 298.464 214.507 296.25C215.953 293.353 214.951 291.378 216.222 288.833C220.44 280.382 228.91 287.936 231.371 294.081C232.088 295.87 231.983 296.988 233.453 297.232C234.897 297.47 239.35 294.318 235.315 287.924L232.421 282.902C234.234 279.273 236.021 275.595 238.959 274.683C251.447 270.8 249.157 269.625 255.457 273.947C260.02 277.074 262.25 274.841 264.222 270.384C265.077 268.456 265.509 268.067 265.445 264.951C265.38 261.98 264.889 260.449 266.403 257.264C269.11 258.264 268.831 257.196 272.161 258.858C278.412 261.974 282.322 264.291 288.625 261.794C288.605 261.377 288.635 258.555 288.604 258.357C287.987 254.416 283.233 253.943 281.371 249.242C279.891 245.492 281.255 242.084 283.109 238.374C285.735 233.113 287.418 230.642 292.801 229.339L296.699 228.119C300.264 227.378 306.423 231.787 308.788 233.341C311.718 235.269 314.707 236.064 316.713 232.047C318.98 227.513 310.127 223.534 305.512 224.606C303.08 225.167 302.245 223.858 299.697 222.768C295.664 221.035 293.636 220.661 289.44 217.737C286.275 215.528 287.15 199.243 287.446 195.209L295.418 193.57C298.477 193.432 302.08 192.445 304.83 190.881C304.943 189.312 304.73 190.104 305.498 188.215C302.066 187.811 304.721 184.861 296.477 186.946C296.085 187.046 294.767 187.277 294.461 187.276C282.271 187.254 286.234 183.9 281.579 177.308C274.212 166.879 279.571 168.706 282.425 163.64C283.514 161.707 284.184 161.963 285.472 159.381C286.423 157.474 285.648 156.256 285.538 153.949C281.161 152.324 280.541 154.647 277.154 157.515C275.85 158.623 274.806 160.084 273.201 160.396C268.459 161.329 267.847 158.284 266.169 154.94C264.384 151.381 259.55 147.393 261.598 142.813C264.203 136.99 271.936 134.057 268.418 129.148C267.529 127.902 268.074 128.628 266.9 127.643C261.45 130.741 262.986 130.366 259.856 135.644C257.247 140.045 254.311 142.256 250.527 138.6C248.071 136.23 248.165 135.969 248.955 132.63C249.744 129.304 249.214 129.568 247.954 127.031C246.156 123.415 248.49 118.472 245.895 115.355C243.159 117.347 244.27 116.774 241.963 120.237C240.199 122.871 238.01 124.514 235.843 126.559C234.166 128.144 231.021 132.384 229.364 131.229C226.921 129.528 225.733 129.398 226.132 125.785C226.175 125.398 226.42 123.934 226.452 123.806C226.835 122.283 226.38 123.692 226.89 122.557C227.93 120.253 229.676 117.357 227.216 115.64C224.481 113.733 221.94 117.161 219.612 118.962C212.046 124.822 211.899 128.989 207.058 130.133C204.432 130.753 201.837 129.93 200.133 132.779C197.813 131.456 199.467 132.149 197.533 132.313C193.723 132.638 192.301 132.455 189.075 135.56C185.428 139.083 184.882 142.491 181.1 146.723C177.725 150.498 177.871 147.036 172.405 154.613C171.083 156.442 169.708 157.97 168.41 159.206C166.053 161.456 161.962 166.374 160.511 169.231C159.525 171.182 158.921 174.245 158.181 175.529C156.822 177.901 155.53 177.053 154.156 179.803C153.299 181.515 153.154 189.77 151.885 192.313C150.781 194.518 149.768 193.131 148.092 195.933L149.379 198.491C150.209 200.452 150.025 198.738 149.788 201.319C149.111 208.769 151.109 206.131 150.33 209.826C149.915 211.801 148.894 212.116 150.394 213.9C151.196 214.859 151.292 214.495 152.282 215.813C153.928 218.005 153.408 218.91 153.225 221.439C153.059 223.708 152.823 225.301 154.502 226.955C159.214 231.603 158.639 229.696 161.025 236.285C163.714 243.718 170.278 248.109 172.776 254.847C175.057 261 177.168 266.343 183.936 266.8C185.972 266.942 186.441 266.507 188.814 268.162C190.917 269.626 190.3 269.474 191.057 270.922L191.686 272.21C192.31 273.213 194.002 274.855 195.007 275.624Z" fill="#E000A3"/>
<path fill-rule="evenodd" clip-rule="evenodd" d="M200.821 196.199C200.62 197.832 198.655 200.173 197.725 202.145C196.682 204.35 195.324 205.58 193.51 206.871C191.541 208.272 190.181 209.567 188.537 210.625C186.637 211.852 184.405 212.461 182.341 213.364C180.325 214.24 178.811 215.666 177.109 216.801C174.116 218.808 174.356 217.972 172.321 221.243C170.6 224.013 165.131 226.695 162.194 228.973C159.627 230.963 155.592 231.104 152.985 232.548L143.98 236.367C141.882 237.125 139.378 237.825 137.482 238.759C135.093 239.942 134.569 241.546 131.656 241.204C129.639 240.967 126.417 241.165 124.855 241.815C118.605 244.42 113.67 240.403 112.207 246.712L113.112 247.288C115.243 248.885 118.046 248.358 120.279 247.356L128.752 245.105C130.745 244.448 133.315 242.736 136.425 241.907C139.386 241.113 143.022 240.826 145.317 239.725C152.542 236.262 156.52 238.179 161.106 233.378C162.573 231.839 162.222 231.63 164.198 231.383C168.473 230.845 166.559 226.438 176.009 228.565C180.145 238.834 168.218 231.455 167.181 235.982C168.91 237.658 171.439 236.291 173.927 235.908C178.922 235.127 177.773 235.122 180.509 237.609C180.721 245.061 176.468 240.814 174.66 244.827C176.332 247.45 177.855 243.745 180.958 245.972C182.245 246.898 182.098 247.492 182.808 249.032C183.384 250.282 184.132 251.445 184.22 252.642C184.491 256.418 182.107 256.642 179.799 258.109C177.18 259.765 174.651 259.261 174.628 262.789C176.49 264.322 179.178 260.537 181.94 260.419C185.982 260.247 186.589 260.671 188.41 264.752C191.552 271.775 189.106 271.975 183.954 275.261C181.838 276.611 181.6 276.136 182.627 278.965C184.375 278.916 185.5 277.672 186.806 276.443C192.315 271.256 196.047 277.4 195.99 279.84C195.889 284.072 195.634 282.86 198.52 284.787C198.936 287.664 196.972 295.291 201.711 293.217C203.083 292.615 203.476 290.757 204.927 290.569C205.627 290.482 208.849 291.656 209.533 291.844C211.875 292.475 211.968 292.522 212.96 294.446C215.444 299.251 217.12 295.597 219.277 300.553C220.198 302.665 220.105 303.979 220.665 306.007C221.677 304.448 221.351 300.792 222.705 298.307C223.858 296.187 226.618 295.498 228.634 296.044C229.926 299.457 228.152 298.817 231.575 300.527C233.888 301.684 233.503 302.224 233.666 304.967C233.793 307.128 234.183 310.229 233.933 312.072C233.753 313.415 233.474 313.868 233.704 315.098C233.969 316.507 235.095 318.511 233.042 318.831C229.859 319.333 228.254 317.604 225.633 321.901C222.59 326.889 225.27 335.504 227.18 336.794C228.776 337.875 230.172 337.101 231.834 338.303C233.716 339.666 237.552 343.133 239.76 341.767C241.249 340.35 239.507 337.703 239.46 335.901C239.373 332.703 239.163 332.32 238.447 329.118C237.897 326.656 238.16 324.363 237.626 321.841C236.959 318.695 237.266 317.54 237.909 314.798C240.989 314.915 240.059 316.154 242.572 316.493C244.113 313.675 245.283 301.973 245.039 298.263C244.647 292.335 244.137 295.725 245.799 289.677C246.393 287.524 246.451 287.553 247.26 286.123C248.237 284.39 247.866 284.072 248.494 282.289C249.796 278.611 251.107 279.441 250.307 274.386C248.887 265.446 250.393 264.613 250.915 260.544C251.142 258.773 250.961 257.739 251.84 256.464C252.594 255.373 256.184 252.935 257.638 252.661C257.983 254.071 258.669 255.241 259.18 256.913C259.636 258.399 260.307 260.395 260.826 261.576C261.757 261.089 261.564 260.671 262.183 259.652C264.779 260.044 264.886 261.285 266.677 262.559L267.782 263.403C268.839 264.77 267.598 263.766 268.377 265.272L270.271 265.296C269.407 262.658 269.453 266.209 268.548 262.813C270.881 263.622 272.465 263.621 270.359 260.393C268.478 257.515 265.671 256.504 267.679 247.554C268.751 242.772 265.303 239.415 263.728 235.774C262.762 233.536 262.41 231.546 261.772 229.341C261.156 227.214 260.565 225.33 259.712 223.445L257.097 217.779C256.426 216.2 256.802 216.822 255.76 215.393L249.583 201.227C248.587 198.547 250.212 197.585 248.838 194.205C247.364 190.578 246.517 192.435 244.638 190.909C243.274 189.801 244.129 189.324 243.773 187.495C243.416 185.668 243.244 186.44 241.756 185.58C240.544 184.878 240.652 184.529 239.777 183.89L238.381 182.91C235.988 180.192 238.439 181.209 235.008 180.606C233.544 180.348 233.471 179.812 233.233 178.741C231.583 178.763 231.836 178.741 230.291 178.48L227.088 177.642C226.301 177.536 227.028 177.677 226.156 177.87C223.434 178.479 226.177 177.617 223.792 177.473C223.388 177.979 223.102 178.434 222.7 179.073C220.933 178.854 222.514 178.605 220.474 178.586C219.609 180.143 219.741 179.773 218.789 180.96C216.625 180.464 215.58 178.829 215.013 176.851C213.366 171.099 211.615 161.094 211.742 154.994C211.776 153.44 212.427 149.749 212.818 148.137C213.439 145.593 213.607 143.544 212.826 140.785C212.302 138.935 210.594 136.72 209.503 135.999C208.147 135.098 205.218 134.724 203.845 134.956C201.219 135.405 196.684 139.558 195.054 141.618C193.884 143.087 193.273 145.239 192.237 147.064C191.18 148.917 190.172 150.543 191.762 153.007C193.168 155.193 193.599 155.138 194.74 157.827C198.722 167.22 197.393 161.882 196.518 171.08C196.241 173.961 196.973 175.454 197.71 177.822C200.395 175.63 200.088 168.771 200.949 167.859C203.653 166.453 205.118 168.326 205.229 171.652C205.446 177.971 207.602 193.977 200.821 196.199Z" fill="#D787CA"/>
<path opacity="0.65" fill-rule="evenodd" clip-rule="evenodd" d="M140.386 276.002C141.136 277.467 141 276.032 141.409 277.926C142.156 281.394 140.513 279.931 143.321 281.69C145.144 282.825 144.24 283.436 144.767 286.174C145.252 288.715 144.992 289.243 144.956 291.506C144.933 292.656 145.091 295.485 145.2 297.029C145.331 298.841 144.992 300.058 145.087 302.399C145.228 306.037 145.679 309.856 145.676 313.786C145.672 319.749 147.225 318.283 145.164 324.394C142.433 332.496 144.41 336.186 147.909 342.873C150.682 348.179 147.811 348.721 146.582 351.469C147.577 353.605 148.204 353.779 149.013 355.219C151.27 359.232 144.143 358.635 144.032 366.382C143.975 370.43 144.91 373.073 146.703 375.416C149.052 378.483 149.156 379.834 151.385 382.155C152.402 383.219 152.834 384.171 153.845 385.383C158.366 390.796 155.428 389.455 165.492 389.107C170.666 388.929 177.711 385.446 180.624 382.482C183.798 379.25 186.872 368.445 186.611 365.178C186.078 358.546 184.663 352.267 179.647 348.766L176.298 346.573C174.32 345.027 174.189 346.313 172.307 346.075C170.602 345.86 170.032 345.013 168.077 344.879C162.939 344.541 166.212 345.36 161.794 340.058C158.644 336.275 161.769 336.571 161.496 331.699C161.199 326.342 162.537 325.289 155.474 320.782C152.461 318.857 151.577 308.984 151.282 304.603C151.139 302.463 151.294 303.941 150.859 302.632C149.421 298.306 149.434 291.649 148.846 286.622C148.603 284.525 148.425 282.868 148.795 281.379C149.364 279.108 149.581 278.878 150.616 277.359C153.582 273.015 149.827 268.26 145.396 267.972C142.677 267.793 138.732 272.772 140.386 276.002Z" fill="#D787CA"/>
<path fill-rule="evenodd" clip-rule="evenodd" d="M200.821 196.199C200.825 193.938 200.518 190.645 197.329 191.651C194.285 192.615 194.688 198.46 200.821 196.199Z" fill="#D787CA"/>
<path fill-rule="evenodd" clip-rule="evenodd" d="M196.599 186.994C196.599 189.671 197.538 189.77 198.451 190.119C200.102 187.71 199.082 184.041 198.36 181.924C198.333 181.842 198.276 181.697 198.225 181.59C197.764 182.176 198.186 181.037 197.528 182.661L196.599 186.994Z" fill="#D787CA"/>
<path fill-rule="evenodd" clip-rule="evenodd" d="M149.83 230.019C148.127 230.019 148.627 230.298 147.113 230.266C143.535 230.195 139.01 233.347 137.245 235.441C136.223 236.657 135.365 237.592 134.386 238.828L127.959 252.356C127.882 253.734 128.164 253.025 128.033 254.997C127.723 259.631 127.106 261.813 130.036 265.49C131.92 267.859 133.751 269.487 136.156 271.305C137.53 272.339 138.159 272.156 139.485 273.173C141.522 274.728 144.147 275.728 146.604 276.354C151.264 277.537 153.442 276.965 157.293 275.561C161.106 274.166 158.749 274.858 161.426 273.2C161.751 272.999 161.914 272.953 162.274 272.749L169.161 265.907C171.562 262.677 171.305 254.868 170.826 252.095C170.11 247.922 167.298 244.176 165.206 240.845C163.514 238.152 162.237 236.922 160.421 234.897C158.347 232.582 151.768 230.019 149.83 230.019Z" fill="#E000A3"/>
<path fill-rule="evenodd" clip-rule="evenodd" d="M222.771 237.93C222.771 240.511 223.811 241.636 225.113 243.377C226.921 245.793 226.904 246.627 230.13 246.627C231.171 246.627 232.587 245.158 232.587 243.727C232.587 241.097 230.777 240.21 229.717 238.417C225.939 232.035 222.771 234.512 222.771 237.93Z" fill="#E000A3"/>
<path fill-rule="evenodd" clip-rule="evenodd" d="M233.808 261.124C233.808 264.124 233.649 264.626 236.848 268.653C237.905 269.984 244.441 273.738 244.441 266.927C244.441 262.971 239.922 256.947 236.61 258.094C235.475 258.492 233.808 259.648 233.808 261.124Z" fill="#E000A3"/>
<path fill-rule="evenodd" clip-rule="evenodd" d="M202.73 202.168C202.152 210.389 201.275 208.467 205.659 213.206C208.127 215.874 206.991 219.566 217.037 222.986C218.327 223.424 218.476 223.276 219.905 222.465C218.596 215.827 222.062 218.608 217.926 211.274C216.866 209.394 216.916 208.179 216.16 206.11C214.537 201.654 211.579 200.718 207.637 200.718C206.616 200.719 206.497 201.799 202.73 202.168Z" fill="#E000A3"/>
<path fill-rule="evenodd" clip-rule="evenodd" d="M172.935 97.9181C170.077 97.9181 170.915 98.4014 168.376 98.3483C162.367 98.2254 154.77 103.73 151.811 107.385C150.094 109.501 148.658 111.137 147.009 113.292L136.227 136.905C136.096 139.31 136.568 138.07 136.35 141.515C135.828 149.603 134.794 153.409 139.711 159.828C142.874 163.962 145.947 166.806 149.985 169.978C152.285 171.78 153.342 171.466 155.571 173.236C158.989 175.954 163.394 177.7 167.523 178.789C175.339 180.857 178.994 179.854 185.454 177.41C191.857 174.97 187.904 176.182 192.397 173.284C192.94 172.933 193.212 172.856 193.815 172.498L205.374 160.558C209.407 154.916 208.974 141.293 208.172 136.451C206.97 129.168 202.251 122.628 198.739 116.82C195.898 112.12 193.753 109.973 190.708 106.441C187.225 102.396 176.183 97.9181 172.935 97.9181Z" fill="#E000A3"/>
<path fill-rule="evenodd" clip-rule="evenodd" d="M295.35 111.723C295.35 116.225 297.1 118.192 299.284 121.23C302.317 125.446 302.29 126.905 307.703 126.905C309.451 126.905 311.826 124.339 311.826 121.847C311.826 117.25 308.792 115.708 307.013 112.577C300.669 101.435 295.35 105.761 295.35 111.723Z" fill="#E000A3"/>
<path opacity="0.65" fill-rule="evenodd" clip-rule="evenodd" d="M313.882 152.211C313.882 157.443 313.611 158.319 318.982 165.348C320.755 167.665 331.727 174.219 331.727 162.334C331.727 155.43 324.136 144.916 318.584 146.923C316.676 147.61 313.882 149.626 313.882 152.211Z" fill="#E000A3"/>
<path fill-rule="evenodd" clip-rule="evenodd" d="M261.716 49.3095C260.749 63.6567 259.277 60.3042 266.632 68.5738C270.777 73.2333 268.869 79.6748 285.732 85.6413C287.895 86.4058 288.144 86.1482 290.547 84.7349C288.348 73.1458 294.164 77.9991 287.224 65.2C285.447 61.9207 285.53 59.796 284.264 56.1894C281.537 48.4102 276.574 46.7771 269.954 46.7771C268.241 46.7771 268.044 48.6643 261.716 49.3095Z" fill="#E000A3"/>
<path opacity="0.65" fill-rule="evenodd" clip-rule="evenodd" d="M47.679 62.3934C45.639 62.3934 46.24 62.7409 44.424 62.7031C40.135 62.6168 34.707 66.546 32.593 69.1552C31.367 70.6678 30.342 71.8365 29.164 73.3763L21.462 90.2405C21.368 91.9575 21.705 91.0736 21.549 93.5339C21.18 99.3113 20.44 102.029 23.953 106.615C26.212 109.567 28.405 111.594 31.29 113.862C32.934 115.152 33.687 114.923 35.28 116.191C37.72 118.131 40.867 119.38 43.813 120.158C49.401 121.632 52.009 120.921 56.624 119.169C61.197 117.428 58.374 118.298 61.581 116.226C61.971 115.973 62.165 115.918 62.597 115.666L70.852 107.135C73.734 103.105 73.422 93.3756 72.851 89.9155C71.993 84.7172 68.621 80.0435 66.114 75.8921C64.084 72.5373 62.553 71.0058 60.378 68.4816C57.89 65.5912 50.002 62.3934 47.679 62.3934Z" fill="#E000A3"/>
<path opacity="0.65" fill-rule="evenodd" clip-rule="evenodd" d="M135.117 72.2561C135.117 75.4715 136.367 76.8742 137.927 79.0474C140.095 82.0584 140.074 83.1007 143.943 83.1007C145.19 83.1007 146.888 81.2666 146.888 79.4846C146.888 76.203 144.719 75.0993 143.448 72.8647C138.917 64.9058 135.117 67.996 135.117 72.2561Z" fill="#E000A3"/>
<path fill-rule="evenodd" clip-rule="evenodd" d="M148.352 101.172C148.352 104.91 148.161 105.534 151.996 110.554C153.261 112.214 161.099 116.894 161.099 108.406C161.099 103.473 155.679 95.9635 151.712 97.3958C150.35 97.8862 148.352 99.3302 148.352 101.172Z" fill="#E000A3"/>
<path opacity="0.65" fill-rule="evenodd" clip-rule="evenodd" d="M111.097 27.6736C110.402 37.9214 109.353 35.5272 114.604 41.4358C117.567 44.7611 116.203 49.3603 128.248 53.624C129.794 54.1711 129.969 53.9856 131.683 52.9764C130.114 44.7008 134.271 48.1656 129.314 39.0215C128.043 36.6794 128.102 35.1632 127.199 32.5859C125.252 27.0307 121.704 25.8632 116.979 25.8632C115.754 25.8655 115.611 27.2139 111.097 27.6736Z" fill="#E000A3"/>
<path opacity="0.65" fill-rule="evenodd" clip-rule="evenodd" d="M93.264 338.79C92.095 338.79 92.437 338.978 91.398 338.963C88.939 338.909 85.825 341.08 84.613 342.52C83.911 343.354 83.32 343.995 82.647 344.846L78.229 354.146C78.176 355.093 78.37 354.605 78.28 355.963C78.067 359.15 77.642 360.652 79.657 363.177C80.954 364.807 82.213 365.926 83.865 367.174C84.807 367.887 85.241 367.761 86.154 368.461C87.554 369.53 89.359 370.218 91.05 370.648C94.253 371.462 95.749 371.069 98.395 370.102C101.019 369.142 99.4 369.62 101.24 368.481C101.464 368.342 101.573 368.308 101.823 368.171L106.557 363.465C108.21 361.243 108.03 355.878 107.703 353.969C107.21 351.098 105.276 348.524 103.837 346.236C102.675 344.385 101.796 343.541 100.55 342.149C99.119 340.553 94.598 338.79 93.264 338.79Z" fill="#E000A3"/>
<path fill-rule="evenodd" clip-rule="evenodd" d="M143.413 344.228C143.413 346.001 144.128 346.776 145.025 347.976C146.267 349.632 146.254 350.209 148.473 350.209C149.187 350.209 150.158 349.197 150.158 348.218C150.158 346.404 148.916 345.795 148.188 344.564C145.592 340.175 143.413 341.879 143.413 344.228Z" fill="#E000A3"/>
<path fill-rule="evenodd" clip-rule="evenodd" d="M151.002 360.177C151.002 362.238 150.892 362.583 153.092 365.354C153.817 366.265 158.314 368.846 158.314 364.164C158.314 361.445 155.207 357.302 152.93 358.093C152.146 358.365 151.002 359.158 151.002 360.177Z" fill="#E000A3"/>
<path opacity="0.65" fill-rule="evenodd" clip-rule="evenodd" d="M129.636 319.642C129.238 325.29 128.636 323.97 131.647 327.228C133.345 329.066 132.565 331.601 139.472 333.951C140.359 334.256 140.462 334.153 141.443 333.598C140.544 329.031 142.928 330.941 140.085 325.898C139.355 324.61 139.39 323.772 138.869 322.349C137.756 319.287 135.721 318.643 133.011 318.643C132.308 318.644 132.227 319.388 129.636 319.642Z" fill="#E000A3"/>
<path opacity="0.65" fill-rule="evenodd" clip-rule="evenodd" d="M21.0481 187.311C21.0481 195.303 20.3501 195.778 23.1271 200.961C23.3241 201.329 24.3501 203.138 24.7021 203.706C24.8211 203.906 24.9731 204.198 25.0971 204.386C28.9241 210.241 38.5021 213.539 45.9041 209.778L51.5461 207.239C55.6771 205.3 54.5221 205.555 57.1341 200.034C57.8141 198.599 59.0241 197.305 59.0241 196.514C59.0241 185.118 55.2241 179.661 47.5791 175.519C45.3511 174.312 46.3901 174.922 43.6201 174.364C33.3961 172.316 31.2181 176.632 24.9541 181.566C23.2891 182.873 21.0481 184.048 21.0481 187.311Z" fill="#D787CA"/>
<path fill-rule="evenodd" clip-rule="evenodd" d="M68.764 274.765C76.929 274.765 82.948 273.373 85.271 264.294C86.525 259.38 87.7389 257.307 84.3639 251.751C81.1139 246.391 70.678 245.995 67.789 245.995C64.06 245.995 51.4199 254.159 59.0409 267.822C59.1579 268.036 59.304 268.325 59.424 268.535C59.588 268.815 60.029 269.647 60.207 269.912C62.151 272.769 65.52 274.765 68.764 274.765Z" fill="#D787CA"/>
<path opacity="0.65" fill-rule="evenodd" clip-rule="evenodd" d="M91.1592 311.587C91.1592 317.744 98.8272 325.016 108.685 312.735C107.523 309.876 107.921 309.377 106.224 306.436C100.4 296.35 91.1592 308.024 91.1592 311.587Z" fill="#D787CA"/>
<path fill-rule="evenodd" clip-rule="evenodd" d="M62.9192 225.285C66.5122 231.623 70.2592 231.229 73.6302 225.285C71.5252 220.582 69.3042 216.933 64.8972 221.863C64.7542 222.026 64.5412 222.265 64.4092 222.434L62.9192 225.285Z" fill="#D787CA"/>
<path fill-rule="evenodd" clip-rule="evenodd" d="M72.655 235.637C72.655 243.936 88.542 239.753 77.524 231.037C76.197 231.863 72.655 233.556 72.655 235.637Z" fill="#D787CA"/>
<path fill-rule="evenodd" clip-rule="evenodd" d="M311.612 221.643C304.852 221.343 304.478 220.504 299.992 223.591C299.674 223.813 298.106 224.952 297.61 225.346C297.438 225.483 297.184 225.649 297.022 225.789C291.923 230.089 288.782 241.277 291.688 250.156L293.624 256.915C295.107 261.863 294.938 260.489 299.508 263.783C300.697 264.641 301.748 266.117 302.412 266.145C312.051 266.57 316.806 262.282 320.593 253.41C321.7 250.827 321.144 252.03 321.72 248.778C323.832 236.78 320.261 234.048 316.323 226.468C315.282 224.455 314.372 221.764 311.612 221.643Z" fill="#D787CA"/>
<path fill-rule="evenodd" clip-rule="evenodd" d="M235.881 274.731C235.575 284.375 236.53 291.535 244.122 294.615C248.229 296.28 249.937 297.792 254.761 294.011C259.415 290.375 260.141 278.067 260.249 274.651C260.389 270.246 253.951 255.019 242.114 263.51C241.93 263.64 241.679 263.8 241.499 263.933C241.253 264.115 240.537 264.606 240.306 264.81C237.816 266.999 236.001 270.903 235.881 274.731Z" fill="#D787CA"/>
<path fill-rule="evenodd" clip-rule="evenodd" d="M203.907 299.811C198.704 299.58 192.267 308.367 202.285 320.464C204.747 319.197 205.153 319.688 207.704 317.792C216.449 311.289 206.92 299.945 203.907 299.811Z" fill="#D787CA"/>
<path fill-rule="evenodd" clip-rule="evenodd" d="M277.939 269.672C272.448 273.682 272.639 278.12 277.543 282.323C281.596 280.011 284.766 277.527 280.757 272.133C280.629 271.96 280.436 271.698 280.295 271.539L277.939 269.672Z" fill="#D787CA"/>
<path fill-rule="evenodd" clip-rule="evenodd" d="M268.822 280.787C261.804 280.475 264.75 299.395 272.532 286.708C271.884 285.11 270.587 280.863 268.822 280.787Z" fill="#D787CA"/>
</svg>
